<svg class="animated" id="freepik_stories-startup-life" xmlns="http://www.w3.org/2000/svg" viewBox="0 0 500 500" version="1.1" xmlns:xlink="http://www.w3.org/1999/xlink" xmlns:svgjs="http://svgjs.com/svgjs"><style>svg#freepik_stories-startup-life:not(.animated) .animable {opacity: 0;}svg#freepik_stories-startup-life.animated #freepik--background-simple--inject-1 {animation: 6s Infinite  linear floating;animation-delay: 0s;}svg#freepik_stories-startup-life.animated #freepik--Screens--inject-1 {animation: 3s Infinite  linear floating;animation-delay: 0s;}svg#freepik_stories-startup-life.animated #freepik--Plant--inject-1 {animation: 3s Infinite  linear wind;animation-delay: 0s;}            @keyframes floating {                0% {                    opacity: 1;                    transform: translateY(0px);                }                50% {                    transform: translateY(-10px);                }                100% {                    opacity: 1;                    transform: translateY(0px);                }            }                    @keyframes wind {                0% {                    transform: rotate( 0deg );                }                25% {                    transform: rotate( 1deg );                }                75% {                    transform: rotate( -1deg );                }            }        </style><g id="freepik--background-simple--inject-1" style="transform-origin: 247.646667px 180.174255px;" class="animable"><path d="M409,78l-2.12-3.45C389,45.45,356.74,27.93,322.7,30.06a90.67,90.67,0,0,0-13,1.76c-31,6.55-57.89,29.66-69.05,59.26-6.57,17.41-8.4,37.46-20.86,51.28-16.22,18-43.75,18.54-67.95,17.8s-51.75-.11-67.89,17.94c-10.1,11.31-13.32,27.39-12.5,42.54,2.16,40.09,30.45,75.94,66.43,93.76S216.19,333.81,255.57,326c55.16-11,107.62-41.13,139.16-87.71S434.24,128.23,409,78Z" style="fill: rgb(245, 245, 245); transform-origin: 247.646667px 180.174255px;" id="eleru1ey9n3gk" class="animable"></path><path d="M188.07,88.8c-6-6.81-18.54-10.56-27.64-9.53h0A26.63,26.63,0,0,0,134.09,113c3.38,12.26,15.42,20.67,27.91,23.06,8,1.52,16.8.82,23.35-4s9.79-12.7,10.66-20.62C197,102.42,194.06,95.61,188.07,88.8Z" style="fill: rgb(245, 245, 245); transform-origin: 164.66114px 107.93935px;" id="elxaepzpi2pp" class="animable"></path></g><g id="freepik--Floor--inject-1" style="transform-origin: 249.999994px 444.820007px;" class="animable"><path d="M480.15,444.82c0,.14-103,.26-230.14.26S19.85,445,19.85,444.82s103-.26,230.16-.26S480.15,444.68,480.15,444.82Z" style="fill: rgb(38, 50, 56); transform-origin: 249.999994px 444.820007px;" id="el77ikj0jlf3a" class="animable"></path></g><g id="freepik--Screens--inject-1" style="transform-origin: 249.74501px 193.629974px;" class="animable"><rect x="309.91" y="145.13" width="145.28" height="97.28" style="fill: rgb(255, 255, 255); transform-origin: 382.55px 193.77px;" id="eltd4qij6jkps" class="animable"></rect><path d="M455.19,242.4s0-.61,0-1.77l0-5.13c0-4.5,0-11.11-.06-19.56,0-16.91-.06-41.2-.11-70.81l.21.2-145.27.06h0l.26-.26c0,34.65,0,67.6,0,97.27l-.24-.24,104.67.12,29.9.06,7.95,0,2.06,0h0l-2,0-7.91,0-29.85.06-104.82.12h-.24v-.24c0-29.67,0-62.62,0-97.27v-.27h.27l145.27.06h.21v.21c0,29.67-.08,54-.11,70.93,0,8.44,0,15-.05,19.52,0,2.23,0,3.94,0,5.1S455.19,242.4,455.19,242.4Z" style="fill: rgb(146, 227, 169); transform-origin: 382.615021px 193.629974px;" id="elk5olrpqluok" class="animable"></path><path d="M309.91,153.81c0-.15,32.5-.26,72.58-.26s72.58.11,72.58.26-32.49.26-72.58.26S309.91,154,309.91,153.81Z" style="fill: rgb(146, 227, 169); transform-origin: 382.490005px 153.809998px;" id="elo2e414j825" class="animable"></path><g id="el9ni39c7k16u"><g style="opacity: 0.3; transform-origin: 314.470018px 149.429966px;" class="animable"><path d="M315.64,149.43a1.17,1.17,0,1,1-1.16-1.17A1.16,1.16,0,0,1,315.64,149.43Z" style="fill: rgb(146, 227, 169); transform-origin: 314.470018px 149.429966px;" id="eln0amec2ea1" class="animable"></path></g></g><g id="elnac60e8souo"><g style="opacity: 0.3; transform-origin: 318.459993px 149.429966px;" class="animable"><path d="M319.63,149.43a1.17,1.17,0,1,1-1.16-1.17A1.16,1.16,0,0,1,319.63,149.43Z" style="fill: rgb(146, 227, 169); transform-origin: 318.459993px 149.429966px;" id="elj52784mmspq" class="animable"></path></g></g><g id="elt6bc0aaxc8"><g style="opacity: 0.3; transform-origin: 322.39002px 149.429966px;" class="animable"><path d="M323.56,149.43a1.17,1.17,0,1,1-1.16-1.17A1.16,1.16,0,0,1,323.56,149.43Z" style="fill: rgb(146, 227, 169); transform-origin: 322.39002px 149.429966px;" id="el982el81kq9a" class="animable"></path></g></g><rect x="322.4" y="163.95" width="38.75" height="38.75" style="fill: rgb(146, 227, 169); transform-origin: 341.775px 183.325px;" id="elqclcnxhr3wj" class="animable"></rect><path d="M435.27,174.9c0,.15-15.12.26-33.76.26s-33.76-.11-33.76-.26,15.12-.26,33.76-.26S435.27,174.76,435.27,174.9Z" style="fill: rgb(146, 227, 169); transform-origin: 401.509979px 174.899994px;" id="elg9zhj55k32r" class="animable"></path><path d="M435.27,182.11c0,.14-15.12.26-33.76.26s-33.76-.12-33.76-.26,15.12-.26,33.76-.26S435.27,182,435.27,182.11Z" style="fill: rgb(146, 227, 169); transform-origin: 401.509979px 182.110001px;" id="elj3ouxybfa3f" class="animable"></path><path d="M435.27,189.31c0,.14-15.12.26-33.76.26s-33.76-.12-33.76-.26,15.12-.26,33.76-.26S435.27,189.16,435.27,189.31Z" style="fill: rgb(146, 227, 169); transform-origin: 401.509979px 189.309998px;" id="el9gjj03i5i7n" class="animable"></path><path d="M407.66,196.51a8.58,8.58,0,0,1-1.57.1l-4.28.08c-3.61.05-8.6.08-14.1.08s-10.5,0-14.11-.08l-4.28-.08a8.58,8.58,0,0,1-1.57-.1,8.58,8.58,0,0,1,1.57-.1l4.28-.08c3.61-.05,8.6-.08,14.11-.08s10.49,0,14.1.08l4.28.08A8.58,8.58,0,0,1,407.66,196.51Z" style="fill: rgb(146, 227, 169); transform-origin: 387.705002px 196.509995px;" id="ellts45k8dloc" class="animable"></path><g id="ely98gs59jnef"><g style="opacity: 0.3; transform-origin: 333.925007px 224.875004px;" class="animable"><rect x="324.82" y="215.77" width="18.21" height="18.21" style="fill: rgb(146, 227, 169); transform-origin: 333.925px 224.875px;" id="elfstzjl063n7" class="animable"></rect></g></g><rect x="357.85" y="215.77" width="18.21" height="18.21" style="fill: rgb(146, 227, 169); transform-origin: 366.955px 224.875px;" id="elqc9veguuwx" class="animable"></rect><rect x="390.88" y="215.77" width="18.21" height="18.21" style="fill: rgb(146, 227, 169); transform-origin: 399.985px 224.875px;" id="ele5owt5bf5bb" class="animable"></rect><rect x="423.91" y="215.77" width="18.21" height="18.21" style="fill: rgb(146, 227, 169); transform-origin: 433.015px 224.875px;" id="elnh600rx8xod" class="animable"></rect><g id="elqkf7bcvagbl"><g style="opacity: 0.3; transform-origin: 341.774994px 183.324997px;" class="animable"><rect x="322.4" y="163.95" width="38.75" height="38.75" style="fill: rgb(255, 255, 255); transform-origin: 341.775px 183.325px;" id="elchuw5fiqnd" class="animable"></rect></g></g><g id="el5g1979nks5c"><g style="opacity: 0.3; transform-origin: 366.955006px 224.875004px;" class="animable"><rect x="357.85" y="215.77" width="18.21" height="18.21" style="fill: rgb(255, 255, 255); transform-origin: 366.955px 224.875px;" id="elrmmev2sjtd" class="animable"></rect></g></g><g id="eldaseysi4r45"><g style="opacity: 0.3; transform-origin: 399.985004px 224.875004px;" class="animable"><rect x="390.88" y="215.77" width="18.21" height="18.21" style="fill: rgb(255, 255, 255); transform-origin: 399.985px 224.875px;" id="elt6t67nxj7pi" class="animable"></rect></g></g><g id="elhp4cgt4n31k"><g style="opacity: 0.3; transform-origin: 433.015003px 224.875004px;" class="animable"><rect x="423.91" y="215.77" width="18.21" height="18.21" style="fill: rgb(255, 255, 255); transform-origin: 433.015px 224.875px;" id="elvq6dpon5p79" class="animable"></rect></g></g><rect x="44.21" y="180.17" width="129.42" height="52.57" style="fill: rgb(255, 255, 255); transform-origin: 108.92px 206.455px;" id="elaq4v6bul9jk" class="animable"></rect><path d="M173.63,232.74s0-.32,0-.94,0-1.53,0-2.73c0-2.4,0-5.92,0-10.46,0-9.07,0-22.2-.08-38.44l.14.14-129.41.06h0l.21-.2c0,18.41,0,36.18,0,52.57l-.2-.2,92.79.09,26.92.06,7.21,0,1.86,0h-1.82l-7.16,0-26.87.05-92.93.09H44V180h.21l129.41.07h.15v.14c0,16.28-.06,29.43-.08,38.53,0,4.52,0,8,0,10.43,0,1.18,0,2.08,0,2.7S173.63,232.74,173.63,232.74Z" style="fill: rgb(146, 227, 169); transform-origin: 108.884995px 206.414993px;" id="eljz62rffhk1" class="animable"></path><path d="M44.34,187.26c0-.11,28.93-.21,64.6-.21s64.62.1,64.62.21-28.93.2-64.62.2S44.34,187.37,44.34,187.26Z" style="fill: rgb(146, 227, 169); transform-origin: 108.950001px 187.25499px;" id="el02x5yzbags0x" class="animable"></path><g id="el4ojmubxgow"><g style="opacity: 0.3; transform-origin: 48.820002px 184.090012px;" class="animable"><path d="M49.76,184.09a.94.94,0,1,1-.94-.94A.94.94,0,0,1,49.76,184.09Z" style="fill: rgb(146, 227, 169); transform-origin: 48.820002px 184.090012px;" id="ele12khk8q30k" class="animable"></path></g></g><g id="elmqvq0kz3q6"><g style="opacity: 0.3; transform-origin: 52.060003px 184.090012px;" class="animable"><path d="M53,184.09a.94.94,0,1,1-.94-.94A.94.94,0,0,1,53,184.09Z" style="fill: rgb(146, 227, 169); transform-origin: 52.060003px 184.090012px;" id="elbcgolte7gb" class="animable"></path></g></g><g id="elczqafkfalv8"><g style="opacity: 0.3; transform-origin: 55.210009px 184.090012px;" class="animable"><path d="M56.15,184.09a.94.94,0,1,1-.94-.94A.94.94,0,0,1,56.15,184.09Z" style="fill: rgb(146, 227, 169); transform-origin: 55.210009px 184.090012px;" id="el9t9899dpwgm" class="animable"></path></g></g><rect x="55.21" y="195.8" width="31.26" height="31.26" style="fill: rgb(146, 227, 169); transform-origin: 70.84px 211.43px;" id="elpxq9bix3y67" class="animable"></rect><path d="M164.68,204.18c0,.11-16.09.21-35.93.21s-35.93-.1-35.93-.21,16.09-.2,35.93-.2S164.68,204.07,164.68,204.18Z" style="fill: rgb(146, 227, 169); transform-origin: 128.749996px 204.184998px;" id="eliyukjy7a48m" class="animable"></path><path d="M164.68,210.55c0,.11-16.09.2-35.93.2s-35.93-.09-35.93-.2,16.09-.21,35.93-.21S164.68,210.44,164.68,210.55Z" style="fill: rgb(146, 227, 169); transform-origin: 128.749996px 210.544998px;" id="el2ns243tzw7m" class="animable"></path><path d="M139.08,216.92a3.45,3.45,0,0,1-.47,0l-1.35,0-4.95.06-16.36.06-16.35-.06-5-.06-1.35,0a3.71,3.71,0,0,1-.47,0,1.63,1.63,0,0,1,.47,0l1.35,0,5-.07,16.35-.06,16.36.06,4.95.07,1.35,0A1.57,1.57,0,0,1,139.08,216.92Z" style="fill: rgb(146, 227, 169); transform-origin: 115.93px 216.914993px;" id="elidrjxjy87h" class="animable"></path><g id="elf3vytcdqx8v"><g style="opacity: 0.3; transform-origin: 70.839999px 211.430003px;" class="animable"><rect x="55.21" y="195.8" width="31.26" height="31.26" style="fill: rgb(245, 245, 245); transform-origin: 70.84px 211.43px;" id="elzco5yrbyr6k" class="animable"></rect></g></g></g><g id="freepik--Rocket--inject-1" style="transform-origin: 260.108315px 203.594017px;" class="animable"><path d="M268.73,114.11c-2.17-1.45-5.15-.57-7.32.88s-4,3.43-6.45,4.37c-4.56,1.77-10.55-.33-14.09,3-2.25,2.14-2.48,5.66-4.2,8.25-2.9,4.36-9.86,6-10.45,11.2-.35,3,2.05,5.94,5,6.79a10.69,10.69,0,0,0,8.7-1.74c3-2,5.31-5,8.69-6.14s7.73-.19,10.46-2.6,2.32-6.86,4.28-9.94a20,20,0,0,1,4.15-4.06c1.47-1.27,2.87-2.84,3.12-4.77s-.54-5.22-1.87-5.29" style="fill: rgb(245, 245, 245); transform-origin: 248.425999px 131.125319px;" id="elzdnw4lnsc5r" class="animable"></path><path d="M212.38,326.56c.13-.07.53.33.91.9s.59,1.11.47,1.19-.52-.32-.91-.9S212.26,326.64,212.38,326.56Z" style="fill: rgb(38, 50, 56); transform-origin: 213.06955px 327.606128px;" id="elapg1bbrlwu" class="animable"></path><path d="M208.1,317.54a6.41,6.41,0,0,1,1.19,2.22,6.34,6.34,0,0,1,.71,2.41,12.26,12.26,0,0,1-1.9-4.63Z" style="fill: rgb(38, 50, 56); transform-origin: 209.050018px 319.855011px;" id="el6zlg7dxrbz4" class="animable"></path><path d="M205.78,307.82a12.17,12.17,0,0,1,.91,4.92,6.18,6.18,0,0,1-.71-2.41A6.32,6.32,0,0,1,205.78,307.82Z" style="fill: rgb(38, 50, 56); transform-origin: 206.213668px 310.279999px;" id="eltp7welg6zr" class="animable"></path><path d="M205.43,297.83a12.39,12.39,0,0,1-.07,5,5.94,5.94,0,0,1-.23-2.5A6,6,0,0,1,205.43,297.83Z" style="fill: rgb(38, 50, 56); transform-origin: 205.368727px 300.329987px;" id="eluwipfd6f3r" class="animable"></path><path d="M207,288a6.24,6.24,0,0,1-.27,2.5,6.41,6.41,0,0,1-.78,2.39,6.25,6.25,0,0,1,.27-2.5A6.48,6.48,0,0,1,207,288Z" style="fill: rgb(38, 50, 56); transform-origin: 206.47509px 290.445007px;" id="elq9v33ns0fh8" class="animable"></path><path d="M210.64,278.65a11.77,11.77,0,0,1-2,4.56,6.31,6.31,0,0,1,.79-2.39C210,279.55,210.51,278.58,210.64,278.65Z" style="fill: rgb(38, 50, 56); transform-origin: 209.640015px 280.928204px;" id="elzubxq4kdog" class="animable"></path><path d="M216.15,270.31a6.34,6.34,0,0,1-1.28,2.17,7.21,7.21,0,0,1-1.69,1.86c-.14-.09.44-1.06,1.27-2.17S216,270.22,216.15,270.31Z" style="fill: rgb(38, 50, 56); transform-origin: 214.654554px 272.321679px;" id="elsop944ehzr" class="animable"></path><path d="M222.87,262.91c.11.1-.58,1-1.53,2s-1.81,1.72-1.92,1.63.58-1,1.54-2S222.77,262.8,222.87,262.91Z" style="fill: rgb(38, 50, 56); transform-origin: 221.145px 264.723391px;" id="el285z7lljfewj" class="animable"></path><path d="M229.91,255.79c.11.1-.6,1-1.57,2s-1.84,1.7-1.94,1.6.6-1,1.57-2S229.81,255.69,229.91,255.79Z" style="fill: rgb(38, 50, 56); transform-origin: 228.155868px 257.589983px;" id="el4cqrpjs2vtn" class="animable"></path><path d="M236.49,248.25a6.28,6.28,0,0,1-1.39,2.1c-.88,1.08-1.68,1.87-1.79,1.77a6.68,6.68,0,0,1,1.39-2.1C235.57,249,236.37,248.17,236.49,248.25Z" style="fill: rgb(38, 50, 56); transform-origin: 234.900009px 250.186601px;" id="el7tpbn66520e" class="animable"></path><path d="M241.59,239.67a5.44,5.44,0,0,1-.84,2.38,5.54,5.54,0,0,1-1.45,2.07,7.14,7.14,0,0,1,1-2.31A7.42,7.42,0,0,1,241.59,239.67Z" style="fill: rgb(38, 50, 56); transform-origin: 240.445007px 241.894997px;" id="el4eg6qa6b9b1" class="animable"></path><path d="M244,230a5.09,5.09,0,0,1-.05,2.52,5.28,5.28,0,0,1-.77,2.41,7.61,7.61,0,0,1,.26-2.49A7.8,7.8,0,0,1,244,230Z" style="fill: rgb(38, 50, 56); transform-origin: 243.650111px 232.465004px;" id="eli27i51sf2jd" class="animable"></path><path d="M243.28,220.07a5.13,5.13,0,0,1,.74,2.41,5.27,5.27,0,0,1,0,2.53,7.58,7.58,0,0,1-.54-2.45A7.74,7.74,0,0,1,243.28,220.07Z" style="fill: rgb(38, 50, 56); transform-origin: 243.714068px 222.540009px;" id="elbg6m08vhbe" class="animable"></path><path d="M239.35,210.92c.12-.08.85.79,1.51,2a5.25,5.25,0,0,1,.86,2.38,7.89,7.89,0,0,1-1.32-2.13A8.16,8.16,0,0,1,239.35,210.92Z" style="fill: rgb(38, 50, 56); transform-origin: 240.535004px 213.107454px;" id="elz8ibihuj96h" class="animable"></path><path d="M232.38,203.82a5.29,5.29,0,0,1,2.16,1.31c1.07.9,1.77,1.8,1.67,1.9s-1-.62-2-1.5S232.29,203.94,232.38,203.82Z" style="fill: rgb(38, 50, 56); transform-origin: 234.296695px 205.429653px;" id="el4jhrkl5xg2t" class="animable"></path><path d="M223.29,199.76a5.21,5.21,0,0,1,2.48.46,5.14,5.14,0,0,1,2.25,1.16,8,8,0,0,1-2.42-.67A7.39,7.39,0,0,1,223.29,199.76Z" style="fill: rgb(38, 50, 56); transform-origin: 225.654999px 200.56515px;" id="el0a9oswrjn2gd" class="animable"></path><path d="M213.35,199.31a5,5,0,0,1,2.47-.52,5.13,5.13,0,0,1,2.52.26,8.35,8.35,0,0,1-2.49.26A8,8,0,0,1,213.35,199.31Z" style="fill: rgb(38, 50, 56); transform-origin: 215.845009px 199.07159px;" id="elx63r39hbx5" class="animable"></path><path d="M204.13,203c-.09-.12.77-.87,2-1.53a4.8,4.8,0,0,1,2.39-.83,8.76,8.76,0,0,1-2.15,1.28A8.35,8.35,0,0,1,204.13,203Z" style="fill: rgb(38, 50, 56); transform-origin: 206.321779px 201.820015px;" id="elw4c9kwhpra" class="animable"></path><path d="M197.26,210.18a5.09,5.09,0,0,1,1.23-2.21c.85-1.11,1.73-1.84,1.83-1.74s-.59,1-1.42,2.06S197.38,210.25,197.26,210.18Z" style="fill: rgb(38, 50, 56); transform-origin: 198.794827px 208.202328px;" id="el8892nlfmrsw" class="animable"></path><path d="M193.89,219.52a4.92,4.92,0,0,1,.19-2.52,5,5,0,0,1,1-2.34,8.29,8.29,0,0,1-.47,2.46A8.18,8.18,0,0,1,193.89,219.52Z" style="fill: rgb(38, 50, 56); transform-origin: 194.443242px 217.090004px;" id="elymz2cqh0n2s" class="animable"></path><path d="M195.08,229.37a5,5,0,0,1-1-2.34,4.87,4.87,0,0,1-.2-2.52,9.05,9.05,0,0,1,.71,2.4A8.69,8.69,0,0,1,195.08,229.37Z" style="fill: rgb(38, 50, 56); transform-origin: 194.439194px 226.939995px;" id="elsbh7aar5lyd" class="animable"></path><path d="M200.15,237.93c-.11.1-.94-.68-1.75-1.82a5.27,5.27,0,0,1-1.17-2.24c.13-.07.79.83,1.59,1.94A7.7,7.7,0,0,1,200.15,237.93Z" style="fill: rgb(38, 50, 56); transform-origin: 198.69001px 235.90238px;" id="el2tl0xv2oay4" class="animable"></path><path d="M207.51,244.68a5.61,5.61,0,0,1-2.15-1.32c-1.09-.87-1.84-1.72-1.74-1.83a7.37,7.37,0,0,1,2.06,1.43C206.75,243.82,207.6,244.56,207.51,244.68Z" style="fill: rgb(38, 50, 56); transform-origin: 205.563806px 243.104988px;" id="elm9tqvsukkgc" class="animable"></path><path d="M216.18,249.65a12,12,0,0,1-4.46-2.27,6.48,6.48,0,0,1,2.35.9A6.27,6.27,0,0,1,216.18,249.65Z" style="fill: rgb(38, 50, 56); transform-origin: 213.949997px 248.514999px;" id="el2u0prpg213a" class="animable"></path><path d="M225.7,252.68a5.48,5.48,0,0,1-2.51-.3,5.35,5.35,0,0,1-2.34-.95,7.63,7.63,0,0,1,2.47.45A7.12,7.12,0,0,1,225.7,252.68Z" style="fill: rgb(38, 50, 56); transform-origin: 223.275017px 252.072706px;" id="elnoh980u45el" class="animable"></path><path d="M235.66,253.19a9.11,9.11,0,0,1-5,.1,7.35,7.35,0,0,1,2.49-.22A7.61,7.61,0,0,1,235.66,253.19Z" style="fill: rgb(38, 50, 56); transform-origin: 233.159996px 253.304329px;" id="elcus0x1u383w" class="animable"></path><path d="M245.28,250.62a8.94,8.94,0,0,1-4.7,1.69,7.48,7.48,0,0,1,2.3-1A7.34,7.34,0,0,1,245.28,250.62Z" style="fill: rgb(38, 50, 56); transform-origin: 242.93px 251.464981px;" id="elkkw2hz7xnbc" class="animable"></path><path d="M253.62,245.15c.1.11-.66,1-1.77,1.8a5.41,5.41,0,0,1-2.19,1.25c-.08-.13.79-.82,1.88-1.66A7.9,7.9,0,0,1,253.62,245.15Z" style="fill: rgb(38, 50, 56); transform-origin: 251.641847px 246.67498px;" id="el35qpasmp3jl" class="animable"></path><path d="M260.13,237.59a5.42,5.42,0,0,1-1.23,2.2c-.83,1.12-1.66,1.89-1.77,1.8s.54-1,1.36-2.11S260,237.51,260.13,237.59Z" style="fill: rgb(38, 50, 56); transform-origin: 258.623914px 239.590988px;" id="elm12zavj42lb" class="animable"></path><path d="M264.46,228.59a5.3,5.3,0,0,1-.61,2.45c-.52,1.3-1.13,2.26-1.26,2.19a7.44,7.44,0,0,1,.77-2.38A7.69,7.69,0,0,1,264.46,228.59Z" style="fill: rgb(38, 50, 56); transform-origin: 263.524994px 230.911793px;" id="elg75t7zi6c8r" class="animable"></path><path d="M266.4,218.8a9.54,9.54,0,0,1-.68,4.95,16.38,16.38,0,0,1,.68-4.95Z" style="fill: rgb(38, 50, 56); transform-origin: 266.098165px 221.275002px;" id="el26avxo8w7gv" class="animable"></path><path d="M266.14,208.81a6,6,0,0,1,.46,2.47,6.42,6.42,0,0,1-.07,2.52,12.39,12.39,0,0,1-.39-5Z" style="fill: rgb(38, 50, 56); transform-origin: 266.367111px 211.300011px;" id="el55d89925pyk" class="animable"></path><path d="M264,199.05a6.11,6.11,0,0,1,.91,2.35,6.21,6.21,0,0,1,.4,2.48,6.29,6.29,0,0,1-.91-2.35A6.18,6.18,0,0,1,264,199.05Z" style="fill: rgb(38, 50, 56); transform-origin: 264.654838px 201.465004px;" id="el4xevch7ia7f" class="animable"></path><path d="M260.14,189.81c.13-.07.73.89,1.33,2.14a6.15,6.15,0,0,1,.78,2.4,14.7,14.7,0,0,1-2.11-4.54Z" style="fill: rgb(38, 50, 56); transform-origin: 261.194977px 192.078192px;" id="elhvrjmt3viel" class="animable"></path><path d="M255.22,181.1c.13-.08.79.83,1.49,2a6.16,6.16,0,0,1,1,2.29,6.43,6.43,0,0,1-1.49-2A6.5,6.5,0,0,1,255.22,181.1Z" style="fill: rgb(38, 50, 56); transform-origin: 256.464996px 183.242554px;" id="elg0l0vunb3yh" class="animable"></path><path d="M250.26,172.41c.13-.07.77.86,1.44,2.06a6.44,6.44,0,0,1,1,2.32,6.41,6.41,0,0,1-1.44-2.07A6.15,6.15,0,0,1,250.26,172.41Z" style="fill: rgb(38, 50, 56); transform-origin: 251.479988px 174.598152px;" id="el6ajo94gb0ua" class="animable"></path><path d="M246.35,163.21a12.05,12.05,0,0,1,1.75,4.69,6,6,0,0,1-1.12-2.26A6.22,6.22,0,0,1,246.35,163.21Z" style="fill: rgb(38, 50, 56); transform-origin: 247.224998px 165.555008px;" id="elct2hsjsfz5t" class="animable"></path><path d="M244.65,153.38a7,7,0,0,1,.44,2.47,7.29,7.29,0,0,1,.09,2.5,5.31,5.31,0,0,1-.6-2.45A5.47,5.47,0,0,1,244.65,153.38Z" style="fill: rgb(38, 50, 56); transform-origin: 244.856756px 155.865013px;" id="elb9c7qplzox5" class="animable"></path><path d="M245.48,143.43a7.56,7.56,0,0,1-.18,2.5,7.07,7.07,0,0,1-.55,2.45,5.58,5.58,0,0,1,0-2.53A5.42,5.42,0,0,1,245.48,143.43Z" style="fill: rgb(38, 50, 56); transform-origin: 245.059278px 145.904991px;" id="elqdb5g85g94a" class="animable"></path><path d="M248.74,134a7.3,7.3,0,0,1-.8,2.38,7.49,7.49,0,0,1-1.13,2.24,9.37,9.37,0,0,1,1.93-4.62Z" style="fill: rgb(38, 50, 56); transform-origin: 247.774994px 136.310005px;" id="eln4rtqg45jw" class="animable"></path><path d="M254.31,125.71c.11.1-.55,1-1.39,2.09s-1.55,2-1.67,1.87a5.3,5.3,0,0,1,1.26-2.19C253.36,126.38,254.21,125.62,254.31,125.71Z" style="fill: rgb(38, 50, 56); transform-origin: 252.786004px 127.692588px;" id="elydbzi9atwb" class="animable"></path><path d="M261.82,119.13c.08.12-.79.83-1.87,1.67a7.45,7.45,0,0,1-2.09,1.39c-.1-.11.67-1,1.77-1.8A5.44,5.44,0,0,1,261.82,119.13Z" style="fill: rgb(38, 50, 56); transform-origin: 259.838201px 120.659981px;" id="eld509i2db6z" class="animable"></path><path d="M270.72,114.61a7.5,7.5,0,0,1-2.23,1.15,7.22,7.22,0,0,1-2.36.83c-.07-.13.88-.75,2.16-1.3A5.25,5.25,0,0,1,270.72,114.61Z" style="fill: rgb(38, 50, 56); transform-origin: 268.423204px 115.599998px;" id="elfpibq2cgj" class="animable"></path><path d="M278,112.77c0,.14-.51.36-1.18.48s-1.25.12-1.28,0,.5-.36,1.18-.49S278,112.63,278,112.77Z" style="fill: rgb(38, 50, 56); transform-origin: 276.76939px 113.001862px;" id="elx9fbjktxy0h" class="animable"></path><path d="M298.38,83.33s11.74-8.38,28-3c0,0,1.33,13.46-11.7,24.16" style="fill: rgb(146, 227, 169); transform-origin: 312.399117px 91.508922px;" id="el98dgtartabe" class="animable"></path><path d="M261.35,108.19c.5.75,13.25,21.24,13.25,21.24l38.27-23.58a13.4,13.4,0,0,0,3.74-19.38h0a13.39,13.39,0,0,0-18.23-3.14Z" style="fill: rgb(146, 227, 169); transform-origin: 290.294851px 105.240351px;" id="el62zg2abnfe4" class="animable"></path><path d="M274.6,129.43l-.86,14.42s24.8-12,18.61-25.36Z" style="fill: rgb(38, 50, 56); transform-origin: 283.541068px 131.169991px;" id="ela3zkr28lsuk" class="animable"></path><path d="M279.08,96.29s-16.82-7.42-30.66,3.46l12.93,8.44Z" style="fill: rgb(38, 50, 56); transform-origin: 263.749985px 101.00491px;" id="el3b024criki5" class="animable"></path><path d="M279,108.2l-23.93,15s.82,2.58,1.46,2.36,18.53-10.8,24.36-14.25a1.8,1.8,0,0,0,.47-2.69h0A1.81,1.81,0,0,0,279,108.2Z" style="fill: rgb(38, 50, 56); transform-origin: 268.419806px 116.754259px;" id="elbb9r2kgpr7w" class="animable"></path><g id="elkgrrj77mbup"><circle cx="301.01" cy="96.85" r="7.66" style="fill: rgb(250, 250, 250); transform-origin: 301.01px 96.85px; transform: rotate(-76.76deg);" class="animable"></circle></g><path d="M308.67,96.85c-.06,0,0-.68-.34-1.84a7.58,7.58,0,0,0-2.8-4.1,7.42,7.42,0,0,0-3.15-1.37,7.52,7.52,0,0,0-3.9.34A7.35,7.35,0,0,0,295,92.47a7.38,7.38,0,0,0,0,8.76,7.43,7.43,0,0,0,3.44,2.6,7.53,7.53,0,0,0,3.9.34,7.42,7.42,0,0,0,3.15-1.37,7.62,7.62,0,0,0,2.8-4.1c.31-1.16.28-1.85.34-1.85a1.61,1.61,0,0,1,0,.5,6.17,6.17,0,0,1-.17,1.4,7.73,7.73,0,0,1-6.07,5.84,7.84,7.84,0,0,1-7.83-3.06,7.84,7.84,0,0,1,0-9.36,7.77,7.77,0,0,1,3.69-2.74,7.77,7.77,0,0,1,7.44,1.19A7.63,7.63,0,0,1,308.53,95a6.17,6.17,0,0,1,.17,1.4A1.51,1.51,0,0,1,308.67,96.85Z" style="fill: rgb(38, 50, 56); transform-origin: 300.857559px 96.850772px;" id="el7c4ilod4xnb" class="animable"></path><path d="M318,102c-.1,0-.21-1.49-.8-3.82a30,30,0,0,0-1.33-4,29.27,29.27,0,0,0-5.56-8.61,29.59,29.59,0,0,0-3.09-2.86c-1.89-1.49-3.2-2.21-3.15-2.3a4.43,4.43,0,0,1,.95.45,11.59,11.59,0,0,1,1.07.63c.4.27.87.55,1.35.93a24.79,24.79,0,0,1,3.21,2.82A26.75,26.75,0,0,1,316.31,94a25.91,25.91,0,0,1,1.25,4.09c.15.59.21,1.14.29,1.62a11,11,0,0,1,.13,1.23A3.69,3.69,0,0,1,318,102Z" style="fill: rgb(38, 50, 56); transform-origin: 311.048808px 91.204998px;" id="elho7f6dj2oxw" class="animable"></path><path d="M315.94,103.06c-.1,0-.22-1.51-.82-3.88a31,31,0,0,0-1.35-4.06,32,32,0,0,0-2.43-4.64,32.41,32.41,0,0,0-3.2-4.14A29.91,29.91,0,0,0,305,83.41c-1.91-1.53-3.24-2.27-3.19-2.36a4.5,4.5,0,0,1,1,.47,10.25,10.25,0,0,1,1.07.65c.41.27.89.57,1.37,1A27.45,27.45,0,0,1,308.49,86a29.79,29.79,0,0,1,3.29,4.19,30.47,30.47,0,0,1,2.43,4.74,26.79,26.79,0,0,1,1.27,4.16c.15.6.21,1.16.29,1.64a9.7,9.7,0,0,1,.14,1.25A4.84,4.84,0,0,1,315.94,103.06Z" style="fill: rgb(38, 50, 56); transform-origin: 308.882854px 92.055px;" id="elommtpbkl50i" class="animable"></path></g><g id="freepik--Plant--inject-1" style="transform-origin: 77.424145px 364.92511px;" class="animable"><path d="M81.84,421c-.86-3.4,1.39-6.8,3.9-9.25s5.5-4.64,6.82-7.89c2.13-5.26-.66-12.11,3-16.49,2.12-2.58,5.92-3.42,7.8-6.18a14.06,14.06,0,0,0,1.72-4.93,50.19,50.19,0,0,1,12.62-23.3,43.45,43.45,0,0,1-5,22.49c-1.47,2.76-3.27,5.45-3.76,8.54-.82,5,2,10.19.7,15.11-1.45,5.62-7.79,9.36-8.13,15.15-.28,4.91,4,9.23,3.62,14.13a13.14,13.14,0,0,1-2.21,5.8C99,440.43,93.43,444.74,85,444.55l-10.34.3Z" style="fill: rgb(146, 227, 169); transform-origin: 96.20669px 398.904999px;" id="el8etrzyh0wmr" class="animable"></path><g id="elq7x68rl541h"><g style="opacity: 0.3; transform-origin: 96.20669px 398.904999px;" class="animable"><path d="M81.84,421c-.86-3.4,1.39-6.8,3.9-9.25s5.5-4.64,6.82-7.89c2.13-5.26-.66-12.11,3-16.49,2.12-2.58,5.92-3.42,7.8-6.18a14.06,14.06,0,0,0,1.72-4.93,50.19,50.19,0,0,1,12.62-23.3,43.45,43.45,0,0,1-5,22.49c-1.47,2.76-3.27,5.45-3.76,8.54-.82,5,2,10.19.7,15.11-1.45,5.62-7.79,9.36-8.13,15.15-.28,4.91,4,9.23,3.62,14.13a13.14,13.14,0,0,1-2.21,5.8C99,440.43,93.43,444.74,85,444.55l-10.34.3Z" id="elv9hsmwkkkn" style="transform-origin: 96.20669px 398.904999px;" class="animable"></path></g></g><path d="M72.56,445.11a8.06,8.06,0,0,1-2.85-.08,17.4,17.4,0,0,1-3.35-.86,14.45,14.45,0,0,1-4.14-2.3,5.71,5.71,0,0,1-1.69-2.28,10.74,10.74,0,0,1-.47-3.09,32.46,32.46,0,0,0-.22-3.35,9.16,9.16,0,0,0-1.25-3.33c-1.2-2.15-3.22-4.18-3.85-7.1s-.17-6,.33-9.05,1-6.48-.19-9.72-3.34-6.17-4.45-9.82-.56-7.64-.78-11.55a15.2,15.2,0,0,0-1.31-5.75c-.83-1.83-2-3.56-2.87-5.49-1.81-3.91-2.11-8.32-2.59-12.65-.23-2.18-.47-4.39-.7-6.61a32.27,32.27,0,0,0-1.12-6.62,57.54,57.54,0,0,0-2.43-6.41,21,21,0,0,1-1.18-3.35,33.37,33.37,0,0,1-.32-3.56,41.81,41.81,0,0,1,.32-7.15c.29-2.38.74-4.75,1-7.14,0-.14,0-.28,0-.41l.05-.47.42.21a15.85,15.85,0,0,1,5.54,4.73,25.39,25.39,0,0,1,3.39,6.32c1.7,4.45,2.29,9.11,3.14,13.55s1.92,8.83,4.17,12.53c1.13,1.85,2.49,3.54,3.68,5.34a14.77,14.77,0,0,1,2.53,5.9c.58,4.38-1.85,8.21-1.37,12.08A13.49,13.49,0,0,0,61.92,383c.93,1.66,2,3.19,3.06,4.74a29.69,29.69,0,0,1,2.75,4.78A15,15,0,0,1,69,397.72c.23,3.49-.28,6.79,0,9.92a22.73,22.73,0,0,0,2.5,8.51c1.23,2.55,2.61,4.86,3.76,7.09a35,35,0,0,1,1.55,3.31,15.79,15.79,0,0,1,.89,3.27,20.51,20.51,0,0,1,0,5.9,14.85,14.85,0,0,1-3,7.51,6.8,6.8,0,0,1-.84.9,3.94,3.94,0,0,1-.68.57l-.59.41a13.15,13.15,0,0,0,2-2,15,15,0,0,0,2.85-7.45,20.46,20.46,0,0,0-.1-5.82,15.7,15.7,0,0,0-.9-3.2c-.43-1.07-1-2.15-1.55-3.26-1.17-2.21-2.56-4.51-3.82-7.08a23.18,23.18,0,0,1-2.59-8.66c-.26-3.19.24-6.5,0-9.91a14.55,14.55,0,0,0-1.22-5,29.69,29.69,0,0,0-2.72-4.69c-1-1.54-2.14-3.08-3.1-4.77a14.16,14.16,0,0,1-1.94-5.6c-.47-4.13,1.94-8,1.34-12.05A14,14,0,0,0,58.38,360c-1.17-1.77-2.54-3.46-3.7-5.35-2.32-3.81-3.44-8.27-4.27-12.74s-1.45-9.08-3.12-13.44a24.66,24.66,0,0,0-3.3-6.15,15.25,15.25,0,0,0-5.3-4.53l.48-.27-.05.42c-.28,2.42-.72,4.79-1,7.14a40.7,40.7,0,0,0-.32,7.05c.06,1.15.13,2.36.3,3.45a22.2,22.2,0,0,0,1.14,3.23,58.28,58.28,0,0,1,2.46,6.48A32.86,32.86,0,0,1,42.81,352c.24,2.22.47,4.43.7,6.61.47,4.35.77,8.69,2.51,12.46.87,1.88,2,3.61,2.86,5.51a16,16,0,0,1,1.36,6c.2,4-.34,7.89.72,11.43s3.29,6.46,4.41,9.81.67,6.86.16,9.95-1,6.14-.38,8.89,2.53,4.8,3.76,7a9.49,9.49,0,0,1,1.27,3.46,31,31,0,0,1,.2,3.39,10.21,10.21,0,0,0,.42,3,5.54,5.54,0,0,0,1.59,2.19,14.23,14.23,0,0,0,4,2.3,17.57,17.57,0,0,0,3.3.92,14.15,14.15,0,0,0,2.1.22C72.31,445.1,72.56,445.11,72.56,445.11Z" style="fill: rgb(38, 50, 56); transform-origin: 57.504093px 381.085129px;" id="elz4ebiksseg" class="animable"></path><path d="M40.59,323.15a1.3,1.3,0,0,1,.1.31c.05.25.13.55.22.93.2.82.43,2.05.81,3.59s1.33,3.27,2.12,5.41,1.65,4.58,2.41,7.34,1.46,5.83,2.17,9.11A38.3,38.3,0,0,0,51.67,360c.84,1.68,1.78,3.39,2.53,5.25a24.59,24.59,0,0,1,1.46,5.94,120.67,120.67,0,0,0,2.15,12.52c2,8.48,4,16.56,5.71,23.92s3.42,13.94,4.79,19.51,2.41,10,3.17,13.16l.83,3.59c.08.38.15.69.2.94a1.55,1.55,0,0,1,0,.32,1.19,1.19,0,0,1-.11-.31l-.27-.92c-.23-.86-.55-2.05-1-3.56l-3.38-13.11c-1.4-5.56-3.07-12.16-4.92-19.47s-3.72-15.44-5.77-23.93A119.38,119.38,0,0,1,55,371.24a23.43,23.43,0,0,0-1.4-5.8c-.72-1.81-1.65-3.51-2.49-5.21A38.79,38.79,0,0,1,47.88,350c-.69-3.29-1.34-6.35-2.08-9.1s-1.52-5.22-2.31-7.34-1.64-3.89-2-5.48-.54-2.79-.69-3.62c-.07-.38-.12-.7-.16-.95A1.29,1.29,0,0,1,40.59,323.15Z" style="fill: rgb(38, 50, 56); transform-origin: 56.554132px 384.150009px;" id="elyj53bgtqfeg" class="animable"></path><path d="M70.73,445.13c-6.73-4.05-8.6-16.24-5.74-23.56s7.83-14,8.63-21.8c.62-6-1.31-12.18.12-18,1.94-7.92,9.71-14,9.67-22.16,0-4.57-2.6-8.89-2.37-13.46.29-5.6,4.61-10,7.3-14.94,4.12-7.53,4.44-16.46,5.88-24.92s4.72-17.52,12.25-21.64c1.07,7.2,2.94,12.14,2.29,21.88-.24,3.49-4.34,10.17-4.94,17.83-.35,4.58-.61,9.17-.91,13.76s-.62,9-2.24,13.17c-1.24,3.19-3.23,6.08-4.16,9.38-1.75,6.21.47,12.95-1,19.24-1.2,5.33-4.92,9.9-5.71,15.3-1.1,7.6,3.77,15.52,1.21,22.76-1.27,3.59-4.24,6.46-5.1,10.17-.67,2.88,0,5.93-.58,8.82-1,4.66-9.9,8.23-14.65,7.92" style="fill: rgb(146, 227, 169); transform-origin: 86.295284px 364.890015px;" id="elkrwhfkxlcx" class="animable"></path><path d="M104.57,291.73a2.11,2.11,0,0,1,0,.41c0,.3-.09.69-.16,1.18-.16,1-.34,2.56-.7,4.53s-1.43,4.21-2.26,6.89-1.75,5.77-2.53,9.24-1.45,7.29-2.15,11.41-1.47,8.61-3.54,12.9c-1,2.15-2,4.31-2.84,6.6a30,30,0,0,0-1.47,7.29,146.21,146.21,0,0,1-2.07,15.72c-2.13,10.64-4.15,20.78-6,30l-5.16,24.44c-1.49,6.92-2.7,12.53-3.54,16.46-.43,1.91-.76,3.41-1,4.47l-.27,1.16a2.21,2.21,0,0,1-.12.39,2.37,2.37,0,0,1,0-.4c.06-.3.13-.69.21-1.18.21-1.07.5-2.57.88-4.49.79-3.94,1.93-9.57,3.33-16.51s3.13-15.27,5-24.47l6-30a150,150,0,0,0,2.07-15.66,30.26,30.26,0,0,1,1.52-7.44c.83-2.34,1.92-4.51,2.88-6.64,2.06-4.22,2.8-8.64,3.55-12.75s1.42-8,2.25-11.42,1.72-6.56,2.63-9.24,1.94-4.91,2.35-6.84.63-3.47.83-4.49c.09-.49.17-.87.22-1.17A2.51,2.51,0,0,1,104.57,291.73Z" style="fill: rgb(38, 50, 56); transform-origin: 87.66576px 368.275024px;" id="ellvtzxlbfbxn" class="animable"></path></g><g id="freepik--Chart--inject-1" style="transform-origin: 426.024994px 289.940002px;" class="animable"><rect x="402.47" y="287.76" width="6.97" height="22.52" style="fill: rgb(146, 227, 169); transform-origin: 405.955px 299.02px;" id="el0kl19dhm6jpk" class="animable"></rect><rect x="415.3" y="278.49" width="6.97" height="31.78" style="fill: rgb(146, 227, 169); transform-origin: 418.785px 294.38px;" id="elqnbxogc7k7d" class="animable"></rect><rect x="428.95" y="274.16" width="6.97" height="36.11" style="fill: rgb(146, 227, 169); transform-origin: 432.435px 292.215px;" id="elc7d520hzyfa" class="animable"></rect><rect x="442.61" y="269.6" width="6.97" height="40.68" style="fill: rgb(146, 227, 169); transform-origin: 446.095px 289.94px;" id="elg026mua0c0f" class="animable"></rect></g><g id="freepik--Gears--inject-1" style="transform-origin: 153.340023px 300.565033px;" class="animable"><path d="M167.52,317a4.8,4.8,0,0,1,1.5.47,6.4,6.4,0,0,1,3.59,5.94,6.4,6.4,0,0,1-1,3.27,6.53,6.53,0,0,1-2.87,2.47,6.45,6.45,0,0,1-7.51-1.69,6.15,6.15,0,0,1-1-1.65,5.81,5.81,0,0,1-.49-1.8,6.46,6.46,0,0,1,.49-3.39,6.35,6.35,0,0,1,5.78-3.83,4.63,4.63,0,0,1,1.56.21s-.56-.11-1.55-.07a6.25,6.25,0,0,0-3.83,1.51,6.13,6.13,0,0,0-1.69,2.3,6.29,6.29,0,0,0-.43,3.23,5.85,5.85,0,0,0,.48,1.7,5.76,5.76,0,0,0,1,1.56,6.14,6.14,0,0,0,7.1,1.59,5.57,5.57,0,0,0,1.56-1,5.73,5.73,0,0,0,1.17-1.34,6.25,6.25,0,0,0-2.38-8.9C168.07,317.11,167.51,317,167.52,317Z" style="fill: rgb(38, 50, 56); transform-origin: 166.15128px 323.246352px;" id="el8h4dpbkk4mq" class="animable"></path><path d="M172.6,310.19a1.76,1.76,0,0,1,0-.22c0-.17,0-.39,0-.68,0-.62,0-1.51,0-2.67l.05.06-5.77-1.26.1-.05-1.52,3.23,0,.06h-.07a14.41,14.41,0,0,0-3.76.67l-.07,0-.05-.05-2.54-2.51H159l-5,3.18.06-.17,1.2,3.36,0,.08-.06.07a14.67,14.67,0,0,0-2.19,3.12l0,.08H153l-3.56,0,.15-.13c-.4,1.81-.84,3.76-1.28,5.76l-.09-.19,3.22,1.53.09.05v.1a15,15,0,0,0,.65,3.75l0,.1-.08.08-2.52,2.53,0-.22,3.16,5-.21-.08,3.36-1.2.11,0,.08.07a14.13,14.13,0,0,0,3.1,2.19h0c.05.07-.09-.16.1.16h0v3.56l-.14-.18,5.76,1.3-.2.1c.51-1.09,1-2.16,1.53-3.23l.05-.09h.11a14.17,14.17,0,0,0,3.74-.65l.11,0,.07.07,2.53,2.53-.22,0,5-3.15-.07.19c-.41-1.14-.8-2.26-1.2-3.36l0-.09.07-.08a14.4,14.4,0,0,0,2.2-3.11l0-.08h3.66l-.14.12c.46-2,.89-3.94,1.3-5.77l.08.16-3.22-1.54-.07,0v-.08a14.21,14.21,0,0,0-.64-3.76l0-.07,0-.05,2.53-2.53,0,.14-3.14-5,.1,0-3.37,1.17h0l0,0a15.7,15.7,0,0,0-2.29-1.76l-.62-.37-.2-.13.22.1.63.34a14.89,14.89,0,0,1,2.34,1.73h-.06l3.35-1.22.06,0,0,.06,3.18,5,0,.07-.06.07-2.51,2.53,0-.12a14.32,14.32,0,0,1,.67,3.83l-.07-.11,3.23,1.52.1.05,0,.11c-.4,1.82-.83,3.73-1.28,5.76l0,.12h-3.69l.14-.08a14.66,14.66,0,0,1-2.24,3.18l0-.16c.39,1.1.8,2.22,1.2,3.36l.05.13-.12.07-5,3.16-.12.08-.1-.1-2.53-2.52.18,0a14.52,14.52,0,0,1-3.84.67l.15-.1c-.5,1.06-1,2.14-1.53,3.22l-.06.13-.14,0-5.76-1.29-.14,0V336h0c.19.32,0,.09.1.16h0a14.5,14.5,0,0,1-3.18-2.24l.18,0-3.36,1.19-.14.05-.07-.12-3.16-5-.08-.12.1-.1,2.52-2.53,0,.18a14.84,14.84,0,0,1-.67-3.84l.1.14L148,322.29l-.12-.06,0-.13,1.3-5.76,0-.13H153l-.13.08a14.49,14.49,0,0,1,2.24-3.17l0,.15-1.19-3.37,0-.11.1-.06,5-3.15.09-.05.08.07,2.52,2.53-.12,0a14.43,14.43,0,0,1,3.82-.65l-.09.06,1.55-3.22,0-.07.07,0,5.75,1.33h.05v0c0,1.15,0,2,0,2.65,0,.29,0,.52,0,.68A2.17,2.17,0,0,1,172.6,310.19Z" style="fill: rgb(38, 50, 56); transform-origin: 165.780022px 323.190033px;" id="ellk9v050rppn" class="animable"></path><path d="M161.72,265.33a16.16,16.16,0,0,1,3.48,2.45l3.72-1.32,3.49,5.51-2.78,2.8a16.29,16.29,0,0,1,.73,4.2l3.56,1.69L172.49,287h-3.94a16.2,16.2,0,0,1-2.46,3.48l1.33,3.72-5.52,3.49L159.1,295a16.29,16.29,0,0,1-4.19.73l-1.69,3.56-6.37-1.43v-3.94a16,16,0,0,1-3.48-2.46l-3.72,1.33-3.5-5.52,2.79-2.79a16.44,16.44,0,0,1-.73-4.2l-3.56-1.69,1.42-6.37H140a15.92,15.92,0,0,1,2.45-3.48L141.14,265l5.51-3.5,2.8,2.79a16.29,16.29,0,0,1,4.2-.73l1.69-3.56,6.37,1.43v3.94Zm-5.62,7.5a7,7,0,1,0,5.3,8.37A7,7,0,0,0,156.1,272.83Z" style="fill: rgb(146, 227, 169); fill-rule: evenodd; transform-origin: 154.285004px 279.645004px;" id="elolaq42szurf" class="animable"></path><g id="ellaou13vxnkl"><g style="opacity: 0.8; transform-origin: 154.285004px 279.645004px;" class="animable"><path d="M161.72,265.33a16.16,16.16,0,0,1,3.48,2.45l3.72-1.32,3.49,5.51-2.78,2.8a16.29,16.29,0,0,1,.73,4.2l3.56,1.69L172.49,287h-3.94a16.2,16.2,0,0,1-2.46,3.48l1.33,3.72-5.52,3.49L159.1,295a16.29,16.29,0,0,1-4.19.73l-1.69,3.56-6.37-1.43v-3.94a16,16,0,0,1-3.48-2.46l-3.72,1.33-3.5-5.52,2.79-2.79a16.44,16.44,0,0,1-.73-4.2l-3.56-1.69,1.42-6.37H140a15.92,15.92,0,0,1,2.45-3.48L141.14,265l5.51-3.5,2.8,2.79a16.29,16.29,0,0,1,4.2-.73l1.69-3.56,6.37,1.43v3.94Zm-5.62,7.5a7,7,0,1,0,5.3,8.37A7,7,0,0,0,156.1,272.83Z" style="fill: rgb(255, 255, 255); fill-rule: evenodd; transform-origin: 154.285004px 279.645004px;" id="elr6g7tkb74c" class="animable"></path></g></g><path d="M138.68,302.87a9.3,9.3,0,0,1,2,1.42l2.17-.77,2,3.21-1.62,1.63a9.46,9.46,0,0,1,.43,2.44l2.07,1L145,315.5h-2.3a9.46,9.46,0,0,1-1.42,2l.77,2.16-3.22,2-1.62-1.62a9.6,9.6,0,0,1-2.45.42l-1,2.08-3.71-.84v-2.29a9.16,9.16,0,0,1-2-1.43l-2.17.77-2-3.21,1.62-1.63a9.45,9.45,0,0,1-.42-2.44l-2.08-1,.83-3.71H126a9.65,9.65,0,0,1,1.43-2l-.77-2.16,3.21-2,1.63,1.63a9.05,9.05,0,0,1,2.44-.43l1-2.07,3.71.83v2.3Zm-3.27,4.36a4.08,4.08,0,1,0,3.08,4.87A4.08,4.08,0,0,0,135.41,307.23Z" style="fill: rgb(146, 227, 169); fill-rule: evenodd; transform-origin: 134.365002px 311.13501px;" id="elqwk4rggt55" class="animable"></path><g id="el1rzvikzyuxr"><g style="opacity: 0.4; transform-origin: 134.365002px 311.13501px;" class="animable"><path d="M138.68,302.87a9.3,9.3,0,0,1,2,1.42l2.17-.77,2,3.21-1.62,1.63a9.46,9.46,0,0,1,.43,2.44l2.07,1L145,315.5h-2.3a9.46,9.46,0,0,1-1.42,2l.77,2.16-3.22,2-1.62-1.62a9.6,9.6,0,0,1-2.45.42l-1,2.08-3.71-.84v-2.29a9.16,9.16,0,0,1-2-1.43l-2.17.77-2-3.21,1.62-1.63a9.45,9.45,0,0,1-.42-2.44l-2.08-1,.83-3.71H126a9.65,9.65,0,0,1,1.43-2l-.77-2.16,3.21-2,1.63,1.63a9.05,9.05,0,0,1,2.44-.43l1-2.07,3.71.83v2.3Zm-3.27,4.36a4.08,4.08,0,1,0,3.08,4.87A4.08,4.08,0,0,0,135.41,307.23Z" style="fill: rgb(255, 255, 255); fill-rule: evenodd; transform-origin: 134.365002px 311.13501px;" id="elgknn11emf58" class="animable"></path></g></g></g><g id="freepik--Character--inject-1" style="transform-origin: 276.31517px 325.744629px;" class="animable"><path d="M359.53,266.07a9.78,9.78,0,0,0,7.07-9.75c-.12-2-.85-3.86-.77-5.82.13-3,2.15-5.61,3.67-8.25s2.53-6.11.76-8.59c-1.14-1.61-3.17-2.33-4.56-3.73s-2-3.27-2.74-5.06-1.67-3.64-3.35-4.59-4.25-.54-4.94,1.27" style="fill: rgb(38, 50, 56); transform-origin: 362.934116px 242.927011px;" id="elnj2kzk3nok" class="animable"></path><path d="M341.37,216.74c3-1.91,3.72-6.32,2.09-9.47s-5.07-5.07-8.57-5.64a16.34,16.34,0,0,0-14.07,4.66c-1.93,2-3.5,4.59-6.12,5.5-2.3.81-4.85.08-7.27.4a11,11,0,0,0-7.69,5.54,23.64,23.64,0,0,0-2.73,9.35c-.35,3-.59,6.25-2.65,8.42s-5.21,2.57-7.71,4.08A10.56,10.56,0,0,0,283.51,254c1,1.44,2.42,2.77,2.53,4.52s-.92,3-1.41,4.56a7.12,7.12,0,0,0,6.1,8.84c2.08.12,4.3-.69,6.17.24s2.54,3.16,3.72,4.86a8.93,8.93,0,0,0,10.87,2.8c1.53-.75,3-2,4.67-1.87s3,1.56,4.7,1.88c2.19.42,4.26-1.19,5.56-3s2.21-3.94,3.87-5.42c2.18-1.94,5.24-2.41,8-3.36A22.55,22.55,0,0,0,351,236.47" style="fill: rgb(38, 50, 56); transform-origin: 317.686508px 241.034225px;" id="ellryact6ffqf" class="animable"></path><path d="M348,220.67a4.79,4.79,0,0,1,4.27,4.87h0l-2.86,64.67c-.12,7.64-11.28,11.93-19.46,11.74h0c-8.26-.19-8.52-4.24-8.63-11.51-.17-12.14-.15-16.7-.16-16.63s-10.43-1.75-12.56-15.37c-1.06-6.78-.7-17.88-.11-26.95.54-8.17,6-18.18,14.11-17.3Z" style="fill: rgb(255, 190, 157); transform-origin: 330.097008px 258.045906px;" id="el5o88rz5asdm" class="animable"></path><path d="M311.44,240.3a1.76,1.76,0,0,0,1.68,1.77,1.67,1.67,0,0,0,1.8-1.57,1.74,1.74,0,0,0-1.67-1.77A1.68,1.68,0,0,0,311.44,240.3Z" style="fill: rgb(38, 50, 56); transform-origin: 313.180142px 240.399989px;" id="el9im0h1bj28" class="animable"></path><path d="M310.84,237.27c.22.23,1.54-.75,3.42-.74s3.25.95,3.46.72-.12-.51-.72-.95a4.79,4.79,0,0,0-2.77-.86,4.57,4.57,0,0,0-2.72.87C310.93,236.75,310.73,237.17,310.84,237.27Z" style="fill: rgb(38, 50, 56); transform-origin: 314.29724px 236.372423px;" id="eluo76iwc9sdo" class="animable"></path><path d="M330.17,240.3a1.76,1.76,0,0,0,1.68,1.77,1.67,1.67,0,0,0,1.8-1.57,1.74,1.74,0,0,0-1.68-1.77A1.67,1.67,0,0,0,330.17,240.3Z" style="fill: rgb(38, 50, 56); transform-origin: 331.910149px 240.399984px;" id="elxukyq7qkzyf" class="animable"></path><path d="M329.31,237.66c.22.23,1.54-.75,3.42-.74s3.25,1,3.46.72-.12-.51-.72-.95a4.79,4.79,0,0,0-2.77-.86,4.64,4.64,0,0,0-2.72.87C329.4,237.15,329.2,237.56,329.31,237.66Z" style="fill: rgb(38, 50, 56); transform-origin: 332.767241px 236.762427px;" id="elutsw5x30w9" class="animable"></path><path d="M322.46,251.58a12.39,12.39,0,0,0-3-.56c-.48-.05-.94-.15-1-.47a2.41,2.41,0,0,1,.33-1.42c.45-1.16.93-2.38,1.42-3.65,2-5.2,3.42-9.48,3.21-9.55s-2,4.07-4,9.26c-.47,1.29-.93,2.51-1.36,3.68a2.74,2.74,0,0,0-.26,1.88,1.19,1.19,0,0,0,.79.7,3.31,3.31,0,0,0,.82.12A12.38,12.38,0,0,0,322.46,251.58Z" style="fill: rgb(38, 50, 56); transform-origin: 320.588365px 243.799254px;" id="eldg4z0ift5zj" class="animable"></path><path d="M321.11,273.81A34.68,34.68,0,0,0,339.36,269s-4.62,9.6-18.25,8.29Z" style="fill: rgb(235, 153, 110); transform-origin: 330.235001px 273.206421px;" id="el6oxrzftewjp" class="animable"></path><path d="M323.24,256.11a3.4,3.4,0,0,1,3-1.25,3.05,3.05,0,0,1,2.13,1.15,2,2,0,0,1,.15,2.24,2.3,2.3,0,0,1-2.47.62,7.32,7.32,0,0,1-2.4-1.44,2.34,2.34,0,0,1-.53-.56.63.63,0,0,1,0-.7" style="fill: rgb(146, 227, 169); transform-origin: 325.903643px 256.922035px;" id="elpz2z677zidc" class="animable"></path><path d="M328,252.89c-.31,0-.32,2-2.07,3.47s-3.92,1.21-3.93,1.5c0,.12.48.39,1.4.42a5,5,0,0,0,3.28-1.14,4.4,4.4,0,0,0,1.6-2.9C328.35,253.39,328.12,252.88,328,252.89Z" style="fill: rgb(38, 50, 56); transform-origin: 325.146487px 255.585441px;" id="eljkcwrrlrl9l" class="animable"></path><path d="M328.47,234.37c.18.51,2.06.27,4.26.54s4,.88,4.28.42c.14-.22-.17-.7-.89-1.2a7.53,7.53,0,0,0-6.51-.73C328.8,233.72,328.39,234.13,328.47,234.37Z" style="fill: rgb(38, 50, 56); transform-origin: 332.751481px 234.23481px;" id="el4kj77kvjqwv" class="animable"></path><path d="M311.54,231.83c.33.43,1.63,0,3.18,0s2.88.29,3.18-.15c.14-.22-.07-.65-.65-1.05a4.57,4.57,0,0,0-5.12.15C311.58,231.18,311.4,231.62,311.54,231.83Z" style="fill: rgb(38, 50, 56); transform-origin: 314.718202px 230.969688px;" id="el54u8cgpo5zd" class="animable"></path><path d="M339,216.24a13.23,13.23,0,0,1,10.79-2c3.63,1,6.64,4.32,6.77,8,.08,2.4-1,5,.11,7.13s3.51,2.9,5.29,4.4a8.12,8.12,0,0,1,1.88,9.82c-1.49,2.73-4.61,4.73-4.87,7.81-.25,2.9,2.19,5.35,2.79,8.2.65,3.14-1.09,6.39-3.58,8.48s-5.65,3.24-8.73,4.34c-2.4.87-5,1.75-7.47,1.18a7.65,7.65,0,0,1-5.6-6.38,10.41,10.41,0,0,1,2.83-8.22c1.75-1.93,4.21-3.56,4.63-6.11.65-4-4.07-7.21-3.78-11.21.15-2.06,1.61-3.77,2.82-5.47s2.27-3.83,1.52-5.76c-1-2.52-4.27-3.18-6.27-5a6.11,6.11,0,0,1-1.67-6.19,6.3,6.3,0,0,1,4.94-4.21" style="fill: rgb(38, 50, 56); transform-origin: 350.471321px 243.81403px;" id="elsmt16rcbie" class="animable"></path><path d="M340.47,213.17a9.31,9.31,0,0,1-11,9.2c-2.08-.38-4.36-1.43-6.16-.32s-2,4-3.65,5.47c-2.4,2.09-6.21.13-9.26,1-2.35.7-3.82,2.94-5.39,4.84s-3.9,3.69-6.26,3a27.63,27.63,0,0,1,.94-6.28,9.29,9.29,0,0,1,3.56-5.11,34.34,34.34,0,0,0,3-1.76c2-1.57,2.41-4.32,3.61-6.52a10.22,10.22,0,0,1,7.78-5.16c2.68-.27,5.44.53,8-.13,1.93-.48,3.62-1.73,5.57-2.11,3.81-.72,7.35,2,10.11,4.73" style="fill: rgb(38, 50, 56); transform-origin: 320.034958px 222.841887px;" id="elz4va9eclllp" class="animable"></path><path d="M365.34,245.72a2.86,2.86,0,0,0,.31-1.57A4,4,0,0,0,362.9,241a20.4,20.4,0,0,0-3-.81,8.71,8.71,0,0,1-3.39-1.4,4.74,4.74,0,0,1-1.76-3.64,36.18,36.18,0,0,1,.21-4.28,9.7,9.7,0,0,0-.11-2.1,4.48,4.48,0,0,0-.8-1.79,6.86,6.86,0,0,0-3.28-1.88,14.21,14.21,0,0,1-3.34-1.44,11.14,11.14,0,0,1-2.46-2,11.44,11.44,0,0,1-2.4-3.88,7,7,0,0,1-.35-1.19c-.06-.28-.08-.42-.06-.43s.18.57.59,1.55a12.11,12.11,0,0,0,8.17,6.95,7.21,7.21,0,0,1,3.52,2,5,5,0,0,1,.92,2,10.31,10.31,0,0,1,.12,2.22,39.21,39.21,0,0,0-.22,4.23,4.27,4.27,0,0,0,1.55,3.3,8.43,8.43,0,0,0,3.19,1.35,19.71,19.71,0,0,1,3,.89,4.86,4.86,0,0,1,2.12,1.58,3.69,3.69,0,0,1,.69,1.87,2.45,2.45,0,0,1-.25,1.24C365.47,245.62,365.35,245.73,365.34,245.72Z" style="fill: rgb(69, 90, 100); transform-origin: 353.983617px 230.940254px;" id="eltwjx9jo8z" class="animable"></path><path d="M285.15,254.22l-.23-.11a1.61,1.61,0,0,1-.51-.51,2.75,2.75,0,0,1,.28-2.69,3.53,3.53,0,0,1,1.46-1.4,18.74,18.74,0,0,1,2.19-.92,6.83,6.83,0,0,0,2.29-1.3,5,5,0,0,0,1.31-2.58c.22-1,.29-2.14.48-3.3a7.19,7.19,0,0,1,1.35-3.44c1.58-2.08,4.18-3.19,6.12-5.15a9.56,9.56,0,0,0,2.13-3.61,25.16,25.16,0,0,0,1-4.36c.42-3,.85-6.34,2.86-9.08a6.6,6.6,0,0,1,4.11-2.65,14.44,14.44,0,0,1,4.74.11,16.75,16.75,0,0,0,4.43.26,5.76,5.76,0,0,0,3.62-1.87c1.86-2,2.92-4.7,5.21-6.08a8.7,8.7,0,0,1,6.88-.95,7.64,7.64,0,0,1,4.52,3.52,8.54,8.54,0,0,1,1.18,4.2,7.45,7.45,0,0,1-.43,2.72,4.43,4.43,0,0,1-.41.88s.12-.31.31-.91a8,8,0,0,0,.33-2.68,8.5,8.5,0,0,0-1.22-4.06,7.35,7.35,0,0,0-4.38-3.31,8.32,8.32,0,0,0-6.55,1,9.59,9.59,0,0,0-2.63,2.71,31.26,31.26,0,0,1-2.46,3.33,6.89,6.89,0,0,1-1.74,1.37,6.6,6.6,0,0,1-2.17.67,17.46,17.46,0,0,1-4.56-.25,14,14,0,0,0-4.57-.12,6.15,6.15,0,0,0-3.79,2.46,12.63,12.63,0,0,0-1.95,4.27,42.3,42.3,0,0,0-.83,4.58,25.09,25.09,0,0,1-1,4.44,9.87,9.87,0,0,1-2.26,3.78c-2.05,2-4.62,3.12-6.12,5.09a6.89,6.89,0,0,0-1.3,3.23c-.19,1.14-.27,2.26-.52,3.32a5.17,5.17,0,0,1-1.44,2.74,7,7,0,0,1-2.41,1.33,19,19,0,0,0-2.18.87,3.43,3.43,0,0,0-1.4,1.28,2.71,2.71,0,0,0-.36,2.54A2.35,2.35,0,0,0,285.15,254.22Z" style="fill: rgb(69, 90, 100); transform-origin: 312.377338px 229.24345px;" id="el0rmb5pux4fph" class="animable"></path><path d="M251.74,348l24.15-2.21s14.86-39.15,33.18-48.64l11.87,20.73-25.41,47.73h-49.6Z" style="fill: rgb(146, 227, 169); transform-origin: 283.434998px 331.380035px;" id="elic1tolw15dm" class="animable"></path><g id="eljl5w22d9c8l"><path d="M251.74,348l24.15-2.21s14.86-39.15,33.18-48.64l11.87,20.73-25.41,47.73h-49.6Z" style="opacity: 0.3; transform-origin: 283.434998px 331.380035px;" class="animable"></path></g><path d="M261.28,359a36.15,36.15,0,0,1,4.52-7.56,38.08,38.08,0,0,1-4.52,7.56Z" style="fill: rgb(250, 250, 250); transform-origin: 263.539978px 355.220001px;" id="elp6h6mxvy809" class="animable"></path><path d="M278.39,358.53a37.21,37.21,0,0,1-5.5-6.83,17.39,17.39,0,0,1,2.95,3.25A19,19,0,0,1,278.39,358.53Z" style="fill: rgb(250, 250, 250); transform-origin: 275.64003px 355.115021px;" id="elnm1g35lt4ug" class="animable"></path><path d="M281.36,349.56a19.45,19.45,0,0,1,0-6.34,19.45,19.45,0,0,1,0,6.34Z" style="fill: rgb(250, 250, 250); transform-origin: 281.35997px 346.389984px;" id="elczsltdwbccl" class="animable"></path><path d="M272.86,363.55a6.42,6.42,0,0,1-2.31-1.19c-1.2-.79-2.1-1.52-2-1.64a6.76,6.76,0,0,1,2.31,1.2C272,362.7,272.94,363.43,272.86,363.55Z" style="fill: rgb(250, 250, 250); transform-origin: 270.703562px 362.134979px;" id="elwrqm81wat2" class="animable"></path><path d="M286.73,327.57a21.42,21.42,0,0,1-1.67,4.36,21.11,21.11,0,0,1-2.14,4.15,20.34,20.34,0,0,1,1.66-4.36A21.45,21.45,0,0,1,286.73,327.57Z" style="fill: rgb(250, 250, 250); transform-origin: 284.825012px 331.824997px;" id="elf6q07asvfed" class="animable"></path><path d="M296.52,311.71c.08.11-.78.91-1.93,1.79a6.85,6.85,0,0,1-2.25,1.37c-.08-.12.78-.92,1.93-1.79A6.65,6.65,0,0,1,296.52,311.71Z" style="fill: rgb(250, 250, 250); transform-origin: 294.430008px 313.289993px;" id="el20rtofcqniw" class="animable"></path><path d="M332.64,362.47l12.46-50.31a17.1,17.1,0,0,1,19.64-12.73h0a17.13,17.13,0,0,1,13.88,19.47L371,368.07A24.6,24.6,0,0,1,350.58,388l-9.9,1.54Z" style="fill: rgb(146, 227, 169); transform-origin: 355.731413px 344.347755px;" id="elsd0y54gemjo" class="animable"></path><path d="M371.9,296.18a11.34,11.34,0,0,0-4.45-2.23,11.83,11.83,0,0,0-5.36,0,14.51,14.51,0,0,0-5.83,3c-3.65,3.06-5.63,7-7,9.82-.67,1.41-1.18,2.57-1.54,3.37a7.58,7.58,0,0,1-.61,1.23,7.11,7.11,0,0,1,.42-1.3c.31-.83.76-2,1.39-3.46a39.93,39.93,0,0,1,2.56-4.91,21.91,21.91,0,0,1,4.43-5.15,14.6,14.6,0,0,1,6.05-3.11,11.87,11.87,0,0,1,5.56.07,9.55,9.55,0,0,1,3.38,1.63,6.15,6.15,0,0,1,.75.69C371.83,296.08,371.91,296.17,371.9,296.18Z" style="fill: rgb(38, 50, 56); transform-origin: 359.505422px 302.256976px;" id="elrdokck30sz" class="animable"></path><path d="M301.33,307.5a2.66,2.66,0,0,1-.35.47l-1.06,1.28c-.93,1.11-2.24,2.73-3.74,4.82a51.53,51.53,0,0,0-8.51,18.06c-1.73,7.67-1.82,14.85-2.11,20-.13,2.58-.25,4.67-.36,6.11-.06.68-.11,1.23-.15,1.66a3.93,3.93,0,0,1-.08.58,2,2,0,0,1,0-.58c0-.44,0-1,.05-1.67,0-1.51.11-3.58.19-6.11.2-5.14.22-12.35,2-20.1a49.68,49.68,0,0,1,8.71-18.15c1.55-2.08,2.91-3.68,3.88-4.75.48-.54.88-.94,1.14-1.21A3.15,3.15,0,0,1,301.33,307.5Z" style="fill: rgb(38, 50, 56); transform-origin: 293.139431px 333.98999px;" id="elfyeh71rv89h" class="animable"></path><path d="M381.15,307.39c-1.37-9-6.33-11.15-11.48-13.95-1.68-.92-9.79-3-16.22-4.57-.62-3.89-1.72-10.87-2-12.34-.34-2.07-32.76,3.1-33.17,3.88-.27.51-1,8.59-1.49,14l-7.76,2.71L298.94,310l-5.27,7.48a40.24,40.24,0,0,0-6.53,14.38,78.26,78.26,0,0,0-1.45,17.42l-1.57,33L352,401.46,357.2,368l17.5-23.82C376.19,334.55,382.83,318.45,381.15,307.39Z" style="fill: rgb(146, 227, 169); transform-origin: 332.770157px 338.752216px;" id="elt49nudnl988" class="animable"></path><path d="M323.26,295.42a10.21,10.21,0,0,1-.45-2.29c-.21-1.42-.47-3.39-.72-5.57-.12-1.08-.23-2.11-.34-3.08a25,25,0,0,1-.18-2.54,3,3,0,0,1,.49-1.69c.26-.34.48-.43.5-.41s-.15.18-.33.52a3.27,3.27,0,0,0-.29,1.58c0,.7.18,1.54.29,2.49s.24,2,.38,3.07c.25,2.18.45,4.16.57,5.59A10.16,10.16,0,0,1,323.26,295.42Z" style="fill: rgb(38, 50, 56); transform-origin: 322.431322px 287.628694px;" id="el1kltmv1uph2" class="animable"></path><path d="M331.91,293.38a7.94,7.94,0,0,1-.72-2.1,33.14,33.14,0,0,1-1-10.62,8.16,8.16,0,0,1,.32-2.19c.16,0-.13,3.37.26,7.49S332.07,293.34,331.91,293.38Z" style="fill: rgb(38, 50, 56); transform-origin: 331.021325px 285.925003px;" id="elwivk220i55a" class="animable"></path><path d="M348,291a34.73,34.73,0,0,0-.19-7.46,33.15,33.15,0,0,0-2.34-7.09,6.51,6.51,0,0,1,1.19,1.89,19,19,0,0,1,1.82,10.49A7.2,7.2,0,0,1,348,291Z" style="fill: rgb(38, 50, 56); transform-origin: 347.03474px 283.724991px;" id="eluy68fhmlt9p" class="animable"></path><path d="M302,320.46a31,31,0,0,1,5.95-7.93,101.6,101.6,0,0,1-5.95,7.93Z" style="fill: rgb(250, 250, 250); transform-origin: 304.975006px 316.494995px;" id="el70xjb7z3pgg" class="animable"></path><path d="M317.23,308a32,32,0,0,1-5-6.52,17.14,17.14,0,0,1,2.69,3.1A16.46,16.46,0,0,1,317.23,308Z" style="fill: rgb(250, 250, 250); transform-origin: 314.730011px 304.740005px;" id="ela77zqxbzkz9" class="animable"></path><path d="M333.19,300.22a28.69,28.69,0,0,1-3.19,3.23,30.2,30.2,0,0,1-3.31,3.11,15.37,15.37,0,0,1,2.95-3.48A15,15,0,0,1,333.19,300.22Z" style="fill: rgb(250, 250, 250); transform-origin: 329.940002px 303.389999px;" id="el4ahmmy2s4dz" class="animable"></path><path d="M328.71,290.7a9.34,9.34,0,0,1-2.49-1.9,9.8,9.8,0,0,1-2.15-2.3,9.94,9.94,0,0,1,2.5,1.91A9.64,9.64,0,0,1,328.71,290.7Z" style="fill: rgb(250, 250, 250); transform-origin: 326.389999px 288.600006px;" id="elflkllpf9hi" class="animable"></path><path d="M342.7,283.24a11.82,11.82,0,0,1-3.37,1,12.22,12.22,0,0,1-3.47.48,12.06,12.06,0,0,1,3.36-1A12.27,12.27,0,0,1,342.7,283.24Z" style="fill: rgb(250, 250, 250); transform-origin: 339.280014px 283.979993px;" id="el1ilwpqlzc5g" class="animable"></path><path d="M345.5,305.39a11.75,11.75,0,0,1-.44-3.49,12.14,12.14,0,0,1,.08-3.51,11.75,11.75,0,0,1,.44,3.49A12.14,12.14,0,0,1,345.5,305.39Z" style="fill: rgb(250, 250, 250); transform-origin: 345.320014px 301.890015px;" id="elavi6hr7zo6" class="animable"></path><path d="M340.4,316a18.7,18.7,0,0,1-1.76-4,19.3,19.3,0,0,1-1.26-4.23,38.18,38.18,0,0,1,3,8.27Z" style="fill: rgb(250, 250, 250); transform-origin: 338.889969px 311.904984px;" id="elqkm36ql4fnj" class="animable"></path><path d="M326.54,323.55a20.74,20.74,0,0,1-1.92-4.23,20.32,20.32,0,0,1-1.44-4.43,21.67,21.67,0,0,1,1.92,4.24A21.21,21.21,0,0,1,326.54,323.55Z" style="fill: rgb(250, 250, 250); transform-origin: 324.860016px 319.219986px;" id="ela8ceoprhehr" class="animable"></path><path d="M313.5,332.06a35.51,35.51,0,0,1-1.74-8.48,18.26,18.26,0,0,1,1.12,4.19A18.45,18.45,0,0,1,313.5,332.06Z" style="fill: rgb(250, 250, 250); transform-origin: 312.629974px 327.819992px;" id="elyu6m7yr50r" class="animable"></path><path d="M298,332.4a35.53,35.53,0,0,1-3.72-7.64A35.53,35.53,0,0,1,298,332.4Z" style="fill: rgb(250, 250, 250); transform-origin: 296.139999px 328.579971px;" id="eliebaw7ulw58" class="animable"></path><path d="M297.67,342.34a22.27,22.27,0,0,1-4.06,2.29,20.85,20.85,0,0,1-4.3,1.83,21.2,21.2,0,0,1,4.07-2.3A20.92,20.92,0,0,1,297.67,342.34Z" style="fill: rgb(250, 250, 250); transform-origin: 293.490021px 344.399979px;" id="el8quu6arqztx" class="animable"></path><path d="M297.86,358.06a11.27,11.27,0,0,1-1.41-3.65,11.15,11.15,0,0,1-.59-3.85,20.5,20.5,0,0,1,1.09,3.72A20.81,20.81,0,0,1,297.86,358.06Z" style="fill: rgb(250, 250, 250); transform-origin: 296.858441px 354.310013px;" id="el69toy1gfzdi" class="animable"></path><path d="M294.65,369.1a18.08,18.08,0,0,1-3.26-2.64,16.46,16.46,0,0,1-2.91-3,18.08,18.08,0,0,1,3.26,2.64A16.46,16.46,0,0,1,294.65,369.1Z" style="fill: rgb(250, 250, 250); transform-origin: 291.564987px 366.280014px;" id="elpbr0stx9zf" class="animable"></path><path d="M315.07,361.56c0,.15-2.26.81-4.94,2s-4.72,2.41-4.81,2.28a15.84,15.84,0,0,1,4.6-2.76A15.59,15.59,0,0,1,315.07,361.56Z" style="fill: rgb(250, 250, 250); transform-origin: 310.195007px 363.704772px;" id="el950qremtjku" class="animable"></path><path d="M309.1,356.09a13.71,13.71,0,0,1-1.47-3.43,13.34,13.34,0,0,1-1-3.59,13.52,13.52,0,0,1,1.46,3.42A13.17,13.17,0,0,1,309.1,356.09Z" style="fill: rgb(250, 250, 250); transform-origin: 307.865005px 352.580002px;" id="ely91azwhiy6g" class="animable"></path><path d="M321.21,342.57a29.18,29.18,0,0,1-2.73,4.83A30.1,30.1,0,0,1,315.3,352a60,60,0,0,1,5.91-9.38Z" style="fill: rgb(250, 250, 250); transform-origin: 318.255005px 347.284988px;" id="elnhc097ui4l" class="animable"></path><path d="M334.23,343.86a20.14,20.14,0,0,1-3.33-4.54,20.6,20.6,0,0,1-2.44-5.07c.14-.06,1.3,2.16,2.89,4.81S334.35,343.78,334.23,343.86Z" style="fill: rgb(250, 250, 250); transform-origin: 331.348588px 339.054381px;" id="ello6jiiaphd9" class="animable"></path><path d="M342,331a9.9,9.9,0,0,1-3.81.68,10,10,0,0,1-3.85-.3,25.65,25.65,0,0,1,3.83-.22A26.69,26.69,0,0,1,342,331Z" style="fill: rgb(250, 250, 250); transform-origin: 338.170013px 331.367856px;" id="elvtwy785ttif" class="animable"></path><path d="M360.53,316.39a58.12,58.12,0,0,1-10,4.78,60.15,60.15,0,0,1,10-4.78Z" style="fill: rgb(250, 250, 250); transform-origin: 355.529999px 318.780014px;" id="els3at5q6fd2l" class="animable"></path><path d="M361.76,307.09a38.72,38.72,0,0,1,4-8A19,19,0,0,1,364,303.2,19.74,19.74,0,0,1,361.76,307.09Z" style="fill: rgb(250, 250, 250); transform-origin: 363.759995px 303.089996px;" id="elqvnl6vcnvrp" class="animable"></path><path d="M373.52,314.39a33.37,33.37,0,0,1-1.52-4.55,33.07,33.07,0,0,1-1.34-4.6,26.83,26.83,0,0,1,2.86,9.15Z" style="fill: rgb(250, 250, 250); transform-origin: 372.089996px 309.815033px;" id="elk44t2p8fq0i" class="animable"></path><path d="M375.37,324.07a15.59,15.59,0,0,1-4.39,1.6,15.09,15.09,0,0,1-4.62.71,33.85,33.85,0,0,1,4.49-1.21A34.21,34.21,0,0,1,375.37,324.07Z" style="fill: rgb(250, 250, 250); transform-origin: 370.865005px 325.22504px;" id="elkk583u2uqfb" class="animable"></path><path d="M355.21,335.89c-.15,0,.28-2.46.4-5.49s-.08-5.49.07-5.51a16.46,16.46,0,0,1,.45,5.53A16.23,16.23,0,0,1,355.21,335.89Z" style="fill: rgb(250, 250, 250); transform-origin: 355.686267px 330.390015px;" id="el3gd87xjzc1v" class="animable"></path><path d="M351.19,348.06a24.61,24.61,0,0,1-6.5-7.84c.13-.08,1.45,1.77,3.25,3.93A48,48,0,0,1,351.19,348.06Z" style="fill: rgb(250, 250, 250); transform-origin: 347.940002px 344.138747px;" id="elnuy32x7cem" class="animable"></path><path d="M371.4,345.49a20.26,20.26,0,0,1-4.17,2,21.13,21.13,0,0,1-4.37,1.54,42.06,42.06,0,0,1,8.54-3.57Z" style="fill: rgb(250, 250, 250); transform-origin: 367.129974px 347.244995px;" id="eli58omq22uua" class="animable"></path><path d="M364.16,368.39a59.45,59.45,0,0,1,.11-11,57.22,57.22,0,0,1-.11,11Z" style="fill: rgb(250, 250, 250); transform-origin: 364.219948px 362.889984px;" id="el8yzo5l9l80i" class="animable"></path><path d="M348.65,367.07A32,32,0,0,1,351.42,356c.14.05-.62,2.48-1.38,5.53S348.8,367.1,348.65,367.07Z" style="fill: rgb(250, 250, 250); transform-origin: 350.043397px 361.535136px;" id="elelh5igv2mhp" class="animable"></path><path d="M349.36,373.08c0,.15-2.48.39-5.52.9s-5.48,1.07-5.52.92a20.38,20.38,0,0,1,5.43-1.44A19.91,19.91,0,0,1,349.36,373.08Z" style="fill: rgb(250, 250, 250); transform-origin: 343.839996px 373.975065px;" id="el9cu0j8fuy0u" class="animable"></path><path d="M332.2,369.23a20.66,20.66,0,0,1,3-3.45,19.69,19.69,0,0,1,3.34-3.08,20.66,20.66,0,0,1-3,3.45A20.13,20.13,0,0,1,332.2,369.23Z" style="fill: rgb(250, 250, 250); transform-origin: 335.37001px 365.964996px;" id="elwa6730ntpdr" class="animable"></path><path d="M321.09,380a33.76,33.76,0,0,1-1.35-3.91,35.37,35.37,0,0,1-1.4-3.9,16,16,0,0,1,2.75,7.81Z" style="fill: rgb(250, 250, 250); transform-origin: 319.714996px 376.095016px;" id="elik2x4nqdfth" class="animable"></path><path d="M339,386.22a55.31,55.31,0,0,1-9.83-4.36,28.19,28.19,0,0,1,5,1.94A29.21,29.21,0,0,1,339,386.22Z" style="fill: rgb(250, 250, 250); transform-origin: 334.085007px 384.040009px;" id="ellv7576d6sr8" class="animable"></path><path d="M307.76,384.41a13.5,13.5,0,0,1,.94-3.66,13.92,13.92,0,0,1,1.43-3.49,13.59,13.59,0,0,1-.94,3.66A14.59,14.59,0,0,1,307.76,384.41Z" style="fill: rgb(250, 250, 250); transform-origin: 308.945007px 380.835007px;" id="el7rr9bmfmq37" class="animable"></path><path d="M328.36,387.9c0,.15-2.87-.31-6.41-.49s-6.41,0-6.42-.2a22.77,22.77,0,0,1,6.45-.32A22.49,22.49,0,0,1,328.36,387.9Z" style="fill: rgb(250, 250, 250); transform-origin: 321.944977px 387.360891px;" id="el5di7qpk1bvi" class="animable"></path><path d="M332.64,358.41a1.41,1.41,0,0,1,0-.4,3.69,3.69,0,0,1,.17-1.13,2.48,2.48,0,0,1,1.08-1.49,3.49,3.49,0,0,1,2.44-.4l-.2.12c1.09-3.84,2.84-9.44,4.59-15.72,1.64-5.88,2.75-11.29,3.52-15.22.38-1.89.68-3.46.92-4.65a12.39,12.39,0,0,1,.39-1.69,9.89,9.89,0,0,1-.19,1.73c-.16,1.11-.42,2.71-.76,4.68a153.83,153.83,0,0,1-3.38,15.29c-1.75,6.29-3.56,11.87-4.76,15.68l-.05.15-.15,0a3.21,3.21,0,0,0-2.23.3,2.4,2.4,0,0,0-1.05,1.31C332.65,357.85,332.71,358.42,332.64,358.41Z" style="fill: rgb(38, 50, 56); transform-origin: 339.087875px 338.120075px;" id="eli4lotyhn75j" class="animable"></path><path d="M355.06,372.32c-.08,0-.7-1.32-2-3.34a34.51,34.51,0,0,0-13.6-12.36c-2.13-1.07-3.54-1.56-3.51-1.65a4.88,4.88,0,0,1,1,.27,22.37,22.37,0,0,1,2.65,1.05,31.22,31.22,0,0,1,13.76,12.5,22.61,22.61,0,0,1,1.29,2.54A3.34,3.34,0,0,1,355.06,372.32Z" style="fill: rgb(38, 50, 56); transform-origin: 345.504766px 363.64502px;" id="elswae1k6diuj" class="animable"></path><g id="elsnc8rj4yj7"><g style="opacity: 0.2; transform-origin: 345.936477px 360.472282px;" class="animable"><path d="M336.55,354.24a34.86,34.86,0,0,1,10.54,1.91c3.59,1.34,6.91,3.92,8.23,7.52a2.45,2.45,0,0,1-.19,2.59,1.84,1.84,0,0,1-1.89.31,4.93,4.93,0,0,1-1.66-1.14c-2.2-2-4.49-3.84-6.76-5.8s-5.59-4-8.55-4.47" id="elxhilj20qq9j" style="transform-origin: 345.936477px 360.472282px;" class="animable"></path></g></g><path d="M329.34,347.86a4.55,4.55,0,0,1-1,.6,17.48,17.48,0,0,1-3.07,1.16,20.51,20.51,0,0,1-20.14-5.23,18.31,18.31,0,0,1-2.12-2.51,4.48,4.48,0,0,1-.62-1c.08-.06,1,1.4,3,3.28a21.21,21.21,0,0,0,19.78,5.14C327.78,348.6,329.29,347.76,329.34,347.86Z" style="fill: rgb(38, 50, 56); transform-origin: 315.865005px 345.642909px;" id="el92adaqg3lc" class="animable"></path><g id="el9yqh6ycy1xs"><g style="opacity: 0.2; transform-origin: 313.845001px 347.845581px;" class="animable"><path d="M302.88,341.62c1.69,3.66,3.66,7.35,6.86,9.81a11,11,0,0,0,6.31,2.64c3.34.06,6.21-2.22,8.76-4.38-8.26,1.3-17.56-2.45-21.93-8.07" id="el821ixl2we8v" style="transform-origin: 313.845001px 347.845581px;" class="animable"></path></g></g><path d="M339.86,292.62c-.16,0,0-3.44-.38-7.63s-1.23-7.52-1.08-7.56a8.05,8.05,0,0,1,.69,2.15,36.74,36.74,0,0,1,.9,5.36,37.46,37.46,0,0,1,.14,5.44A8.61,8.61,0,0,1,339.86,292.62Z" style="fill: rgb(38, 50, 56); transform-origin: 339.276883px 285.024994px;" id="el3cl697zyyrw" class="animable"></path><path d="M221.24,426.44s-10.87,2.35-20.57.89c-9.1-1.36-29.47.05-29.46,12,0,13.37,27.17,10.07,37.76,7.95s21.15-4,21.15-4Z" style="fill: rgb(146, 227, 169); transform-origin: 200.665018px 437.846688px;" id="elh10h31f18hd" class="animable"></path><path d="M196.84,443.57a23.14,23.14,0,0,1-1.31-4.65,22.8,22.8,0,0,1-.8-4.77A23.14,23.14,0,0,1,196,438.8,22.8,22.8,0,0,1,196.84,443.57Z" style="fill: rgb(38, 50, 56); transform-origin: 195.784996px 438.860016px;" id="el9j4cc59osx" class="animable"></path><path d="M200.55,443.75a44.94,44.94,0,0,1-1.32-9.62,22.64,22.64,0,0,1,.92,4.77A23.38,23.38,0,0,1,200.55,443.75Z" style="fill: rgb(38, 50, 56); transform-origin: 199.892836px 438.940018px;" id="elenylprntwt6" class="animable"></path><path d="M204.13,442.35a17.72,17.72,0,0,1-.76-4.17,17,17,0,0,1-.25-4.23,35,35,0,0,1,1,8.4Z" style="fill: rgb(38, 50, 56); transform-origin: 203.606541px 438.149994px;" id="el5fcle8x8sd5" class="animable"></path><path d="M209.75,441a9.77,9.77,0,0,1-1.39-3.58,9.61,9.61,0,0,1-.4-3.83,28.43,28.43,0,0,1,.9,3.7A26.89,26.89,0,0,1,209.75,441Z" style="fill: rgb(38, 50, 56); transform-origin: 208.832118px 437.295029px;" id="elanogtfc4s9o" class="animable"></path><path d="M211,436.06a4.56,4.56,0,0,1,1.42-.1,12.2,12.2,0,0,1,3.81.75,4.51,4.51,0,0,1,1.18.63,1.79,1.79,0,0,1,.73,1.33,2,2,0,0,1-2.46,1.79,5.08,5.08,0,0,1-2.83-2,8.85,8.85,0,0,1-.41-10.27,1.44,1.44,0,0,1,.8-.49,1.13,1.13,0,0,1,.91.29,2.44,2.44,0,0,1,.68,1.46,7.29,7.29,0,0,1-.14,2.71,7.46,7.46,0,0,1-1.84,3.43,5.36,5.36,0,0,1-.79.71,1.12,1.12,0,0,1-.32.19s.38-.34,1-1a7.81,7.81,0,0,0,1.63-3.38,7.06,7.06,0,0,0,.07-2.57,2.06,2.06,0,0,0-.55-1.18.7.7,0,0,0-1.05.18,8.47,8.47,0,0,0,.45,9.63,4.61,4.61,0,0,0,2.52,1.86,1.56,1.56,0,0,0,1.94-1.3,1.38,1.38,0,0,0-.56-1,3.91,3.91,0,0,0-1.05-.6,13.25,13.25,0,0,0-3.69-.88C211.46,436.08,211,436.1,211,436.06Z" style="fill: rgb(38, 50, 56); transform-origin: 214.567126px 434.102933px;" id="el2b1m507pv3t" class="animable"></path><path d="M229.05,441.51l-.27.09-.82.2-3.15.72c-2.74.6-6.72,1.45-11.66,2.4s-10.84,2-17.46,2.93a46.84,46.84,0,0,1-10.49.53,23,23,0,0,1-5.49-1.05,15.55,15.55,0,0,1-2.64-1.18,8,8,0,0,1-2.31-1.86l0,0a5.54,5.54,0,0,1-.94-1.13,7,7,0,0,1-.55-5.85,9.36,9.36,0,0,1,3.48-4.56,18,18,0,0,1,4.95-2.45c.87-.25,1.71-.55,2.57-.74s1.71-.4,2.56-.52c6.81-1.07,13-.53,18.16-.53,2.58.05,4.91,0,6.95-.14a48.26,48.26,0,0,0,5.2-.66l1.88-.4,1.35-.38.83-.23a1.09,1.09,0,0,1,.29-.06s-.09.05-.27.11l-.82.28-1.34.43-1.87.45a46.61,46.61,0,0,1-5.23.75c-2.05.15-4.39.25-7,.22-5.16.05-11.35-.46-18.07.63-.84.12-1.67.35-2.52.53s-1.67.49-2.53.73a17.44,17.44,0,0,0-4.81,2.39,8.87,8.87,0,0,0-3.29,4.31,6.53,6.53,0,0,0,.5,5.41,5.07,5.07,0,0,0,.85,1h0l0,0a7.88,7.88,0,0,0,2.15,1.71,14.83,14.83,0,0,0,2.54,1.14,22.35,22.35,0,0,0,5.37,1,47.37,47.37,0,0,0,10.39-.49c6.6-.87,12.51-1.92,17.45-2.82s8.93-1.7,11.69-2.24l3.17-.62.82-.15A.92.92,0,0,1,229.05,441.51Z" style="fill: rgb(38, 50, 56); transform-origin: 200.960367px 437.554821px;" id="eluh6tzo6uqxo" class="animable"></path><path d="M189.31,448a17.61,17.61,0,0,1-.27-2.78c-.12-1.71-.32-4.08-.67-6.67s-.77-4.93-1.11-6.62a16.67,16.67,0,0,1-.47-2.75,13,13,0,0,1,.83,2.67,60.79,60.79,0,0,1,1.27,6.63,62.39,62.39,0,0,1,.52,6.72A13.61,13.61,0,0,1,189.31,448Z" style="fill: rgb(38, 50, 56); transform-origin: 188.115464px 438.590027px;" id="el1mhp0i3mr6x" class="animable"></path><g id="elvxftl10a63"><polygon points="217.89 427.02 224.78 444.27 230.12 443.28 219.89 426.44 217.89 427.02" style="opacity: 0.4; transform-origin: 224.004997px 435.354996px;" class="animable"></polygon></g><path d="M307.65,379.74c-1.11.36-72.28-19.58-101.06-27.67a27.31,27.31,0,0,0-22.26,3.37l-.35.22a27.32,27.32,0,0,0-11.77,29.15h0a27.36,27.36,0,0,0,12.34,17.12c19,11.63,59.15,36.09,60.38,35.61,1.61-.62,51.77-1.92,51.77-1.92l-60.35-43.41,28.71,18.56,42.59-31Z" style="fill: rgb(38, 50, 56); transform-origin: 239.571739px 394.296787px;" id="eljme907bsez" class="animable"></path><path d="M248.23,358.08l15.13-7.83,14.84,9.3,55.54,1.82,8,27-80.4-18.64s-14.63,1.3-15.73-2S248.23,358.08,248.23,358.08Z" style="fill: rgb(255, 190, 157); transform-origin: 293.573296px 369.309998px;" id="elhp1h674z4tq" class="animable"></path><path d="M293.74,401.42,286.26,426l.93,7.49h0a38.43,38.43,0,0,0,50.68,3.41h0a37.65,37.65,0,0,0,14.72-30l-.11-25.66Z" style="fill: rgb(38, 50, 56); transform-origin: 319.425129px 413.044378px;" id="elpq9rfsxn6dj" class="animable"></path><path d="M249.2,401.58c-.08.11-8.76-6.22-19.38-14.14S210.65,373,210.74,372.89s8.76,6.21,19.39,14.13S249.29,401.46,249.2,401.58Z" style="fill: rgb(69, 90, 100); transform-origin: 229.970005px 387.23501px;" id="el6gwc8kq0ldr" class="animable"></path><path d="M262.34,355.15a59.9,59.9,0,0,1-7.4,2.65,62,62,0,0,1-7.56,2.15,59.15,59.15,0,0,1,7.4-2.65A61.41,61.41,0,0,1,262.34,355.15Z" style="fill: rgb(235, 153, 110); transform-origin: 254.860001px 357.549973px;" id="elwuml3esx8t" class="animable"></path><path d="M263.47,359.76a14.68,14.68,0,0,1-2.58.49c-1.59.26-3.78.65-6.18,1.2s-4.54,1.16-6.09,1.62a16.27,16.27,0,0,1-2.53.69,11.35,11.35,0,0,1,2.41-1,56,56,0,0,1,6.09-1.78,55.46,55.46,0,0,1,6.25-1.06A12.47,12.47,0,0,1,263.47,359.76Z" style="fill: rgb(235, 153, 110); transform-origin: 254.780014px 361.753712px;" id="eliz62d9zf64" class="animable"></path><path d="M262.2,364a68.22,68.22,0,0,1-8.33,1.92,70.48,70.48,0,0,1-8.44,1.41,70.41,70.41,0,0,1,8.34-1.92A70.86,70.86,0,0,1,262.2,364Z" style="fill: rgb(235, 153, 110); transform-origin: 253.81501px 365.665024px;" id="elki24scrigki" class="animable"></path><path d="M242.58,321.8l13.95,45.92a1.34,1.34,0,0,0,1.17.94l38,2.85a1.33,1.33,0,0,1,1.24,1.33v2.37a1.33,1.33,0,0,1-1.36,1.33l-104-2a1.33,1.33,0,0,1-1.22-.86l-18.28-47.89a1.33,1.33,0,0,1,1.18-1.81l67.91-3.17A1.34,1.34,0,0,1,242.58,321.8Z" style="fill: rgb(69, 90, 100); transform-origin: 234.464931px 348.672626px;" id="eln5g40qr7749" class="animable"></path><path d="M213.28,341.58a3.3,3.3,0,0,0-2.06,2.34,3.16,3.16,0,0,0,1.35,2.86,3.42,3.42,0,0,0,3.8.14,3.16,3.16,0,0,0,1-3.83c-.46-1.27-2.78-2.16-4.12-1.51" style="fill: rgb(224, 224, 224); transform-origin: 214.427923px 344.395445px;" id="elbcgdu3zu5vr" class="animable"></path><path d="M230.12,443.28l-11-18.08,80.8-63.33a32.46,32.46,0,0,1,17.65-7.23h0a32.47,32.47,0,0,1,35.3,35l-1.29,15.45L298,422.36Z" style="fill: rgb(38, 50, 56); transform-origin: 286.049751px 398.893242px;" id="el9wijufhuqwf" class="animable"></path><path d="M333.74,400.36s-.06.07-.21.2l-.66.54-2.57,2.06-1.87,1.47c-.68.54-1.49,1-2.32,1.63l-2.68,1.84c-.48.32-1,.67-1.47,1l-1.61,1c-2.19,1.31-4.56,2.81-7.25,4.17-1.33.7-2.69,1.46-4.12,2.17l-4.47,2.11a218.41,218.41,0,0,1-20.43,8.14c-14.76,5.09-28.4,8.75-38.17,11.71-2.45.72-4.66,1.4-6.6,2s-3.6,1.11-5,1.57l-3.12,1-.82.25a1.43,1.43,0,0,1-.29.07l.27-.12.8-.3,3.1-1.11c1.34-.49,3-1,4.94-1.66s4.13-1.34,6.57-2.08c9.75-3.06,23.38-6.77,38.11-11.85,7.38-2.51,14.25-5.31,20.4-8.08l4.46-2.09c1.44-.7,2.8-1.45,4.13-2.14,2.69-1.34,5.06-2.82,7.26-4.1l1.61-.95c.51-.32,1-.66,1.48-1L326,406c.83-.57,1.64-1.06,2.33-1.59l1.89-1.44,2.63-2,.7-.5Z" style="fill: rgb(69, 90, 100); transform-origin: 281.910004px 421.825012px;" id="elfjq2mwf1yzl" class="animable"></path><path d="M335.7,408.81a3.15,3.15,0,0,1-.81.43c-.54.24-1.33.57-2.32.93a58.53,58.53,0,0,1-7.92,2.3,59.64,59.64,0,0,1-8.17,1.16c-1.05.07-1.91.1-2.5.1a3.61,3.61,0,0,1-.92-.05,31.27,31.27,0,0,1,3.39-.42c2.08-.23,5-.63,8.09-1.3s5.91-1.49,7.91-2.13A31.4,31.4,0,0,1,335.7,408.81Z" style="fill: rgb(69, 90, 100); transform-origin: 324.37999px 411.274886px;" id="elh96dclbb62" class="animable"></path><path d="M296.7,364.91c.09.12-17.2,13.71-38.62,30.35s-38.86,30.06-38.94,29.94,17.2-13.7,38.62-30.35S296.62,364.8,296.7,364.91Z" style="fill: rgb(69, 90, 100); transform-origin: 257.920052px 395.055073px;" id="elii32fpugjg" class="animable"></path><path d="M292,432.11c-3.87-2.06-8.22-.84-11.93.41-2.47.83-5,2.15-7.54,1.44-1.81-.51-3.16-2-4.55-3.25a28.54,28.54,0,0,0-20.88-7.49,8.58,8.58,0,0,0-5.74,2.59c-3.81,4.13-.94,9.49,2.47,13a37.57,37.57,0,0,0,22.71,11c7.09.74,16.84-.24,24-3.32,4.43-1.9,6.7-7.13,4.38-11.35A7.29,7.29,0,0,0,292,432.11Z" style="fill: rgb(146, 227, 169); transform-origin: 267.696142px 436.611186px;" id="elvutmf6tu32o" class="animable"></path><g id="el8rp8vtuuhg"><g style="opacity: 0.4; transform-origin: 267.694969px 438.241217px;" class="animable"><path d="M292,435.41c-3.88-2.06-8.23-.84-11.94.41-2.47.83-5,2.15-7.54,1.44-1.81-.51-3.16-2-4.55-3.25a28.54,28.54,0,0,0-20.88-7.49,8.58,8.58,0,0,0-5.74,2.59,6.72,6.72,0,0,0-1.6,2.9,15.11,15.11,0,0,0,4.07,6.76,37.57,37.57,0,0,0,22.71,11c7.09.74,16.84-.24,24-3.32a8.77,8.77,0,0,0,5.11-6.09,7.4,7.4,0,0,0-3.67-4.91Z" id="elgrdi7902qdc" style="transform-origin: 267.694969px 438.241217px;" class="animable"></path></g></g><path d="M295.7,440.32a6.6,6.6,0,0,0-.95-2.3,7.56,7.56,0,0,0-2.07-2,8.36,8.36,0,0,0-3.57-1.36c-2.87-.34-6.21.87-9.91,1.87-1.83.49-3.83,1.23-6,1a8,8,0,0,1-3.1-1.08,19.07,19.07,0,0,1-2.66-2,27.79,27.79,0,0,0-10.6-6.3,27.11,27.11,0,0,0-5.27-1.22,16.48,16.48,0,0,0-4.7,0,10.43,10.43,0,0,0-3.62,1.26A9.53,9.53,0,0,0,241,430c-1,1.25-1.37,2.1-1.43,2.06a8.18,8.18,0,0,1,1.28-2.19,9,9,0,0,1,2.22-2,10.28,10.28,0,0,1,3.73-1.38,16.33,16.33,0,0,1,4.8,0,27.87,27.87,0,0,1,5.37,1.19,31.81,31.81,0,0,1,5.56,2.46,22.77,22.77,0,0,1,2.71,1.76c.87.68,1.68,1.42,2.52,2.14a19,19,0,0,0,2.59,2,7.57,7.57,0,0,0,2.89,1c2,.27,4-.43,5.83-.91,3.69-1,7.08-2.17,10.09-1.78a8.33,8.33,0,0,1,5.76,3.65,5.41,5.41,0,0,1,.72,1.75A2.73,2.73,0,0,1,295.7,440.32Z" style="fill: rgb(38, 50, 56); transform-origin: 267.63501px 433.316349px;" id="eltxdpi43getd" class="animable"></path><path d="M295.7,440.32a6.6,6.6,0,0,0-.95-2.3,7.56,7.56,0,0,0-2.07-2,8.36,8.36,0,0,0-3.57-1.36c-2.87-.34-6.21.87-9.91,1.87-1.83.49-3.83,1.23-6,1a8,8,0,0,1-3.1-1.08,19.07,19.07,0,0,1-2.66-2,27.79,27.79,0,0,0-10.6-6.3,27.11,27.11,0,0,0-5.27-1.22,16.48,16.48,0,0,0-4.7,0,10.43,10.43,0,0,0-3.62,1.26A9.53,9.53,0,0,0,241,430c-1,1.25-1.37,2.1-1.43,2.06a8.18,8.18,0,0,1,1.28-2.19,9,9,0,0,1,2.22-2,10.28,10.28,0,0,1,3.73-1.38,16.33,16.33,0,0,1,4.8,0,27.87,27.87,0,0,1,5.37,1.19,31.81,31.81,0,0,1,5.56,2.46,22.77,22.77,0,0,1,2.71,1.76c.87.68,1.68,1.42,2.52,2.14a19,19,0,0,0,2.59,2,7.57,7.57,0,0,0,2.89,1c2,.27,4-.43,5.83-.91,3.69-1,7.08-2.17,10.09-1.78a8.33,8.33,0,0,1,5.76,3.65,5.41,5.41,0,0,1,.72,1.75A2.73,2.73,0,0,1,295.7,440.32Z" style="fill: rgb(38, 50, 56); transform-origin: 267.63501px 433.316349px;" id="elrv35rmo72k" class="animable"></path><path d="M247.63,439.38a10.26,10.26,0,0,1,2-1.37,54.58,54.58,0,0,1,5.13-2.74,56.72,56.72,0,0,1,5.39-2.21,10.54,10.54,0,0,1,2.32-.65,13,13,0,0,1-2.19,1c-1.37.57-3.25,1.37-5.3,2.33s-3.86,1.9-5.17,2.59A12.08,12.08,0,0,1,247.63,439.38Z" style="fill: rgb(38, 50, 56); transform-origin: 255.050018px 435.89502px;" id="elp7258tbnjqq" class="animable"></path><path d="M249,443.26a70.32,70.32,0,0,1,7.57-3.95,71.11,71.11,0,0,1,7.8-3.48,70.32,70.32,0,0,1-7.57,3.95A69.24,69.24,0,0,1,249,443.26Z" style="fill: rgb(38, 50, 56); transform-origin: 256.684998px 439.545013px;" id="el1qcn92cz3qs" class="animable"></path><path d="M265,444.94c-.08.12-4.21-2.34-9.22-5.5s-9-5.83-9-5.95,4.2,2.34,9.22,5.51S265.1,444.82,265,444.94Z" style="fill: rgb(38, 50, 56); transform-origin: 255.8909px 439.214995px;" id="eliazjt2nv2t" class="animable"></path><path d="M267.34,440.92a13.19,13.19,0,0,1-2-1.35c-1.21-.88-2.89-2.09-4.77-3.39s-3.59-2.45-4.84-3.28a12.24,12.24,0,0,1-2-1.42,11.35,11.35,0,0,1,2.17,1.11c1.3.75,3.07,1.86,5,3.16s3.54,2.57,4.7,3.53A9.64,9.64,0,0,1,267.34,440.92Z" style="fill: rgb(38, 50, 56); transform-origin: 260.535004px 436.199997px;" id="elfi94ev3p5dg" class="animable"></path></g><defs>     <filter id="active" height="200%">         <feMorphology in="SourceAlpha" result="DILATED" operator="dilate" radius="2"></feMorphology>                <feFlood flood-color="#32DFEC" flood-opacity="1" result="PINK"></feFlood>        <feComposite in="PINK" in2="DILATED" operator="in" result="OUTLINE"></feComposite>        <feMerge>            <feMergeNode in="OUTLINE"></feMergeNode>            <feMergeNode in="SourceGraphic"></feMergeNode>        </feMerge>    </filter>    <filter id="hover" height="200%">        <feMorphology in="SourceAlpha" result="DILATED" operator="dilate" radius="2"></feMorphology>                <feFlood flood-color="#ff0000" flood-opacity="0.5" result="PINK"></feFlood>        <feComposite in="PINK" in2="DILATED" operator="in" result="OUTLINE"></feComposite>        <feMerge>            <feMergeNode in="OUTLINE"></feMergeNode>            <feMergeNode in="SourceGraphic"></feMergeNode>        </feMerge>            <feColorMatrix type="matrix" values="0   0   0   0   0                0   1   0   0   0                0   0   0   0   0                0   0   0   1   0 "></feColorMatrix>    </filter></defs></svg>