<svg class="animated" id="freepik_stories-autumn" xmlns="http://www.w3.org/2000/svg" viewBox="0 0 500 500" version="1.1" xmlns:xlink="http://www.w3.org/1999/xlink" xmlns:svgjs="http://svgjs.com/svgjs"><style>svg#freepik_stories-autumn:not(.animated) .animable {opacity: 0;}svg#freepik_stories-autumn.animated #freepik--Leaves--inject-5 {animation: 1s 1 forwards cubic-bezier(.36,-0.01,.5,1.38) fadeIn;animation-delay: 0s;}            @keyframes fadeIn {                0% {                    opacity: 0;                }                100% {                    opacity: 1;                }            }        .animator-hidden { display: none; }</style><g id="freepik--background-complete--inject-5" class="animable animator-hidden" style="transform-origin: 261.882px 241.695px;"><path d="M430.93,302.62c-15.94,2-33.57-6.88-44.5-18.66s-14.9-30-8.57-44.77c4.8-11.18,14.85-20,17.14-32,1.56-8.16-.78-16.55-.41-24.84.75-17.13,14.91-33,32-34.7s34.5,11.93,36,29c1.12,12.44-5.24,25.31-1.29,37.16,2.71,8.14,9.74,14,14.33,21.23,9.93,15.72,6.74,37.89-5.88,51.54s-33.08,18.75-51.21,14.61" style="fill: rgb(245, 245, 245); transform-origin: 428.161px 225.204px;" id="elbduhilbdeod" class="animable"></path><path d="M429.66,411.29c-.14,0-.26-50.1-.26-111.89s.12-111.91.26-111.91.26,50.1.26,111.91S429.81,411.29,429.66,411.29Z" style="fill: rgb(224, 224, 224); transform-origin: 429.66px 299.39px;" id="elnu40xxrxb4h" class="animable"></path><path d="M455.29,239.65c.09.12-4.37,6.42-11.81,12.23a61.33,61.33,0,0,1-15.14,8.82c-.09-.11,5.87-4.92,13.32-10.73S455.21,239.54,455.29,239.65Z" style="fill: rgb(224, 224, 224); transform-origin: 441.815px 250.174px;" id="elrkfrq0wr5m" class="animable"></path><path d="M428.19,225.52c-.66.95.8.87-8.26-5.39a94.06,94.06,0,0,1-8-5.82,93.75,93.75,0,0,1,8.26,5.39A93.45,93.45,0,0,1,428.19,225.52Z" style="fill: rgb(224, 224, 224); transform-origin: 420.06px 220.136px;" id="el6t62fydezd7" class="animable"></path><path d="M79.62,409.47c-.15,0-.26-34-.26-76s.11-76,.26-76,.26,34,.26,76S79.76,409.47,79.62,409.47Z" style="fill: rgb(224, 224, 224); transform-origin: 79.62px 333.47px;" id="elnm4x4twl1o8" class="animable"></path><polygon points="42.28 298.17 119.03 298.17 80.65 179.11 42.28 298.17" style="fill: rgb(230, 230, 230); transform-origin: 80.655px 238.64px;" id="elwcbeejtisdi" class="animable"></polygon><path d="M90.57,298.07a13.23,13.23,0,0,1-1.6,1.84c-1,1.11-2.39,2.65-3.84,4.42s-2.68,3.43-3.56,4.64a13.4,13.4,0,0,1-1.48,1.93,9.73,9.73,0,0,1,1.18-2.13A49.31,49.31,0,0,1,84.73,304a50.67,50.67,0,0,1,4-4.35A10,10,0,0,1,90.57,298.07Z" style="fill: rgb(224, 224, 224); transform-origin: 85.33px 304.485px;" id="elsnugziz9m4" class="animable"></path><path d="M80.24,323.52a12,12,0,0,1-2-1.17c-1.23-.76-2.93-1.81-4.82-2.92s-3.64-2.09-4.9-2.79a12.41,12.41,0,0,1-2-1.21,9.07,9.07,0,0,1,2.18.88c1.31.63,3.09,1.55,5,2.67s3.58,2.23,4.76,3.07A9.33,9.33,0,0,1,80.24,323.52Z" style="fill: rgb(224, 224, 224); transform-origin: 73.38px 319.475px;" id="elagro0f0ic4q" class="animable"></path><path d="M375.78,100.88c15.46,23.74,17.19,44.79,6.46,71C374,192,358,210.2,336.85,215.17c-15,3.53-31.14,0-44.67-7.45C265.42,193,248,161.36,253,131.23S277.77,75,318.23,72.14C318.23,72.14,355.52,69.79,375.78,100.88Z" style="fill: rgb(224, 224, 224); transform-origin: 320.608px 144.323px;" id="elohyp88kbli" class="animable"></path><path d="M327.23,409.47c-.14,0-.26-55.84-.26-124.7s.12-124.72.26-124.72.26,55.83.26,124.72S327.38,409.47,327.23,409.47Z" style="fill: rgb(38, 50, 56); transform-origin: 327.23px 284.76px;" id="el79ik8emiv8a" class="animable"></path><path d="M346.28,180.12c.1.11-4.09,4-9.35,8.81s-9.6,8.53-9.7,8.42,4.09-4,9.35-8.81S346.18,180,346.28,180.12Z" style="fill: rgb(38, 50, 56); transform-origin: 336.755px 188.735px;" id="elyuodvp8l2zr" class="animable"></path><path d="M327.49,178.52a22.17,22.17,0,0,1-2.57-2l-6-4.93-6-4.92a20.12,20.12,0,0,1-2.44-2.12,18.78,18.78,0,0,1,2.66,1.83c1.61,1.19,3.79,2.88,6.15,4.81s4.45,3.72,5.94,5.05A17.88,17.88,0,0,1,327.49,178.52Z" style="fill: rgb(38, 50, 56); transform-origin: 318.985px 171.535px;" id="elawpabyb08tj" class="animable"></path><path d="M107,376.81a7.63,7.63,0,0,0-.37,1.57,7.71,7.71,0,0,0-1.47-2.5,16.67,16.67,0,0,0-3.73-2.87l-.13-.08a10.66,10.66,0,0,0,.63,5.46,8,8,0,0,0,.52,1l-1-.15a36.32,36.32,0,0,0-7.7.58,19.62,19.62,0,0,0,7.22,4.4l.49.16a7.3,7.3,0,0,0-1.12.82,16.42,16.42,0,0,0-2.88,3.73s0,.08-.07.13a10.68,10.68,0,0,0,5.46-.63,7.53,7.53,0,0,0,2-1.33,8,8,0,0,0-.18,1.19,9.75,9.75,0,0,0,1,4.56l.07-.11a16.06,16.06,0,0,0,1.91-3.55,8.26,8.26,0,0,0,.32-3.83,22.15,22.15,0,0,0-.57-2.47h0c.81-1.1,1.08-1.33,1.51-2.05a8.46,8.46,0,0,0,1.22-3.64,16.21,16.21,0,0,0-.35-4l0-.12A9.87,9.87,0,0,0,107,376.81Z" style="fill: rgb(245, 245, 245); transform-origin: 101.946px 382.89px;" id="ely3x1xtv41ch" class="animable"></path><path d="M112.58,383.46a41.14,41.14,0,0,1-6.49-.68,41.31,41.31,0,0,1-6.41-1.2,41.14,41.14,0,0,1,6.49.68A41.31,41.31,0,0,1,112.58,383.46Z" style="fill: rgb(224, 224, 224); transform-origin: 106.13px 382.52px;" id="eldowqh18ski" class="animable"></path><path d="M105.75,382.48c.09.11-.28.61-.84,1.11s-1.1.83-1.2.73.29-.61.85-1.11S105.65,382.38,105.75,382.48Z" style="fill: rgb(224, 224, 224); transform-origin: 104.729px 383.4px;" id="ells5df4ul6lp" class="animable"></path><path d="M104.36,382.4c-.14,0-.39-.33-.64-.8s-.43-.89-.32-1,.5.21.78.73S104.49,382.36,104.36,382.4Z" style="fill: rgb(224, 224, 224); transform-origin: 103.901px 381.489px;" id="eledvjbfg291" class="animable"></path><path d="M225.65,158.12a13.29,13.29,0,0,0-1.89,2.14,13.75,13.75,0,0,0-.2-5.15,29.28,29.28,0,0,0-3.4-7.64l-.12-.22a18.82,18.82,0,0,0-3.64,9.06,12.43,12.43,0,0,0,0,1.93c-.48-.37-1-.74-1.47-1.08-3.37-2.34-9.54-4.52-12.52-5.61a34.75,34.75,0,0,0,7.56,13l.65.66a13.86,13.86,0,0,0-2.46.34,29.13,29.13,0,0,0-7.64,3.4l-.22.12a18.77,18.77,0,0,0,9.06,3.63,12.91,12.91,0,0,0,4.23-.39,13.21,13.21,0,0,0-1.29,1.71,17.37,17.37,0,0,0-2.33,7.93l.19-.1a27.84,27.84,0,0,0,6-3.94,14.75,14.75,0,0,0,3.74-5.7,43.68,43.68,0,0,0,1.19-4.35h0a42.28,42.28,0,0,0,4.08-1.92,14.84,14.84,0,0,0,5-4.66,28.23,28.23,0,0,0,2.85-6.58l.07-.21A17.49,17.49,0,0,0,225.65,158.12Z" style="fill: rgb(230, 230, 230); transform-origin: 216.695px 164.6px;" id="el3npli7qqssq" class="animable"></path><path d="M228.73,173.2c-.09.11-4.32-2.89-9.44-6.71s-9.22-7-9.13-7.12,4.31,2.88,9.44,6.7S228.81,173.08,228.73,173.2Z" style="fill: rgb(224, 224, 224); transform-origin: 219.445px 166.285px;" id="ellcuvufq1aw" class="animable"></path><path d="M218.88,165.9a6,6,0,0,1-2.3.83,5.85,5.85,0,0,1-2.43.32,11.49,11.49,0,0,1,4.73-1.15Z" style="fill: rgb(224, 224, 224); transform-origin: 216.515px 166.484px;" id="el0q1grrui3gk9" class="animable"></path><path d="M216.78,164.6c-.15,0-.12-.83-.12-1.8s0-1.76.13-1.79.4.77.4,1.8S216.92,164.63,216.78,164.6Z" style="fill: rgb(224, 224, 224); transform-origin: 216.924px 162.805px;" id="eld03adtdnrv6" class="animable"></path><path d="M116.14,128.14l47.17.34s.08-10.79-5.49-10.83a8.57,8.57,0,0,0-8.7,6.63s.15-20.16-10-17.27c-9.61,2.72-10.79,15.62-10.79,15.62s-1.68-6.5-6.91-2.88S116.14,128.14,116.14,128.14Z" style="fill: rgb(240, 240, 240); transform-origin: 139.725px 117.603px;" id="elqlejn5dz1ni" class="animable"></path></g><g id="freepik--Shadow--inject-5" class="animable animator-hidden" style="transform-origin: 251.46px 438.27px;"><ellipse cx="251.46" cy="438.27" rx="159.39" ry="5.61" style="fill: rgb(240, 240, 240); transform-origin: 251.46px 438.27px;" id="el2pmvpesolwo" class="animable"></ellipse></g><g id="freepik--Floor--inject-5" class="animable animator-hidden" style="transform-origin: 257.34px 409.47px;"><path d="M462.23,409.47c0,.14-91.74.26-204.88.26s-204.9-.12-204.9-.26,91.72-.26,204.9-.26S462.23,409.33,462.23,409.47Z" style="fill: rgb(38, 50, 56); transform-origin: 257.34px 409.47px;" id="elkcysuhwx83" class="animable"></path></g><g id="freepik--Leaves--inject-5" class="animable animator-active" style="transform-origin: 236.88px 298.165px;"><path d="M151.45,199.36a8.83,8.83,0,0,0-.85,1.91,9.91,9.91,0,0,0-1.28-3.55,21.81,21.81,0,0,0-4.06-4.57l-.14-.12a13.63,13.63,0,0,0-.52,7.12,10.45,10.45,0,0,0,.43,1.34c-.41-.15-.84-.3-1.26-.43-2.87-.88-7.65-1-10-1.13a25.18,25.18,0,0,0,8.15,7.36l.59.32a10.67,10.67,0,0,0-1.64.78,21.29,21.29,0,0,0-4.56,4.07,1.59,1.59,0,0,0-.13.13,13.73,13.73,0,0,0,7.12.52,9.48,9.48,0,0,0,2.86-1.21,8.83,8.83,0,0,0-.51,1.47,12.68,12.68,0,0,0,.13,6l.11-.11a20.58,20.58,0,0,0,3.3-4.08,10.8,10.8,0,0,0,1.34-4.8c.06-1.08-.06-1.54-.13-3.3h0a32.25,32.25,0,0,0,2.41-2.24,11,11,0,0,0,2.44-4.36,21,21,0,0,0,.52-5.21v-.16A12.62,12.62,0,0,0,151.45,199.36Z" style="fill: rgb(146, 227, 169); transform-origin: 144.773px 206.2px;" id="ela2jupdo1c67" class="animable"></path><path d="M156.94,209.18a70.69,70.69,0,0,1-8.09-2.51,68.79,68.79,0,0,1-7.92-3,71.38,71.38,0,0,1,8.09,2.51A69.7,69.7,0,0,1,156.94,209.18Z" style="fill: rgb(38, 50, 56); transform-origin: 148.935px 206.425px;" id="el1dqthjsevsr" class="animable"></path><path d="M148.45,206.28c.08.12-.54.64-1.38,1.15s-1.58.82-1.65.7.54-.64,1.38-1.15S148.38,206.16,148.45,206.28Z" style="fill: rgb(38, 50, 56); transform-origin: 146.936px 207.205px;" id="el7bmtgfu98vv" class="animable"></path><path d="M146.7,205.84c-.14,0-.33-.54-.54-1.2s-.38-1.24-.25-1.3.52.42.74,1.14S146.84,205.82,146.7,205.84Z" style="fill: rgb(38, 50, 56); transform-origin: 146.337px 204.587px;" id="elzp684giqxa7" class="animable"></path><path d="M397.42,375.94a13.28,13.28,0,0,0,.88,2.72,13.65,13.65,0,0,0-4.53-2.45,29.54,29.54,0,0,0-8.31-1h-.25a18.77,18.77,0,0,0,6,7.73,13.27,13.27,0,0,0,1.67,1c-.57.22-1.13.46-1.68.71-3.73,1.72-8.73,5.93-11.2,7.94a34.61,34.61,0,0,0,15,.07l.9-.21a12.57,12.57,0,0,0-1,2.29,29.46,29.46,0,0,0-1,8.3v.26a18.94,18.94,0,0,0,7.73-6,13.13,13.13,0,0,0,1.81-3.84,12.59,12.59,0,0,0,.82,2,17.44,17.44,0,0,0,5.65,6,1.7,1.7,0,0,1,0-.22,28.44,28.44,0,0,0-.35-7.16,14.78,14.78,0,0,0-3-6.12,40.33,40.33,0,0,0-3.13-3.23h0a42.82,42.82,0,0,0,.41-4.49,14.72,14.72,0,0,0-1.48-6.66,28.25,28.25,0,0,0-4.22-5.8l-.15-.16A17.46,17.46,0,0,0,397.42,375.94Z" style="fill: rgb(146, 227, 169); transform-origin: 394.998px 385.46px;" id="elk0fhq98zsi" class="animable"></path><path d="M412,381c0,.13-4.68,2.25-10.57,4.72s-10.72,4.38-10.78,4.24,4.68-2.24,10.57-4.72S411.91,380.82,412,381Z" style="fill: rgb(38, 50, 56); transform-origin: 401.325px 385.478px;" id="elbgjjnibles" class="animable"></path><path d="M400.68,385.72a5.8,5.8,0,0,1-.45,2.41,5.88,5.88,0,0,1-1,2.25,5.87,5.87,0,0,1,.46-2.4A6,6,0,0,1,400.68,385.72Z" style="fill: rgb(38, 50, 56); transform-origin: 399.956px 388.05px;" id="elp8bglkt30wn" class="animable"></path><path d="M398.49,386.87c-.09.11-.77-.32-1.6-.81s-1.54-.88-1.48-1,.86,0,1.74.57S398.59,386.77,398.49,386.87Z" style="fill: rgb(38, 50, 56); transform-origin: 396.954px 385.953px;" id="elyn7mathvio" class="animable"></path><path d="M81.72,367.89a9.54,9.54,0,0,0-2,.59,10,10,0,0,0,1.88-3.27,21.84,21.84,0,0,0,.85-6c0-.06,0-.13,0-.19a13.78,13.78,0,0,0-5.77,4.21,9.21,9.21,0,0,0-.74,1.2c-.15-.42-.32-.83-.49-1.24-1.19-2.76-4.17-6.5-5.59-8.34a25.19,25.19,0,0,0-.34,11c0,.22.09.44.14.66A8.56,8.56,0,0,0,68,365.7a21.47,21.47,0,0,0-6.05-.86h-.19A13.87,13.87,0,0,0,66,370.6a9.69,9.69,0,0,0,2.78,1.4,8.62,8.62,0,0,0-1.46.56,12.77,12.77,0,0,0-4.53,4h.16a21.38,21.38,0,0,0,5.25-.11,10.92,10.92,0,0,0,4.53-2.1,29.24,29.24,0,0,0,2.42-2.23h0a32.41,32.41,0,0,0,3.28.39,10.73,10.73,0,0,0,4.89-1,20.76,20.76,0,0,0,4.32-3l.12-.1A12.82,12.82,0,0,0,81.72,367.89Z" style="fill: rgb(146, 227, 169); transform-origin: 74.76px 365.761px;" id="elo7gv15pds7" class="animable"></path><path d="M77.78,378.43a69.6,69.6,0,0,1-3.31-7.79,66.56,66.56,0,0,1-2.83-8,71.57,71.57,0,0,1,3.31,7.8A66.8,66.8,0,0,1,77.78,378.43Z" style="fill: rgb(38, 50, 56); transform-origin: 74.71px 370.535px;" id="eln2rijthb85l" class="animable"></path><path d="M74.51,370.09c-.05.14-.84,0-1.77-.31s-1.65-.68-1.61-.81.84,0,1.77.31S74.55,370,74.51,370.09Z" style="fill: rgb(38, 50, 56); transform-origin: 72.82px 369.532px;" id="ela8ev64v9r7w" class="animable"></path><path d="M73.71,368.47c-.11-.1.19-.6.57-1.2s.69-1.08.83-1,0,.67-.39,1.31S73.81,368.56,73.71,368.47Z" style="fill: rgb(38, 50, 56); transform-origin: 74.425px 367.373px;" id="elcpahs11dcu6" class="animable"></path><path d="M83.71,286.45a7,7,0,0,0,.18,1.58,7.63,7.63,0,0,0-2.2-1.83,16.4,16.4,0,0,0-4.41-1.43l-.14,0a10.51,10.51,0,0,0,2.4,4.86,6.67,6.67,0,0,0,.79.71l-1,.2a36.57,36.57,0,0,0-7,3.09,19.21,19.21,0,0,0,8.16,1.69l.51,0a6.9,6.9,0,0,0-.77,1.14,16.4,16.4,0,0,0-1.43,4.41l0,.14a10.59,10.59,0,0,0,4.86-2.39,7.67,7.67,0,0,0,1.4-1.89,7.68,7.68,0,0,0,.23,1.16,9.59,9.59,0,0,0,2.41,3.9l0-.11a16.22,16.22,0,0,0,.6-3.94,8.28,8.28,0,0,0-1-3.65c-.37-.73-.63-1-1.35-2.11h0a24.13,24.13,0,0,0,.71-2.39,8.22,8.22,0,0,0-.07-3.79A15.66,15.66,0,0,0,85,282.14L85,282A9.64,9.64,0,0,0,83.71,286.45Z" style="fill: rgb(146, 227, 169); transform-origin: 80.315px 291.895px;" id="el6vsc0vf0cuq" class="animable"></path><g id="elw21klszir0l"><path d="M83.71,286.45a7,7,0,0,0,.18,1.58,7.63,7.63,0,0,0-2.2-1.83,16.4,16.4,0,0,0-4.41-1.43l-.14,0a10.51,10.51,0,0,0,2.4,4.86,6.67,6.67,0,0,0,.79.71l-1,.2a36.57,36.57,0,0,0-7,3.09,19.21,19.21,0,0,0,8.16,1.69l.51,0a6.9,6.9,0,0,0-.77,1.14,16.4,16.4,0,0,0-1.43,4.41l0,.14a10.59,10.59,0,0,0,4.86-2.39,7.67,7.67,0,0,0,1.4-1.89,7.68,7.68,0,0,0,.23,1.16,9.59,9.59,0,0,0,2.41,3.9l0-.11a16.22,16.22,0,0,0,.6-3.94,8.28,8.28,0,0,0-1-3.65c-.37-.73-.63-1-1.35-2.11h0a24.13,24.13,0,0,0,.71-2.39,8.22,8.22,0,0,0-.07-3.79A15.66,15.66,0,0,0,85,282.14L85,282A9.64,9.64,0,0,0,83.71,286.45Z" style="fill: rgb(255, 255, 255); opacity: 0.2; transform-origin: 80.315px 291.895px;" class="animable"></path></g><path d="M91.07,290.77a38.9,38.9,0,0,1-6.24,1.52,40.61,40.61,0,0,1-6.35,1,38.24,38.24,0,0,1,6.24-1.53A39.82,39.82,0,0,1,91.07,290.77Z" style="fill: rgb(38, 50, 56); transform-origin: 84.775px 292.03px;" id="eltbooq882vna" class="animable"></path><path d="M84.41,292.13c.13.07-.06.66-.41,1.31s-.74,1.13-.87,1.07.06-.66.41-1.31S84.28,292.06,84.41,292.13Z" style="fill: rgb(38, 50, 56); transform-origin: 83.77px 293.319px;" id="eloccib07sa5j" class="animable"></path><path d="M83.09,292.52c-.11.08-.47-.19-.86-.54s-.69-.67-.61-.8.53,0,1,.42S83.21,292.43,83.09,292.52Z" style="fill: rgb(38, 50, 56); transform-origin: 82.3702px 291.833px;" id="el88ktrthn5d2" class="animable"></path><path d="M139.23,240.48c-.28.79.29,1.27,1,1.55a7.06,7.06,0,0,0-1,.12,3.84,3.84,0,0,0-2,.82c-.94,1,.06,2,1.06,2.51a3.47,3.47,0,0,0-2.2,2.45,1.66,1.66,0,0,0,.87,1.69,2.74,2.74,0,0,0,2.14-.06,3.71,3.71,0,0,0,1.27-.76c0,1.12.52,2.48,1.79,2.06a3.73,3.73,0,0,0,1.58-1.39,9.19,9.19,0,0,0,.6-.93,2.79,2.79,0,0,0,0,.58,1.2,1.2,0,0,0,.54.87,1.11,1.11,0,0,0,1.31-.24,6.89,6.89,0,0,0,2.1-3.37,8.62,8.62,0,0,0,.54-4.2c-.27-1.46-2-2.11-3.23-2.44a11.54,11.54,0,0,0-3.7-.42C141.1,239.39,139.54,239.6,139.23,240.48Z" style="fill: rgb(146, 227, 169); transform-origin: 142.484px 245.122px;" id="el32bs64px7za" class="animable"></path><g id="eldn7y3bwlxy5"><g style="opacity: 0.1; transform-origin: 142.484px 245.122px;" class="animable"><path d="M139.23,240.48c-.28.79.29,1.27,1,1.55a7.06,7.06,0,0,0-1,.12,3.84,3.84,0,0,0-2,.82c-.94,1,.06,2,1.06,2.51a3.47,3.47,0,0,0-2.2,2.45,1.66,1.66,0,0,0,.87,1.69,2.74,2.74,0,0,0,2.14-.06,3.71,3.71,0,0,0,1.27-.76c0,1.12.52,2.48,1.79,2.06a3.73,3.73,0,0,0,1.58-1.39,9.19,9.19,0,0,0,.6-.93,2.79,2.79,0,0,0,0,.58,1.2,1.2,0,0,0,.54.87,1.11,1.11,0,0,0,1.31-.24,6.89,6.89,0,0,0,2.1-3.37,8.62,8.62,0,0,0,.54-4.2c-.27-1.46-2-2.11-3.23-2.44a11.54,11.54,0,0,0-3.7-.42C141.1,239.39,139.54,239.6,139.23,240.48Z" id="elh0qu9fte1qq" class="animable" style="transform-origin: 142.484px 245.122px;"></path></g></g><path d="M151.22,239.2a51.22,51.22,0,0,1-6,4.16,51.5,51.5,0,0,1-6.23,3.73,50.52,50.52,0,0,1,5.95-4.16A51.13,51.13,0,0,1,151.22,239.2Z" style="fill: rgb(38, 50, 56); transform-origin: 145.105px 243.145px;" id="eldh5iuzaatta" class="animable"></path><path d="M146.58,242.1a9.58,9.58,0,0,1-1.21,4.22,4.84,4.84,0,0,1,.35-2.18C146.05,243,146.44,242.06,146.58,242.1Z" style="fill: rgb(38, 50, 56); transform-origin: 145.969px 244.209px;" id="eliyyh0uocern" class="animable"></path><path d="M139.59,243.73c0-.14.83-.12,1.79,0s1.73.41,1.71.55-.83.12-1.79,0S139.57,243.88,139.59,243.73Z" style="fill: rgb(38, 50, 56); transform-origin: 141.34px 244.005px;" id="eldlm1miat67m" class="animable"></path><path d="M141.84,245.22c.14,0,.19.45.11,1s-.26.91-.4.89-.19-.46-.11-1S141.7,245.19,141.84,245.22Z" style="fill: rgb(38, 50, 56); transform-origin: 141.695px 246.165px;" id="el1t9ez7ja994" class="animable"></path><path d="M143.38,242c0-.14.56-.18,1.21,0s1.1.47,1,.6-.57.06-1.17-.1S143.36,242.1,143.38,242Z" style="fill: rgb(38, 50, 56); transform-origin: 144.492px 242.274px;" id="elrm76kx2dak" class="animable"></path><path d="M202.54,197.8a1.51,1.51,0,0,0-.8,1.15,5,5,0,0,0,.37,1.45c0,.19.12.83-.21.8-.17,0-.39-.33-.48-.44-.22-.27-.39-.57-.61-.83-.55-.66-1.92-1.54-2.53-.46a1.54,1.54,0,0,0,.05,1.43,3.5,3.5,0,0,0,.5.71c.26.3.66.65.53,1.06s-.15.19-.35.05a1.92,1.92,0,0,1-.22-.18c-.17-.15-.32-.31-.48-.46a3.38,3.38,0,0,0-1.25-.71c-.93-.25-2,.57-1.48,1.56.23.47.69.67,1,1,.1.11.15,0,0,.16a.84.84,0,0,1-.3.11l-.6.16c-.79.22-2.27.68-2.29,1.72s1.22,1.49,2.05,1.59a4.19,4.19,0,0,0,1.72-.16c.14,0,.53-.24.68-.18s0,.57-.09.72c-.22.8-.12,1.71.83,1.9s1.76-.68,2-1.6c.11-.43.28-1.39.86-.82a4.21,4.21,0,0,1,.67,1c.43.75,1.44,1.45,2.22.7s.39-2.21,0-3.15a1.69,1.69,0,0,1-.1-.27c0-.11,0-.06.11,0s.22.19.3.26.38.4.57.59a3.22,3.22,0,0,0,1.19.88,1.65,1.65,0,0,0,2.07-.9,2.77,2.77,0,0,0-.61-2.85,13.57,13.57,0,0,0-1.29-1.34c-.31-.31-.24-.68-.31-1.08s-.17-.74-.25-1.1a4.15,4.15,0,0,0-.77-1.71A2.34,2.34,0,0,0,202.54,197.8Z" style="fill: rgb(146, 227, 169); transform-origin: 201.011px 203.81px;" id="eljplbhg6ofx" class="animable"></path><g id="elurz8vn60dz"><path d="M202.54,197.8a1.51,1.51,0,0,0-.8,1.15,5,5,0,0,0,.37,1.45c0,.19.12.83-.21.8-.17,0-.39-.33-.48-.44-.22-.27-.39-.57-.61-.83-.55-.66-1.92-1.54-2.53-.46a1.54,1.54,0,0,0,.05,1.43,3.5,3.5,0,0,0,.5.71c.26.3.66.65.53,1.06s-.15.19-.35.05a1.92,1.92,0,0,1-.22-.18c-.17-.15-.32-.31-.48-.46a3.38,3.38,0,0,0-1.25-.71c-.93-.25-2,.57-1.48,1.56.23.47.69.67,1,1,.1.11.15,0,0,.16a.84.84,0,0,1-.3.11l-.6.16c-.79.22-2.27.68-2.29,1.72s1.22,1.49,2.05,1.59a4.19,4.19,0,0,0,1.72-.16c.14,0,.53-.24.68-.18s0,.57-.09.72c-.22.8-.12,1.71.83,1.9s1.76-.68,2-1.6c.11-.43.28-1.39.86-.82a4.21,4.21,0,0,1,.67,1c.43.75,1.44,1.45,2.22.7s.39-2.21,0-3.15a1.69,1.69,0,0,1-.1-.27c0-.11,0-.06.11,0s.22.19.3.26.38.4.57.59a3.22,3.22,0,0,0,1.19.88,1.65,1.65,0,0,0,2.07-.9,2.77,2.77,0,0,0-.61-2.85,13.57,13.57,0,0,0-1.29-1.34c-.31-.31-.24-.68-.31-1.08s-.17-.74-.25-1.1a4.15,4.15,0,0,0-.77-1.71A2.34,2.34,0,0,0,202.54,197.8Z" style="opacity: 0.2; transform-origin: 201.011px 203.81px;" class="animable"></path></g><path d="M209.52,200.29a20.1,20.1,0,0,1-11.15,4.93c0-.15,2.68-.7,5.75-2.07S209.43,200.16,209.52,200.29Z" style="fill: rgb(38, 50, 56); transform-origin: 203.945px 202.751px;" id="elizmyuuuoumd" class="animable"></path><path d="M201,202.33c.08-.12.63.13,1.22.56s1,.86.91,1-.63-.13-1.22-.55S200.88,202.45,201,202.33Z" style="fill: rgb(38, 50, 56); transform-origin: 202.061px 203.114px;" id="el43osj4tujlq" class="animable"></path><path d="M200.78,204.63c.11.1-.07.49-.3,1s-.46.83-.6.79-.13-.52.13-1S200.67,204.54,200.78,204.63Z" style="fill: rgb(38, 50, 56); transform-origin: 200.302px 205.52px;" id="ele2cd4v6ff34" class="animable"></path><path d="M85.37,244.58s11.27,8.68,19.91-3.72C105.28,240.86,92.66,233,85.37,244.58Z" style="fill: rgb(146, 227, 169); transform-origin: 95.325px 242.894px;" id="elj3m7iau14r" class="animable"></path><g id="elx3z5r3qj63k"><path d="M85.37,244.58s11.27,8.68,19.91-3.72C105.28,240.86,92.66,233,85.37,244.58Z" style="fill: rgb(255, 255, 255); opacity: 0.3; transform-origin: 95.325px 242.894px;" class="animable"></path></g><path d="M109.63,239.81a79.66,79.66,0,0,1-8.9,2,81.75,81.75,0,0,1-9,1.47,79.66,79.66,0,0,1,8.9-2A81,81,0,0,1,109.63,239.81Z" style="fill: rgb(38, 50, 56); transform-origin: 100.68px 241.545px;" id="elmxee2lxw6k7" class="animable"></path><path d="M93.49,240.57c.06-.12.84.14,1.74.6s1.57.93,1.5,1.06-.84-.14-1.74-.6S93.42,240.7,93.49,240.57Z" style="fill: rgb(38, 50, 56); transform-origin: 95.11px 241.402px;" id="elkqm94gs074s" class="animable"></path><path d="M101.44,241.32c.11.09-.38.83-1.09,1.65s-1.37,1.4-1.48,1.3.38-.83,1.09-1.65S101.33,241.22,101.44,241.32Z" style="fill: rgb(38, 50, 56); transform-origin: 100.155px 242.795px;" id="el49j9v2k076e" class="animable"></path><path d="M173,235.34s9.08-2.38,6.09-11.9C179.06,223.44,169.86,226.86,173,235.34Z" style="fill: rgb(146, 227, 169); transform-origin: 176.021px 229.39px;" id="elcljvxpwosu" class="animable"></path><g id="el55ywiizyq4f"><path d="M173,235.34s9.08-2.38,6.09-11.9C179.06,223.44,169.86,226.86,173,235.34Z" style="fill: rgb(255, 255, 255); opacity: 0.3; transform-origin: 176.021px 229.39px;" class="animable"></path></g><path d="M180.27,220.74a35,35,0,0,1-2.48,5.49,35.12,35.12,0,0,1-2.95,5.26,35.83,35.83,0,0,1,2.49-5.49A36.07,36.07,0,0,1,180.27,220.74Z" style="fill: rgb(38, 50, 56); transform-origin: 177.555px 226.115px;" id="eliyxy2nowmj" class="animable"></path><path d="M174.15,229.48c-.06-.13.38-.46,1-.75s1.14-.4,1.2-.27-.38.46-1,.74S174.21,229.61,174.15,229.48Z" style="fill: rgb(38, 50, 56); transform-origin: 175.25px 228.968px;" id="elp8r3yph19b" class="animable"></path><path d="M177.75,225.63c.14,0,.37.51.51,1.21s.14,1.29,0,1.32-.37-.51-.51-1.21S177.61,225.65,177.75,225.63Z" style="fill: rgb(38, 50, 56); transform-origin: 178.005px 226.896px;" id="el79kkcnh4gu5" class="animable"></path><path d="M112.73,326.33s-12.66-3-15.19,10.61C97.54,336.94,111,338.73,112.73,326.33Z" style="fill: rgb(146, 227, 169); transform-origin: 105.135px 331.539px;" id="el08wrbps9qqzy" class="animable"></path><g id="elq4v9eiguqy"><path d="M112.73,326.33s-12.66-3-15.19,10.61C97.54,336.94,111,338.73,112.73,326.33Z" style="opacity: 0.2; transform-origin: 105.135px 331.539px;" class="animable"></path></g><path d="M94.31,339.46a65.66,65.66,0,0,1,6.66-5,66.34,66.34,0,0,1,7-4.6,65.66,65.66,0,0,1-6.66,5A66.34,66.34,0,0,1,94.31,339.46Z" style="fill: rgb(38, 50, 56); transform-origin: 101.14px 334.66px;" id="elk9chql4zo0m" class="animable"></path><path d="M107.48,332.73c0,.15-.76.23-1.68.19s-1.66-.2-1.65-.34.76-.23,1.68-.18S107.49,332.59,107.48,332.73Z" style="fill: rgb(38, 50, 56); transform-origin: 105.815px 332.658px;" id="eleedo6xq3dg" class="animable"></path><path d="M100.57,335.11c-.14,0,0-.84.26-1.79s.63-1.68.77-1.64,0,.84-.27,1.79S100.7,335.16,100.57,335.11Z" style="fill: rgb(38, 50, 56); transform-origin: 101.085px 333.395px;" id="el5booyhq28zr" class="animable"></path><path d="M291.66,226.45s3.83,8.57,12.74,4.07C304.4,230.52,299.52,222,291.66,226.45Z" style="fill: rgb(146, 227, 169); transform-origin: 298.03px 228.495px;" id="elb4s1ftuvn8f" class="animable"></path><path d="M307.25,231.28c-.09.08-3.05-.92-5.82-1.56a18.5,18.5,0,0,1-5.66-2.05,35.37,35.37,0,0,1,5.82,1.55A36.07,36.07,0,0,1,307.25,231.28Z" style="fill: rgb(38, 50, 56); transform-origin: 301.51px 229.477px;" id="elbii5xtb74i" class="animable"></path><path d="M297.63,226.66c.12-.08.52.29.9.84s.59,1.06.47,1.14-.52-.3-.9-.84S297.51,226.74,297.63,226.66Z" style="fill: rgb(38, 50, 56); transform-origin: 298.315px 227.65px;" id="elfuukig24ec" class="animable"></path><path d="M302,229.58c.05.14-.45.45-1.12.7s-1.25.35-1.3.22.45-.45,1.12-.7S302,229.45,302,229.58Z" style="fill: rgb(38, 50, 56); transform-origin: 300.79px 230.04px;" id="el6kzj817dx36" class="animable"></path><path d="M106.78,287.77s9.08-2.38,6.09-11.9C112.87,275.87,103.68,279.29,106.78,287.77Z" style="fill: rgb(146, 227, 169); transform-origin: 109.808px 281.82px;" id="elm4paprdu2he" class="animable"></path><path d="M114.09,273.17a35.83,35.83,0,0,1-2.49,5.49,34,34,0,0,1-2.94,5.26,35,35,0,0,1,2.48-5.49A35.12,35.12,0,0,1,114.09,273.17Z" style="fill: rgb(38, 50, 56); transform-origin: 111.375px 278.545px;" id="el6iaal33yom" class="animable"></path><path d="M108,281.92c-.06-.13.38-.47,1-.75s1.14-.41,1.2-.28-.38.46-1,.75S108,282.05,108,281.92Z" style="fill: rgb(38, 50, 56); transform-origin: 109.1px 281.406px;" id="ele8jdk4gqfsa" class="animable"></path><path d="M111.57,278.06c.14,0,.36.52.5,1.22s.14,1.29,0,1.32-.37-.52-.51-1.22S111.42,278.09,111.57,278.06Z" style="fill: rgb(38, 50, 56); transform-origin: 111.816px 279.331px;" id="elyzq64a93exa" class="animable"></path></g><g id="freepik--Bench--inject-5" class="animable animator-hidden" style="transform-origin: 257.035px 353.165px;"><path d="M396.59,352.85a12.7,12.7,0,0,0-6.7-6A14.72,14.72,0,0,1,396.59,352.85Z" style="fill: rgb(69, 90, 100); transform-origin: 393.24px 349.85px;" id="el6jfzp1kerk9" class="animable"></path><path d="M217.86,347.87A24.37,24.37,0,0,0,228.19,351a14.13,14.13,0,0,0,10-3.57,12.36,12.36,0,0,0,1.24-1.4H214.62l.38.23C215.66,346.63,216.63,347.21,217.86,347.87Z" style="fill: rgb(69, 90, 100); transform-origin: 227.025px 348.521px;" id="elfpyuu4kq33b" class="animable"></path><path d="M155.77,350.18a18,18,0,0,0,7.12,2.05,35.79,35.79,0,0,0,9.84-.82,78,78,0,0,1,11.88-1.84,63.35,63.35,0,0,1,13.75,1c4.8.82,9.76,2,14.93,3.1a84.24,84.24,0,0,0,16.2,2.08,37.26,37.26,0,0,0,15.92-2.93,59.93,59.93,0,0,0,6.74-3.87,19.48,19.48,0,0,1,6.87-2.88l.75-.1H239.53a10.81,10.81,0,0,1-1.28,1.5,14.06,14.06,0,0,1-10.06,3.68,23.93,23.93,0,0,1-10.4-3.17c-1.22-.68-2.18-1.28-2.84-1.71l-.44-.3H151.26a10,10,0,0,0,.88,1.23A12.05,12.05,0,0,0,155.77,350.18Z" style="fill: rgb(38, 50, 56); transform-origin: 205.515px 350.873px;" id="elux0bfqtclj" class="animable"></path><path d="M272.24,349.41a34.61,34.61,0,0,0,5.86,2.13,27.44,27.44,0,0,0,5.69.77,29.34,29.34,0,0,0,9.73-1.5,27.39,27.39,0,0,0,6.67-3.32c.77-.53,1.42-1,2-1.5h-40a17.81,17.81,0,0,1,3.9.85A66.07,66.07,0,0,1,272.24,349.41Z" style="fill: rgb(38, 50, 56); transform-origin: 282.19px 349.152px;" id="el6rqayyvmip3" class="animable"></path><path d="M349.12,354.75a27.85,27.85,0,0,0,8.3-8.76H334.89c-.14.11-.29.21-.45.32a17.8,17.8,0,0,1-2.31,1.52l-1.4.79c-.51.25-1,.48-1.59.73-1.08.54-2.31.94-3.58,1.42-2.57.87-5.44,1.66-8.47,2.44s-5.9,1.56-8.47,2.41c-1.26.48-2.49.86-3.57,1.39-.55.24-1.09.47-1.59.71l-1.4.76a20.2,20.2,0,0,0-2.33,1.47c-.33.24-.65.44-.93.65l-.72.63-.76.66h37.4l3.41-1.39A58.91,58.91,0,0,0,349.12,354.75Z" style="fill: rgb(38, 50, 56); transform-origin: 327.37px 353.94px;" id="elif7obi7pbr" class="animable"></path><path d="M360.69,355.55a12.85,12.85,0,0,1,4.52-1.46,14.68,14.68,0,0,1,9.91-8.1h-13c-.1.2-.29.56-.6,1.08a18.16,18.16,0,0,1-2.49,3,41.47,41.47,0,0,1-4.47,3.7,68,68,0,0,0-5.55,4.39,20.34,20.34,0,0,0-3.13,3.72h10a12,12,0,0,1,.44-1.32A10.13,10.13,0,0,1,360.69,355.55Z" style="fill: rgb(38, 50, 56); transform-origin: 360.5px 353.935px;" id="el19cp8nbmuv1j" class="animable"></path><path d="M354.48,353.62A45.53,45.53,0,0,0,359,350a18.77,18.77,0,0,0,2.52-3c.26-.38.43-.7.56-.9a.74.74,0,0,1,.08-.13h-4.53a27.2,27.2,0,0,1-8.35,8.93,56.39,56.39,0,0,1-11.05,5.71c-1.33.54-2.42.95-3.23,1.26h10.71A20,20,0,0,1,348.9,358,66.27,66.27,0,0,1,354.48,353.62Z" style="fill: rgb(38, 50, 56); transform-origin: 348.58px 353.92px;" id="el800e4t5u45v" class="animable"></path><path d="M298.74,360.52c.27-.21.59-.42.92-.66a17.62,17.62,0,0,1,2.32-1.5l1.41-.79c.5-.24,1-.47,1.59-.72,1.09-.53,2.32-.93,3.58-1.41,2.58-.86,5.45-1.65,8.48-2.43s5.89-1.57,8.46-2.42c1.26-.48,2.49-.87,3.57-1.4l1.58-.71,1.41-.78a19.52,19.52,0,0,0,2.32-1.48l.32-.23H302.28c-.58.49-1.25,1-2,1.57a27.61,27.61,0,0,1-6.68,3.36,29.26,29.26,0,0,1-9.78,1.54,28.38,28.38,0,0,1-5.72-.76,35.14,35.14,0,0,1-5.89-2.13c-2-.87-4-1.84-6.17-2.56a14.53,14.53,0,0,0-6.95-.73,19.34,19.34,0,0,0-6.8,2.86A59.9,59.9,0,0,1,245.5,353a37.44,37.44,0,0,1-16,3,85.25,85.25,0,0,1-16.24-2.09c-5.17-1.09-10.14-2.29-14.92-3.11a63.14,63.14,0,0,0-13.72-1,81.31,81.31,0,0,0-11.86,1.81,35.49,35.49,0,0,1-9.87.8,18.11,18.11,0,0,1-7.15-2.1,11.94,11.94,0,0,1-3.63-3,7.94,7.94,0,0,1-.7-1,2.06,2.06,0,0,1-.15-.24H128.16a12.67,12.67,0,0,0-12.49,10.57,17.81,17.81,0,0,1,2-.39c.79-.11,1.68-.3,2.68-.36a32,32,0,0,1,3.26-.19c1.18-.06,2.43,0,3.75.07a47.44,47.44,0,0,1,8.48,1.41,46.8,46.8,0,0,1,8,3c1.12.59,2.2,1.13,3.15,1.74h63.4l-1.3-.84a36.69,36.69,0,0,0-9.71-4.26,38.1,38.1,0,0,0-15.62-1,36.66,36.66,0,0,0-8.94,2.53c-3,1.2-6.1,2.65-9.58,2.87s-6.77-1.09-9.63-2.56-5.54-3.12-8.29-4.25A42.75,42.75,0,0,0,132,351a43.5,43.5,0,0,0-10.57,1c-1.22.29-2.17.54-2.8.74l-1,.27,1-.31c.63-.22,1.57-.47,2.79-.77A41.61,41.61,0,0,1,132,350.9a42.54,42.54,0,0,1,15.4,3.3c2.77,1.13,5.44,2.78,8.32,4.25s6.07,2.74,9.51,2.54,6.54-1.66,9.52-2.86a36.9,36.9,0,0,1,9-2.53,38.19,38.19,0,0,1,15.69,1,36.17,36.17,0,0,1,9.71,4.33c.52.34,1,.64,1.38.91h39.67c.15-.18.4-.46.79-.85a14.78,14.78,0,0,1,3.09-2.26,18.77,18.77,0,0,1,5.34-1.93,26.33,26.33,0,0,1,6.93-.44,56.67,56.67,0,0,1,6.9.87,37.24,37.24,0,0,1,5.54,1.23,4.75,4.75,0,0,1,2.8,2.52,2.87,2.87,0,0,1,.2.86h15.49l.78-.72Z" style="fill: rgb(38, 50, 56); transform-origin: 225.185px 353.955px;" id="elhtfcgacrx9q" class="animable"></path><path d="M135.75,357.3a50.1,50.1,0,0,0-8.44-1.42c-1.32-.05-2.57-.14-3.74-.09a32.28,32.28,0,0,0-3.25.17c-1,.05-1.88.22-2.67.33a19,19,0,0,0-2,.35,12.46,12.46,0,0,0-.18,2v3.22h31.16c-.9-.54-1.87-1-2.89-1.57A48.15,48.15,0,0,0,135.75,357.3Z" style="fill: rgb(38, 50, 56); transform-origin: 131.05px 358.818px;" id="elbnk2w8upj3a" class="animable"></path><path d="M278.71,358.65a37.81,37.81,0,0,0-5.52-1.18,61.5,61.5,0,0,0-6.88-.86,27.42,27.42,0,0,0-6.89.42,19.5,19.5,0,0,0-5.3,1.88,15.35,15.35,0,0,0-3.1,2.19c-.39.35-.64.62-.8.79h31.49a2.79,2.79,0,0,0-.23-.82A4.67,4.67,0,0,0,278.71,358.65Z" style="fill: rgb(38, 50, 56); transform-origin: 265.965px 359.221px;" id="elye1wgsgh0rb" class="animable"></path><path d="M363.85,360a14.64,14.64,0,0,1,1.25-5.7,12.43,12.43,0,0,0-4.31,1.41,10.51,10.51,0,0,0-4.69,6.17H398v-.14H363.82Z" style="fill: rgb(38, 50, 56); transform-origin: 377.05px 358.09px;" id="elum8oodoucym" class="animable"></path><path d="M199.41,356.65a38.19,38.19,0,0,0-15.69-1,36.9,36.9,0,0,0-9,2.53c-3,1.2-6.09,2.64-9.52,2.86s-6.66-1.08-9.51-2.54-5.55-3.12-8.32-4.25a42.54,42.54,0,0,0-15.4-3.3A41.61,41.61,0,0,0,121.39,352c-1.22.3-2.16.55-2.79.77l-1,.31,1-.27c.63-.2,1.58-.45,2.8-.74A43.5,43.5,0,0,1,132,351a42.75,42.75,0,0,1,15.33,3.34c2.75,1.13,5.41,2.77,8.29,4.25s6.13,2.77,9.63,2.56,6.6-1.67,9.58-2.87a36.66,36.66,0,0,1,8.94-2.53,38.1,38.1,0,0,1,15.62,1,36.69,36.69,0,0,1,9.71,4.26l1.3.84h.12c-.39-.27-.86-.57-1.38-.91A36.17,36.17,0,0,0,199.41,356.65Z" style="fill: rgb(69, 90, 100); transform-origin: 164.06px 356.391px;" id="elf7ebsq9fbze" class="animable"></path><path d="M152.1,347.24a11.94,11.94,0,0,0,3.63,3,18.11,18.11,0,0,0,7.15,2.1,35.49,35.49,0,0,0,9.87-.8,81.31,81.31,0,0,1,11.86-1.81,63.14,63.14,0,0,1,13.72,1c4.78.82,9.75,2,14.92,3.11A85.25,85.25,0,0,0,229.49,356a37.44,37.44,0,0,0,16-3,59.9,59.9,0,0,0,6.75-3.88,19.34,19.34,0,0,1,6.8-2.86A14.53,14.53,0,0,1,266,347c2.18.72,4.2,1.69,6.17,2.56a35.14,35.14,0,0,0,5.89,2.13,28.38,28.38,0,0,0,5.72.76,29.26,29.26,0,0,0,9.78-1.54,27.61,27.61,0,0,0,6.68-3.36c.79-.55,1.46-1.08,2-1.57h-.1c-.57.47-1.22,1-2,1.5a27.39,27.39,0,0,1-6.67,3.32,29.34,29.34,0,0,1-9.73,1.5,27.44,27.44,0,0,1-5.69-.77,34.61,34.61,0,0,1-5.86-2.13,66.07,66.07,0,0,0-6.19-2.57,17.81,17.81,0,0,0-3.9-.85h-2.38l-.75.1a19.48,19.48,0,0,0-6.87,2.88,59.93,59.93,0,0,1-6.74,3.87,37.26,37.26,0,0,1-15.92,2.93,84.24,84.24,0,0,1-16.2-2.08c-5.17-1.09-10.13-2.28-14.93-3.1a63.35,63.35,0,0,0-13.75-1,78,78,0,0,0-11.88,1.84,35.79,35.79,0,0,1-9.84.82,18,18,0,0,1-7.12-2.05,12.05,12.05,0,0,1-3.63-3,10,10,0,0,1-.88-1.23h0a2.06,2.06,0,0,0,.15.24A7.94,7.94,0,0,0,152.1,347.24Z" style="fill: rgb(69, 90, 100); transform-origin: 226.725px 350.991px;" id="elc5adz3vlpz7" class="animable"></path><path d="M278.76,358.51a37.24,37.24,0,0,0-5.54-1.23,56.67,56.67,0,0,0-6.9-.87,26.33,26.33,0,0,0-6.93.44,18.77,18.77,0,0,0-5.34,1.93A14.78,14.78,0,0,0,251,361c-.39.39-.64.67-.79.85h.05c.16-.17.41-.44.8-.79a15.35,15.35,0,0,1,3.1-2.19,19.5,19.5,0,0,1,5.3-1.88,27.42,27.42,0,0,1,6.89-.42,61.5,61.5,0,0,1,6.88.86,37.81,37.81,0,0,1,5.52,1.18,4.67,4.67,0,0,1,2.77,2.42,2.79,2.79,0,0,1,.23.82h.05a2.87,2.87,0,0,0-.2-.86A4.75,4.75,0,0,0,278.76,358.51Z" style="fill: rgb(69, 90, 100); transform-origin: 266.005px 359.099px;" id="el6wztrsvgqi9" class="animable"></path><path d="M298.8,360.6c.28-.21.6-.41.93-.65a20.2,20.2,0,0,1,2.33-1.47l1.4-.76c.5-.24,1-.47,1.59-.71,1.08-.53,2.31-.91,3.57-1.39,2.57-.85,5.44-1.63,8.47-2.41s5.9-1.57,8.47-2.44c1.27-.48,2.5-.88,3.58-1.42.55-.25,1.08-.48,1.59-.73l1.4-.79a17.8,17.8,0,0,0,2.31-1.52c.16-.11.31-.21.45-.32h-.19l-.32.23a19.52,19.52,0,0,1-2.32,1.48l-1.41.78-1.58.71c-1.08.53-2.31.92-3.57,1.4-2.57.85-5.44,1.64-8.46,2.42s-5.9,1.57-8.48,2.43c-1.26.48-2.49.88-3.58,1.41-.55.25-1.09.48-1.59.72l-1.41.79a17.62,17.62,0,0,0-2.32,1.5c-.33.24-.65.45-.92.66l-.71.65-.78.72h.07l.76-.66Z" style="fill: rgb(69, 90, 100); transform-origin: 316.07px 353.94px;" id="el6pf95i81bo4" class="animable"></path><path d="M349.24,354.92a27.2,27.2,0,0,0,8.35-8.93h-.17a27.85,27.85,0,0,1-8.3,8.76,58.91,58.91,0,0,1-11,5.75l-3.41,1.39H335c.81-.31,1.9-.72,3.23-1.26A56.39,56.39,0,0,0,349.24,354.92Z" style="fill: rgb(69, 90, 100); transform-origin: 346.15px 353.94px;" id="elhxzw5bszc9j" class="animable"></path><path d="M354.59,353.78a41.47,41.47,0,0,0,4.47-3.7,18.16,18.16,0,0,0,2.49-3c.31-.52.5-.88.6-1.08h0a.74.74,0,0,0-.08.13c-.13.2-.3.52-.56.9a18.77,18.77,0,0,1-2.52,3,45.53,45.53,0,0,1-4.48,3.64,66.27,66.27,0,0,0-5.58,4.4,20,20,0,0,0-3.23,3.87h.24a20.34,20.34,0,0,1,3.13-3.72A68,68,0,0,1,354.59,353.78Z" style="fill: rgb(69, 90, 100); transform-origin: 353.925px 353.97px;" id="elsi7fr7xz1k" class="animable"></path><path d="M135.8,357.1a47.44,47.44,0,0,0-8.48-1.41c-1.32-.05-2.57-.13-3.75-.07a32,32,0,0,0-3.26.19c-1,.06-1.89.25-2.68.36a17.81,17.81,0,0,0-2,.39s0,.06,0,.08a19,19,0,0,1,2-.35c.79-.11,1.67-.28,2.67-.33a32.28,32.28,0,0,1,3.25-.17c1.17-.05,2.42,0,3.74.09a50.1,50.1,0,0,1,8.44,1.42,48.15,48.15,0,0,1,8,3c1,.53,2,1,2.89,1.57H147c-.95-.61-2-1.15-3.15-1.74A46.8,46.8,0,0,0,135.8,357.1Z" style="fill: rgb(69, 90, 100); transform-origin: 131.315px 358.734px;" id="elpl0xaftrkz" class="animable"></path><path d="M217.79,348a23.93,23.93,0,0,0,10.4,3.17,14.06,14.06,0,0,0,10.06-3.68,10.81,10.81,0,0,0,1.28-1.5h-.14a12.36,12.36,0,0,1-1.24,1.4,14.13,14.13,0,0,1-10,3.57,24.37,24.37,0,0,1-10.33-3.09c-1.23-.66-2.2-1.24-2.86-1.65l-.38-.23h-.11l.44.3C215.61,346.72,216.57,347.32,217.79,348Z" style="fill: rgb(69, 90, 100); transform-origin: 227px 348.586px;" id="eltykobd94wx" class="animable"></path><path d="M398.6,360.24A14.68,14.68,0,0,0,384,345.58H378.5a15.11,15.11,0,0,0-3.38.41,14.68,14.68,0,0,0-9.91,8.1,12.85,12.85,0,0,0-4.52,1.46,10.13,10.13,0,0,0-4.29,5,12,12,0,0,0-.44,1.32h.14a10.51,10.51,0,0,1,4.69-6.17,12.43,12.43,0,0,1,4.31-1.41,14.64,14.64,0,0,0-1.25,5.7l0,1.74H398.6Z" style="fill: rgb(69, 90, 100); transform-origin: 377.28px 353.725px;" id="eld2klamsd6bs" class="animable"></path><path d="M144.74,309.49c-1.74,5.66-3.53,11.06-4,16.18,0,.63-.09,1.27-.13,1.89s0,1.24,0,1.84a23.2,23.2,0,0,0,.34,3.51,37.64,37.64,0,0,0,1.62,6.13c1,2.72,2,5,2.78,6.79v-8.74c-.26-.44-.52-.91-.78-1.44a19.46,19.46,0,0,1-.81-12.93,30.21,30.21,0,0,1,1.59-4.39v-11C145.17,308.07,145,308.78,144.74,309.49Z" style="fill: rgb(38, 50, 56); transform-origin: 142.971px 326.58px;" id="eltum19ifpc2j" class="animable"></path><path d="M143.3,270.67a22.74,22.74,0,0,0,.56,9.1c.39,1.69.94,3.5,1.5,5.42V267.51h-1.14c0,.12-.13.36-.28.74A15.08,15.08,0,0,0,143.3,270.67Z" style="fill: rgb(38, 50, 56); transform-origin: 144.218px 276.35px;" id="eldphhbommqtj" class="animable"></path><path d="M144.72,335.58c.21.47.43.88.64,1.26v-18a30.06,30.06,0,0,0-1.39,3.95A19.48,19.48,0,0,0,144.72,335.58Z" style="fill: rgb(38, 50, 56); transform-origin: 144.295px 327.84px;" id="elsipggt5w71b" class="animable"></path><path d="M141.69,296.82a9,9,0,0,0,2.21-5.63c.06-2.35-1.14-4.73-2.25-7.17a16.86,16.86,0,0,1-1.64-7.43,29,29,0,0,1,.79-6.19c.26-1.12.52-2.08.74-2.89H138.6v31.63A9.09,9.09,0,0,0,141.69,296.82Z" style="fill: rgb(38, 50, 56); transform-origin: 141.251px 283.325px;" id="eln1otdxj7jn" class="animable"></path><path d="M140.78,311.9a7.7,7.7,0,0,0-.35-4.18,2.88,2.88,0,0,0-1.83-1.47v14c.11-.25.22-.5.33-.79A28.19,28.19,0,0,0,140.78,311.9Z" style="fill: rgb(38, 50, 56); transform-origin: 139.761px 313.25px;" id="elx4lachddwsh" class="animable"></path><path d="M142.44,339.08a37.16,37.16,0,0,1-1.65-6.14,23.57,23.57,0,0,1-.36-3.53c0-.61,0-1.23,0-1.86s.07-1.26.11-1.9c.48-5.15,2.28-10.56,4-16.22.28-1,.56-1.91.81-2.86V285.81c-.61-2.15-1.22-4.15-1.65-6a22.55,22.55,0,0,1-.49-9.15,14.21,14.21,0,0,1,.68-2.41c.16-.38.27-.62.32-.73h-2.57c-.22.82-.46,1.79-.71,2.92a29.77,29.77,0,0,0-.74,6.16,16.91,16.91,0,0,0,1.64,7.34c1.11,2.44,2.32,4.85,2.26,7.27a9.12,9.12,0,0,1-2.3,5.72,8.92,8.92,0,0,1-3.2,2.31v6.85a4.1,4.1,0,0,1,.64.23,2.91,2.91,0,0,1,1.36,1.33,7.83,7.83,0,0,1,.39,4.28,27,27,0,0,1-1.93,7.59c-.16.38-.31.72-.46,1v25.73h6.86C144.6,344.42,143.5,342,142.44,339.08Z" style="fill: rgb(38, 50, 56); transform-origin: 142.02px 306.885px;" id="eli0qon1feam" class="animable"></path><path d="M145.56,346.27h1.71V346h-1.85C145.47,346.07,145.52,346.17,145.56,346.27Z" style="fill: rgb(69, 90, 100); transform-origin: 146.345px 346.135px;" id="elb0b8bvw4yl7" class="animable"></path><path d="M144.1,291.2c.06-2.42-1.15-4.83-2.26-7.27a16.91,16.91,0,0,1-1.64-7.34,29.77,29.77,0,0,1,.74-6.16c.25-1.13.49-2.1.71-2.92h-.11c-.22.81-.48,1.77-.74,2.89a29,29,0,0,0-.79,6.19,16.86,16.86,0,0,0,1.64,7.43c1.11,2.44,2.31,4.82,2.25,7.17a9,9,0,0,1-2.21,5.63,9.09,9.09,0,0,1-3.09,2.32v.09a8.92,8.92,0,0,0,3.2-2.31A9.12,9.12,0,0,0,144.1,291.2Z" style="fill: rgb(69, 90, 100); transform-origin: 141.351px 283.37px;" id="el11ahv81kh39" class="animable"></path><path d="M143.22,270.65a22.55,22.55,0,0,0,.49,9.15c.43,1.86,1,3.86,1.65,6v20.76c-.25.95-.53,1.9-.81,2.86-1.74,5.66-3.54,11.07-4,16.22,0,.64-.08,1.28-.11,1.9s0,1.25,0,1.86a23.57,23.57,0,0,0,.36,3.53,37.16,37.16,0,0,0,1.65,6.14c1.06,2.94,2.16,5.34,3,7.19h.1c0-.1-.09-.2-.14-.31h1.85V267.51h-1.91v17.68c-.56-1.92-1.11-3.73-1.5-5.42a22.74,22.74,0,0,1-.56-9.1,15.08,15.08,0,0,1,.64-2.42c.15-.38.24-.62.28-.74h0c-.05.11-.16.35-.32.73A14.21,14.21,0,0,0,143.22,270.65Zm2.14,66.19c-.21-.38-.43-.79-.64-1.26a19.48,19.48,0,0,1-.75-12.81,30.06,30.06,0,0,1,1.39-3.95Zm-1.59-14.12a19.46,19.46,0,0,0,.81,12.93c.26.53.52,1,.78,1.44v8.74c-.81-1.8-1.81-4.07-2.78-6.79a37.64,37.64,0,0,1-1.62-6.13,23.2,23.2,0,0,1-.34-3.51c0-.6,0-1.22,0-1.84s.08-1.26.13-1.89c.48-5.12,2.27-10.52,4-16.18.22-.71.43-1.42.62-2.12v11A30.21,30.21,0,0,0,143.77,322.72Z" style="fill: rgb(69, 90, 100); transform-origin: 143.843px 306.885px;" id="eli1eu0rmqipq" class="animable"></path><path d="M141,311.92a7.83,7.83,0,0,0-.39-4.28,2.91,2.91,0,0,0-1.36-1.33,4.1,4.1,0,0,0-.64-.23v.17a2.88,2.88,0,0,1,1.83,1.47,7.7,7.7,0,0,1,.35,4.18,28.19,28.19,0,0,1-1.85,7.55c-.11.29-.22.54-.33.79v.3c.15-.31.3-.65.46-1A27,27,0,0,0,141,311.92Z" style="fill: rgb(69, 90, 100); transform-origin: 139.873px 313.31px;" id="elaexpey4p0a" class="animable"></path><path d="M359.1,296.82a9,9,0,0,0,2.22-5.63c.05-2.35-1.14-4.73-2.26-7.17a17,17,0,0,1-1.64-7.43,29,29,0,0,1,.79-6.19c.27-1.12.52-2.08.75-2.89H356v31.63A9.17,9.17,0,0,0,359.1,296.82Z" style="fill: rgb(38, 50, 56); transform-origin: 358.661px 283.325px;" id="ely70m5v6n8jg" class="animable"></path><path d="M362.13,335.58a13.35,13.35,0,0,0,.65,1.26v-18a31.6,31.6,0,0,0-1.4,3.95A19.6,19.6,0,0,0,362.13,335.58Z" style="fill: rgb(38, 50, 56); transform-origin: 361.713px 327.84px;" id="el4nxtpywdlm7" class="animable"></path><path d="M362.16,309.49c-1.74,5.66-3.54,11.06-4,16.18,0,.63-.08,1.27-.12,1.89s0,1.24,0,1.84a23.2,23.2,0,0,0,.34,3.51A39.79,39.79,0,0,0,360,339c1,2.72,2,5,2.79,6.79v-8.74a14.79,14.79,0,0,1-.78-1.44,19.46,19.46,0,0,1-.82-12.93,30.22,30.22,0,0,1,1.6-4.39v-11C362.58,308.07,362.37,308.78,362.16,309.49Z" style="fill: rgb(38, 50, 56); transform-origin: 360.406px 326.54px;" id="elaa647ixjtot" class="animable"></path><path d="M363,346.27h1.71V346h-1.85C362.89,346.07,362.93,346.17,363,346.27Z" style="fill: rgb(69, 90, 100); transform-origin: 363.785px 346.135px;" id="elmc568deh85" class="animable"></path><path d="M359.86,339.08a38.14,38.14,0,0,1-1.66-6.14,23.59,23.59,0,0,1-.35-3.53c0-.61,0-1.23,0-1.86s.08-1.26.12-1.9c.48-5.15,2.27-10.56,4-16.22.29-1,.56-1.91.82-2.86V285.81c-.62-2.15-1.23-4.15-1.65-6a22.55,22.55,0,0,1-.49-9.15,13.47,13.47,0,0,1,.67-2.41c.16-.38.27-.62.32-.73h-2.56c-.22.82-.47,1.79-.71,2.92a29.72,29.72,0,0,0-.75,6.16,16.91,16.91,0,0,0,1.64,7.34c1.11,2.44,2.32,4.85,2.26,7.27a9.06,9.06,0,0,1-2.3,5.72,8.81,8.81,0,0,1-3.19,2.31v6.85a4,4,0,0,1,.63.23,2.83,2.83,0,0,1,1.36,1.33,7.64,7.64,0,0,1,.39,4.28,26.68,26.68,0,0,1-1.92,7.59c-.16.38-.31.72-.46,1v25.73h6.85C362,344.42,360.92,342,359.86,339.08Z" style="fill: rgb(38, 50, 56); transform-origin: 359.455px 306.885px;" id="elagmz9kvtyv5" class="animable"></path><path d="M358.19,311.9a7.7,7.7,0,0,0-.35-4.18,2.86,2.86,0,0,0-1.82-1.47v14c.1-.25.21-.5.32-.79A28.19,28.19,0,0,0,358.19,311.9Z" style="fill: rgb(38, 50, 56); transform-origin: 357.176px 313.25px;" id="elio25tyf8y8" class="animable"></path><path d="M360.72,270.67a22.89,22.89,0,0,0,.55,9.1c.39,1.69.94,3.5,1.51,5.42V267.51h-1.14c0,.12-.14.36-.29.74A15.27,15.27,0,0,0,360.72,270.67Z" style="fill: rgb(38, 50, 56); transform-origin: 361.638px 276.35px;" id="el48irwoq0kfi" class="animable"></path><path d="M361.51,291.2c.06-2.42-1.15-4.83-2.26-7.27a16.91,16.91,0,0,1-1.64-7.34,29.72,29.72,0,0,1,.75-6.16c.24-1.13.49-2.1.71-2.92H359c-.23.81-.48,1.77-.75,2.89a29,29,0,0,0-.79,6.19,17,17,0,0,0,1.64,7.43c1.12,2.44,2.31,4.82,2.26,7.17a9,9,0,0,1-2.22,5.63,9.17,9.17,0,0,1-3.08,2.32v.09a8.81,8.81,0,0,0,3.19-2.31A9.06,9.06,0,0,0,361.51,291.2Z" style="fill: rgb(69, 90, 100); transform-origin: 358.786px 283.37px;" id="els4mfn7oz2d" class="animable"></path><path d="M360.64,270.65a22.55,22.55,0,0,0,.49,9.15c.42,1.86,1,3.86,1.65,6v20.76c-.26.95-.53,1.9-.82,2.86-1.74,5.66-3.53,11.07-4,16.22,0,.64-.08,1.28-.12,1.9s0,1.25,0,1.86a23.59,23.59,0,0,0,.35,3.53,38.14,38.14,0,0,0,1.66,6.14c1.06,2.94,2.15,5.34,3,7.19H363c-.05-.1-.09-.2-.14-.31h1.85V267.51h-1.91v17.68c-.57-1.92-1.12-3.73-1.51-5.42a22.89,22.89,0,0,1-.55-9.1,15.27,15.27,0,0,1,.63-2.42c.15-.38.25-.62.29-.74h0c-.05.11-.16.35-.32.73A13.47,13.47,0,0,0,360.64,270.65Zm2.14,66.19a13.35,13.35,0,0,1-.65-1.26,19.6,19.6,0,0,1-.75-12.81,31.6,31.6,0,0,1,1.4-3.95Zm-1.6-14.12a19.46,19.46,0,0,0,.82,12.93,14.79,14.79,0,0,0,.78,1.44v8.74C362,344,361,341.76,360,339a39.79,39.79,0,0,1-1.62-6.13,23.2,23.2,0,0,1-.34-3.51c0-.6,0-1.22,0-1.84s.08-1.26.12-1.89c.48-5.12,2.28-10.52,4-16.18.21-.71.42-1.42.62-2.12v11A30.22,30.22,0,0,0,361.18,322.72Z" style="fill: rgb(69, 90, 100); transform-origin: 361.266px 306.885px;" id="el2z2z2t5n7st" class="animable"></path><path d="M358.4,311.92a7.64,7.64,0,0,0-.39-4.28,2.83,2.83,0,0,0-1.36-1.33,4,4,0,0,0-.63-.23v.17a2.86,2.86,0,0,1,1.82,1.47,7.7,7.7,0,0,1,.35,4.18,28.19,28.19,0,0,1-1.85,7.55c-.11.29-.22.54-.32.79v.3c.15-.31.3-.65.46-1A26.68,26.68,0,0,0,358.4,311.92Z" style="fill: rgb(69, 90, 100); transform-origin: 357.282px 313.31px;" id="elhjm4dieboe" class="animable"></path><path d="M367.77,389.37a8.91,8.91,0,0,0,2.22-5.63c.05-2.35-1.14-4.73-2.26-7.17a17.15,17.15,0,0,1-1.64-7.43,29,29,0,0,1,.79-6.19c.27-1.12.52-2.08.75-2.89h-2.94v31.62A8.89,8.89,0,0,0,367.77,389.37Z" style="fill: rgb(38, 50, 56); transform-origin: 367.341px 375.87px;" id="elefbgiimbu5e" class="animable"></path><path d="M368.53,431.63a38.14,38.14,0,0,1-1.66-6.14,25,25,0,0,1-.35-3.53c0-.61,0-1.23,0-1.86l.12-1.9c.48-5.15,2.27-10.57,4-16.22.29-1,.56-1.91.82-2.87V378.35c-.62-2.14-1.23-4.14-1.65-6a22.55,22.55,0,0,1-.49-9.15,15.1,15.1,0,0,1,.67-2.41c.16-.38.27-.62.32-.73h-2.56c-.22.82-.47,1.79-.71,2.92a29.1,29.1,0,0,0-.74,6.16,16.75,16.75,0,0,0,1.63,7.34c1.11,2.44,2.32,4.84,2.26,7.27a9,9,0,0,1-2.3,5.72,8.81,8.81,0,0,1-3.19,2.31v6.85a4,4,0,0,1,.63.23,2.89,2.89,0,0,1,1.37,1.33,7.73,7.73,0,0,1,.38,4.28,26.68,26.68,0,0,1-1.92,7.59c-.16.38-.31.72-.46,1v25.73h6.86C370.69,437,369.59,434.57,368.53,431.63Z" style="fill: rgb(38, 50, 56); transform-origin: 368.13px 399.425px;" id="elrz53c87a0kp" class="animable"></path><path d="M366.87,404.45a7.79,7.79,0,0,0-.36-4.18,2.86,2.86,0,0,0-1.82-1.47v14L365,412A28.54,28.54,0,0,0,366.87,404.45Z" style="fill: rgb(38, 50, 56); transform-origin: 365.848px 405.8px;" id="ele032dzrtki9" class="animable"></path><path d="M370.83,402c-1.74,5.66-3.53,11-4,16.17l-.12,1.9c0,.62,0,1.24,0,1.84a24.57,24.57,0,0,0,.34,3.51,38.24,38.24,0,0,0,1.63,6.12c1,2.73,2,5,2.78,6.8v-8.74a16.07,16.07,0,0,1-.78-1.45,19.43,19.43,0,0,1-.82-12.92,29.8,29.8,0,0,1,1.6-4.39v-11C371.25,400.62,371,401.33,370.83,402Z" style="fill: rgb(38, 50, 56); transform-origin: 369.085px 419.09px;" id="ellleal9vlg8" class="animable"></path><path d="M369.39,363.21a22.93,22.93,0,0,0,.55,9.11c.4,1.69.94,3.49,1.51,5.42V360.06h-1.14l-.29.74A15.39,15.39,0,0,0,369.39,363.21Z" style="fill: rgb(38, 50, 56); transform-origin: 370.308px 368.9px;" id="el910mfki0q1" class="animable"></path><path d="M371.65,438.82h1.71v-.31h-1.85C371.56,438.62,371.6,438.72,371.65,438.82Z" style="fill: rgb(69, 90, 100); transform-origin: 372.435px 438.665px;" id="elzjrdhouo9dn" class="animable"></path><path d="M370.8,428.13c.21.46.43.88.65,1.26v-18a31.6,31.6,0,0,0-1.4,3.95A19.6,19.6,0,0,0,370.8,428.13Z" style="fill: rgb(38, 50, 56); transform-origin: 370.383px 420.39px;" id="elhminfzz6rbb" class="animable"></path><path d="M370.18,383.75c.06-2.43-1.15-4.83-2.26-7.27a16.75,16.75,0,0,1-1.63-7.34A29.1,29.1,0,0,1,367,363c.24-1.13.49-2.1.71-2.92h-.11c-.23.81-.48,1.77-.75,2.89a29,29,0,0,0-.79,6.19,17.15,17.15,0,0,0,1.64,7.43c1.12,2.44,2.31,4.82,2.26,7.17a9.11,9.11,0,0,1-5.3,7.94v.1a8.81,8.81,0,0,0,3.19-2.31A9,9,0,0,0,370.18,383.75Z" style="fill: rgb(69, 90, 100); transform-origin: 367.421px 375.94px;" id="elcljoqbiha3" class="animable"></path><path d="M369.31,363.2a22.55,22.55,0,0,0,.49,9.15c.42,1.86,1,3.86,1.65,6v20.76c-.26,1-.53,1.91-.82,2.87-1.74,5.65-3.53,11.07-4,16.22l-.12,1.9c0,.63,0,1.25,0,1.86a25,25,0,0,0,.35,3.53,38.14,38.14,0,0,0,1.66,6.14c1.06,2.94,2.16,5.34,3,7.19h.1c0-.1-.09-.2-.14-.31h1.85V360.06h-1.91v17.68c-.57-1.93-1.11-3.73-1.51-5.42a22.93,22.93,0,0,1-.55-9.11,15.39,15.39,0,0,1,.63-2.41l.29-.74h0c-.05.11-.16.35-.32.73A15.1,15.1,0,0,0,369.31,363.2Zm2.14,66.19c-.22-.38-.44-.8-.65-1.26a19.6,19.6,0,0,1-.75-12.81,31.6,31.6,0,0,1,1.4-3.95Zm-1.6-14.12a19.43,19.43,0,0,0,.82,12.92,16.07,16.07,0,0,0,.78,1.45v8.74c-.81-1.8-1.82-4.07-2.78-6.8a38.24,38.24,0,0,1-1.63-6.12,24.57,24.57,0,0,1-.34-3.51c0-.6,0-1.22,0-1.84l.12-1.9c.49-5.12,2.28-10.51,4-16.17.21-.71.42-1.42.62-2.12v11A29.8,29.8,0,0,0,369.85,415.27Z" style="fill: rgb(69, 90, 100); transform-origin: 369.92px 399.44px;" id="el4gjjbdv3bgo" class="animable"></path><path d="M367.07,404.47a7.73,7.73,0,0,0-.38-4.28,2.89,2.89,0,0,0-1.37-1.33,4,4,0,0,0-.63-.23v.17a2.86,2.86,0,0,1,1.82,1.47,7.79,7.79,0,0,1,.36,4.18A28.54,28.54,0,0,1,365,412l-.32.79v.3c.15-.31.3-.65.46-1A26.68,26.68,0,0,0,367.07,404.47Z" style="fill: rgb(69, 90, 100); transform-origin: 365.947px 405.86px;" id="elok9vy8jziz" class="animable"></path><path d="M132.91,389.21a9,9,0,0,0,2.22-5.63c.05-2.35-1.14-4.73-2.26-7.17a17,17,0,0,1-1.64-7.43,29,29,0,0,1,.79-6.19c.27-1.12.52-2.08.75-2.89h-2.94v31.62A9,9,0,0,0,132.91,389.21Z" style="fill: rgb(38, 50, 56); transform-origin: 132.481px 375.71px;" id="eldpjvlo71uc" class="animable"></path><path d="M133.67,431.47a38.14,38.14,0,0,1-1.66-6.14,25,25,0,0,1-.35-3.53c0-.61,0-1.23,0-1.86s.08-1.26.12-1.9c.48-5.15,2.27-10.56,4-16.22.29-1,.56-1.91.82-2.87V378.19c-.62-2.14-1.23-4.14-1.65-6a22.55,22.55,0,0,1-.49-9.15,13.47,13.47,0,0,1,.67-2.41c.16-.38.27-.62.32-.73h-2.57c-.21.82-.46,1.79-.7,2.92a29.72,29.72,0,0,0-.75,6.16,16.91,16.91,0,0,0,1.64,7.34c1.11,2.44,2.32,4.85,2.26,7.27a9.06,9.06,0,0,1-2.3,5.72,8.81,8.81,0,0,1-3.19,2.31v6.85a4,4,0,0,1,.63.23,2.83,2.83,0,0,1,1.36,1.33,7.64,7.64,0,0,1,.39,4.28,26.68,26.68,0,0,1-1.92,7.59c-.16.38-.31.72-.46,1v25.73h6.85C135.82,436.81,134.73,434.41,133.67,431.47Z" style="fill: rgb(38, 50, 56); transform-origin: 133.265px 399.265px;" id="eltjmnk6b988" class="animable"></path><path d="M136.79,438.66h1.71v-.31h-1.85A2.92,2.92,0,0,0,136.79,438.66Z" style="fill: rgb(69, 90, 100); transform-origin: 137.575px 438.505px;" id="eljlrnvvnyqlm" class="animable"></path><path d="M135.94,428a13.35,13.35,0,0,0,.65,1.26v-18a30.07,30.07,0,0,0-1.4,4A19.6,19.6,0,0,0,135.94,428Z" style="fill: rgb(38, 50, 56); transform-origin: 135.528px 420.26px;" id="eld8fd7ncxaqv" class="animable"></path><path d="M134.53,363.06a22.89,22.89,0,0,0,.55,9.1c.39,1.69.94,3.49,1.51,5.42V359.9h-1.14c0,.12-.14.36-.29.74A15.27,15.27,0,0,0,134.53,363.06Z" style="fill: rgb(38, 50, 56); transform-origin: 135.448px 368.74px;" id="elee3n29rl0h" class="animable"></path><path d="M132,404.29a7.7,7.7,0,0,0-.35-4.18,2.86,2.86,0,0,0-1.82-1.47v14c.1-.25.21-.5.32-.79A28.19,28.19,0,0,0,132,404.29Z" style="fill: rgb(69, 90, 100); transform-origin: 130.986px 405.64px;" id="elcv7wz9lyh9j" class="animable"></path><path d="M136,401.88c-1.74,5.66-3.53,11.06-4,16.18l-.12,1.89c0,.62,0,1.24,0,1.84a23.2,23.2,0,0,0,.34,3.51,39.79,39.79,0,0,0,1.62,6.13c1,2.72,2,5,2.79,6.79v-8.74a14.79,14.79,0,0,1-.78-1.44,19.46,19.46,0,0,1-.82-12.93,30.22,30.22,0,0,1,1.6-4.39v-11C136.39,400.46,136.18,401.17,136,401.88Z" style="fill: rgb(38, 50, 56); transform-origin: 134.255px 418.97px;" id="elzx3qpvopj2" class="animable"></path><path d="M135.32,383.59c.06-2.42-1.15-4.83-2.26-7.27a16.91,16.91,0,0,1-1.64-7.34,29.72,29.72,0,0,1,.75-6.16c.24-1.13.49-2.1.7-2.92h-.1c-.23.81-.48,1.77-.75,2.89a29,29,0,0,0-.79,6.19,17,17,0,0,0,1.64,7.43c1.12,2.44,2.31,4.82,2.26,7.17a9.11,9.11,0,0,1-5.3,7.94v.1a8.81,8.81,0,0,0,3.19-2.31A9.06,9.06,0,0,0,135.32,383.59Z" style="fill: rgb(69, 90, 100); transform-origin: 132.576px 375.76px;" id="el5d1wajgz325" class="animable"></path><path d="M134.45,363a22.55,22.55,0,0,0,.49,9.15c.42,1.86,1,3.86,1.65,6V399c-.26,1-.53,1.91-.82,2.87-1.74,5.66-3.53,11.07-4,16.22,0,.64-.08,1.28-.12,1.9s0,1.25,0,1.86a25,25,0,0,0,.35,3.53,38.14,38.14,0,0,0,1.66,6.14c1.06,2.94,2.15,5.34,3,7.19h.11a2.92,2.92,0,0,1-.14-.31h1.85V359.9h-1.91v17.68c-.57-1.93-1.12-3.73-1.51-5.42a22.89,22.89,0,0,1-.55-9.1,15.27,15.27,0,0,1,.63-2.42c.15-.38.25-.62.29-.74h0c-.05.11-.16.35-.32.73A13.47,13.47,0,0,0,134.45,363Zm2.14,66.19a13.35,13.35,0,0,1-.65-1.26,19.6,19.6,0,0,1-.75-12.81,30.07,30.07,0,0,1,1.4-4ZM135,415.11a19.46,19.46,0,0,0,.82,12.93,14.79,14.79,0,0,0,.78,1.44v8.74c-.81-1.8-1.82-4.07-2.79-6.79a39.79,39.79,0,0,1-1.62-6.13,23.2,23.2,0,0,1-.34-3.51c0-.6,0-1.22,0-1.84l.12-1.89c.49-5.12,2.28-10.52,4-16.18.21-.71.42-1.42.62-2.12v11A30.22,30.22,0,0,0,135,415.11Z" style="fill: rgb(69, 90, 100); transform-origin: 135.056px 399.305px;" id="el509dvz2f4uf" class="animable"></path><path d="M132.21,404.31a7.64,7.64,0,0,0-.39-4.28,2.83,2.83,0,0,0-1.36-1.33,4,4,0,0,0-.63-.23v.17a2.86,2.86,0,0,1,1.82,1.47,7.7,7.7,0,0,1,.35,4.18,28.19,28.19,0,0,1-1.85,7.55c-.11.29-.22.54-.32.79v.3c.15-.31.3-.65.46-1A26.68,26.68,0,0,0,132.21,404.31Z" style="fill: rgb(69, 90, 100); transform-origin: 131.092px 405.7px;" id="el1glkapzn2z9" class="animable"></path><path d="M303.8,285.82a54.64,54.64,0,0,1,11.13-4.56,32.68,32.68,0,0,1,12.87-.35,118.28,118.28,0,0,1,12.59,2.92,103.45,103.45,0,0,0,11.72,2.62,87,87,0,0,0,20.3.79l1-.09v-9H304.62a30.8,30.8,0,0,1-4.85,1.14c-3.25.56-7.19.78-11.44,1.7s-8.79,2.43-13.6,3.91a62.2,62.2,0,0,1-13.86,2.9,27.1,27.1,0,0,1-11.42-1.5,19.6,19.6,0,0,1-6.63-4,11.5,11.5,0,0,1-.86-.88,8.61,8.61,0,0,1-.58-.68c-.3-.38-.45-.59-.45-.59l.48.56c.15.19.35.41.6.67a11.57,11.57,0,0,0,.86.86,19.84,19.84,0,0,0,6.63,4,27.2,27.2,0,0,0,11.36,1.45,62.76,62.76,0,0,0,13.81-2.91c4.8-1.47,9.35-3,13.62-3.9s8.21-1.11,11.45-1.65a32.57,32.57,0,0,0,4.51-1H272l-1,.37a35.61,35.61,0,0,1-5.21,1.34,34.37,34.37,0,0,1-5.35.45,30.63,30.63,0,0,1-4.38-.3,24.63,24.63,0,0,1-3.95-.84l.28,0,.78.17c.68.16,1.67.33,2.91.49a34.4,34.4,0,0,0,4.35.25,36.77,36.77,0,0,0,5.33-.47,36.39,36.39,0,0,0,5.17-1.32l.51-.18H220.54l-2.09.49-11.54,2.67c-4.35,1-9.11,2.17-14.19,3a62.4,62.4,0,0,1-14.47,1,37.86,37.86,0,0,1-11.55-2.54,28,28,0,0,1-6.92-4l-.81-.68H127.4v13.73H245.48c-.69-.32-1.58-.71-2.68-1.14A70.77,70.77,0,0,0,230.32,287a72.67,72.67,0,0,0-19.25-1.34,71.5,71.5,0,0,0-11.3,1.68c-3.87.85-7.85,1.93-12,2.45a36.22,36.22,0,0,1-12.25-.63c-3.9-.79-7.58-1.88-11.13-2.7a84.15,84.15,0,0,0-19.19-2.23,86.13,86.13,0,0,0-13,1c-1.52.25-2.7.45-3.49.62l-1.22.23s1.66-.42,4.7-.93a83.69,83.69,0,0,1,32.26,1.12c3.55.82,7.23,1.91,11.12,2.69a35.83,35.83,0,0,0,12.18.62c4.18-.51,8.15-1.59,12-2.44a70.67,70.67,0,0,1,30.62-.28,69.75,69.75,0,0,1,12.48,3.84c1.15.47,2.07.89,2.77,1.22h42.84a50.73,50.73,0,0,0,5.46-1.58A78.9,78.9,0,0,0,303.8,285.82Z" style="fill: rgb(38, 50, 56); transform-origin: 250.405px 285.025px;" id="elwpld9tvnsfa" class="animable"></path><path d="M317.15,289.78a21.57,21.57,0,0,0-3.95,1.7c-.29.15-.51.29-.7.41h28.41a53.79,53.79,0,0,0-9.69-2.81A29.55,29.55,0,0,0,317.15,289.78Z" style="fill: rgb(38, 50, 56); transform-origin: 326.705px 290.216px;" id="el7upk0f0yv3p" class="animable"></path><path d="M166.76,282.66a38,38,0,0,0,11.51,2.49,62.54,62.54,0,0,0,14.41-1c5.07-.86,9.83-2,14.18-3l11.55-2.63,1.54-.35H159.07l.76.62A28.48,28.48,0,0,0,166.76,282.66Z" style="fill: rgb(38, 50, 56); transform-origin: 189.51px 281.694px;" id="elq8mmo4bro2q" class="animable"></path><path d="M372.42,287.39a86.54,86.54,0,0,1-20.33-.75A102.86,102.86,0,0,1,340.34,284a119,119,0,0,0-12.57-2.92,32.45,32.45,0,0,0-12.79.34A55.53,55.53,0,0,0,303.89,286a79.11,79.11,0,0,1-9.93,4.48c-1.63.57-3.23,1-4.78,1.42H312.4l.76-.48a19.8,19.8,0,0,1,3.95-1.77,29.21,29.21,0,0,1,14.14-.77,53.26,53.26,0,0,1,10.15,3h32.06v-4.6Z" style="fill: rgb(38, 50, 56); transform-origin: 331.32px 286.251px;" id="elcn1ipppn3td" class="animable"></path><path d="M230.35,286.83a70.67,70.67,0,0,0-30.62.28c-3.88.85-7.85,1.93-12,2.44a35.83,35.83,0,0,1-12.18-.62c-3.89-.78-7.57-1.87-11.12-2.69a83.69,83.69,0,0,0-32.26-1.12c-3,.51-4.7.93-4.7.93l1.22-.23c.79-.17,2-.37,3.49-.62a86.13,86.13,0,0,1,13-1,84.15,84.15,0,0,1,19.19,2.23c3.55.82,7.23,1.91,11.13,2.7a36.22,36.22,0,0,0,12.25.63c4.19-.52,8.17-1.6,12-2.45a71.5,71.5,0,0,1,11.3-1.68A72.67,72.67,0,0,1,230.32,287a70.77,70.77,0,0,1,12.48,3.78c1.1.43,2,.82,2.68,1.14h.12c-.7-.33-1.62-.75-2.77-1.22A69.75,69.75,0,0,0,230.35,286.83Z" style="fill: rgb(69, 90, 100); transform-origin: 186.535px 287.99px;" id="elq385kcefsf" class="animable"></path><path d="M166.7,282.8a37.86,37.86,0,0,0,11.55,2.54,62.4,62.4,0,0,0,14.47-1c5.08-.87,9.84-2.05,14.19-3l11.54-2.67,2.09-.49H220l-1.54.35-11.55,2.63c-4.35,1-9.11,2.15-14.18,3a62.54,62.54,0,0,1-14.41,1,38,38,0,0,1-11.51-2.49,28.48,28.48,0,0,1-6.93-3.88l-.76-.62H159l.81.68A28,28,0,0,0,166.7,282.8Z" style="fill: rgb(69, 90, 100); transform-origin: 189.77px 281.79px;" id="el1dte7882clo" class="animable"></path><path d="M317.11,289.64a19.8,19.8,0,0,0-3.95,1.77l-.76.48h.1c.19-.12.41-.26.7-.41a21.57,21.57,0,0,1,3.95-1.7,29.55,29.55,0,0,1,14.07-.7,53.79,53.79,0,0,1,9.69,2.81h.49a53.26,53.26,0,0,0-10.15-3A29.21,29.21,0,0,0,317.11,289.64Z" style="fill: rgb(69, 90, 100); transform-origin: 326.9px 290.122px;" id="el4cjbr13zdqs" class="animable"></path><path d="M288.29,280.81c-4.27.9-8.82,2.43-13.62,3.9a62.76,62.76,0,0,1-13.81,2.91,27.2,27.2,0,0,1-11.36-1.45,19.84,19.84,0,0,1-6.63-4,11.57,11.57,0,0,1-.86-.86c-.25-.26-.45-.48-.6-.67l-.48-.56s.15.21.45.59a8.61,8.61,0,0,0,.58.68,11.5,11.5,0,0,0,.86.88,19.6,19.6,0,0,0,6.63,4,27.1,27.1,0,0,0,11.42,1.5,62.2,62.2,0,0,0,13.86-2.9c4.81-1.48,9.35-3,13.6-3.91s8.19-1.14,11.44-1.7a30.8,30.8,0,0,0,4.85-1.14h-.37a32.57,32.57,0,0,1-4.51,1C296.5,279.7,292.57,279.9,288.29,280.81Z" style="fill: rgb(69, 90, 100); transform-origin: 272.775px 282.952px;" id="eluchd9hbc5d" class="animable"></path><path d="M265.77,279.66a36.77,36.77,0,0,1-5.33.47,34.4,34.4,0,0,1-4.35-.25c-1.24-.16-2.23-.33-2.91-.49l-.78-.17-.28,0a24.63,24.63,0,0,0,3.95.84,30.63,30.63,0,0,0,4.38.3,34.37,34.37,0,0,0,5.35-.45,35.61,35.61,0,0,0,5.21-1.34l1-.37h-.53l-.51.18A36.39,36.39,0,0,1,265.77,279.66Z" style="fill: rgb(69, 90, 100); transform-origin: 262.065px 279.28px;" id="elc4eu8nkshwk" class="animable"></path><path d="M386.09,278.16H373.46v9l-1,.09a87,87,0,0,1-20.3-.79,103.45,103.45,0,0,1-11.72-2.62,118.28,118.28,0,0,0-12.59-2.92,32.68,32.68,0,0,0-12.87.35,54.64,54.64,0,0,0-11.13,4.56,78.9,78.9,0,0,1-9.9,4.49,50.73,50.73,0,0,1-5.46,1.58h.74c1.55-.38,3.15-.85,4.78-1.42a79.11,79.11,0,0,0,9.93-4.48A55.53,55.53,0,0,1,315,281.45a32.45,32.45,0,0,1,12.79-.34A119,119,0,0,1,340.34,284a102.86,102.86,0,0,0,11.75,2.61,86.54,86.54,0,0,0,20.33.75l1-.1v4.6h12.63Z" style="fill: rgb(69, 90, 100); transform-origin: 337.29px 285.03px;" id="elp3wz4bckvrp" class="animable"></path><path d="M317.15,336.35a21.57,21.57,0,0,0-3.95,1.7c-.29.15-.51.29-.7.41h28.41a53.79,53.79,0,0,0-9.69-2.81A29.55,29.55,0,0,0,317.15,336.35Z" style="fill: rgb(38, 50, 56); transform-origin: 326.705px 336.786px;" id="ely7x0jorgnn" class="animable"></path><path d="M303.8,332.39a55.23,55.23,0,0,1,11.13-4.57,32.87,32.87,0,0,1,12.87-.34,118.28,118.28,0,0,1,12.59,2.92A105.67,105.67,0,0,0,352.11,333a87,87,0,0,0,20.3.79l1-.09v-9H304.62a30.8,30.8,0,0,1-4.85,1.14c-3.25.56-7.19.78-11.44,1.7s-8.79,2.43-13.6,3.91a62.2,62.2,0,0,1-13.86,2.9,27.1,27.1,0,0,1-11.42-1.5,19.44,19.44,0,0,1-6.63-4.05A9.92,9.92,0,0,1,242,328a8.61,8.61,0,0,1-.58-.68c-.3-.38-.45-.59-.45-.59l.48.56c.15.19.35.41.6.67a9.94,9.94,0,0,0,.86.85,19.67,19.67,0,0,0,6.63,4,27.2,27.2,0,0,0,11.36,1.45,62.76,62.76,0,0,0,13.81-2.91c4.8-1.47,9.35-3,13.62-3.9s8.21-1.11,11.45-1.65a32.57,32.57,0,0,0,4.51-1H272l-1,.37a35.61,35.61,0,0,1-5.21,1.34,34.37,34.37,0,0,1-5.35.45,30.63,30.63,0,0,1-4.38-.3,24.63,24.63,0,0,1-3.95-.84l.28,0,.78.17c.68.16,1.67.33,2.91.49a34.4,34.4,0,0,0,4.35.25,36.77,36.77,0,0,0,5.33-.47,36.39,36.39,0,0,0,5.17-1.32l.51-.18H220.53l-2.08.49-11.54,2.67c-4.35,1-9.11,2.17-14.19,3a62.4,62.4,0,0,1-14.47,1,37.86,37.86,0,0,1-11.55-2.54,28,28,0,0,1-6.92-4l-.81-.68H127.4v13.73H245.48c-.69-.32-1.58-.71-2.68-1.14a70.77,70.77,0,0,0-12.48-3.78,72.67,72.67,0,0,0-19.25-1.34,71.5,71.5,0,0,0-11.3,1.68c-3.87.85-7.85,1.93-12,2.44a36,36,0,0,1-12.25-.62c-3.9-.79-7.58-1.88-11.13-2.7a84.15,84.15,0,0,0-19.19-2.23,86.13,86.13,0,0,0-13,1c-1.52.25-2.7.45-3.49.62l-1.22.23s1.66-.42,4.7-.93a84.56,84.56,0,0,1,13-1.07,83.31,83.31,0,0,1,19.24,2.19c3.55.82,7.23,1.91,11.12,2.69a35.83,35.83,0,0,0,12.18.62c4.18-.51,8.15-1.59,12-2.44A70.55,70.55,0,0,1,211.05,332a72.44,72.44,0,0,1,19.3,1.39,69.75,69.75,0,0,1,12.48,3.84c1.15.47,2.07.88,2.77,1.22h42.84a50.73,50.73,0,0,0,5.46-1.58A78.9,78.9,0,0,0,303.8,332.39Z" style="fill: rgb(38, 50, 56); transform-origin: 250.405px 331.575px;" id="elxp7w4sszhii" class="animable"></path><path d="M372.42,334a86.54,86.54,0,0,1-20.33-.75,102.86,102.86,0,0,1-11.75-2.61,119,119,0,0,0-12.57-2.92A32.45,32.45,0,0,0,315,328a55.53,55.53,0,0,0-11.09,4.54A79.11,79.11,0,0,1,294,337c-1.63.57-3.23,1-4.78,1.42H312.4l.76-.48a19.8,19.8,0,0,1,3.95-1.77,29.21,29.21,0,0,1,14.14-.77,53.26,53.26,0,0,1,10.15,3h32.06v-4.6Z" style="fill: rgb(38, 50, 56); transform-origin: 331.34px 332.819px;" id="elvpxf6qhfpl" class="animable"></path><path d="M166.76,329.23a38,38,0,0,0,11.51,2.49,62.54,62.54,0,0,0,14.41-1c5.07-.86,9.83-2,14.18-3l11.55-2.64,1.54-.34H159.07l.76.62A28.81,28.81,0,0,0,166.76,329.23Z" style="fill: rgb(38, 50, 56); transform-origin: 189.51px 328.264px;" id="elfi6bkr47v2f" class="animable"></path><path d="M230.35,333.4a72.44,72.44,0,0,0-19.3-1.39,70.55,70.55,0,0,0-11.32,1.67c-3.88.85-7.85,1.93-12,2.44a35.83,35.83,0,0,1-12.18-.62c-3.89-.78-7.57-1.87-11.12-2.69a83.31,83.31,0,0,0-19.24-2.19,84.56,84.56,0,0,0-13,1.07c-3,.51-4.7.93-4.7.93l1.22-.23c.79-.17,2-.37,3.49-.62a86.13,86.13,0,0,1,13-1A84.15,84.15,0,0,1,164.35,333c3.55.82,7.23,1.91,11.13,2.7a36,36,0,0,0,12.25.62c4.19-.51,8.17-1.59,12-2.44a71.5,71.5,0,0,1,11.3-1.68,72.67,72.67,0,0,1,19.25,1.34,70.77,70.77,0,0,1,12.48,3.78c1.1.43,2,.82,2.68,1.14h.12c-.7-.34-1.62-.75-2.77-1.22A69.75,69.75,0,0,0,230.35,333.4Z" style="fill: rgb(69, 90, 100); transform-origin: 186.525px 334.54px;" id="el994z49pzv9" class="animable"></path><path d="M166.7,329.37a37.86,37.86,0,0,0,11.55,2.54,62.4,62.4,0,0,0,14.47-1c5.08-.87,9.84-2.05,14.19-3l11.54-2.67,2.08-.49H220l-1.54.34-11.55,2.64c-4.35,1-9.11,2.15-14.18,3a62.54,62.54,0,0,1-14.41,1,38,38,0,0,1-11.51-2.49,28.81,28.81,0,0,1-6.93-3.88l-.76-.62H159l.81.68A28,28,0,0,0,166.7,329.37Z" style="fill: rgb(69, 90, 100); transform-origin: 189.765px 328.36px;" id="elkpy44bz7ec" class="animable"></path><path d="M317.11,336.21a19.8,19.8,0,0,0-3.95,1.77l-.76.48h.1c.19-.12.41-.26.7-.41a21.57,21.57,0,0,1,3.95-1.7,29.55,29.55,0,0,1,14.07-.7,53.79,53.79,0,0,1,9.69,2.81h.49a53.26,53.26,0,0,0-10.15-3A29.21,29.21,0,0,0,317.11,336.21Z" style="fill: rgb(69, 90, 100); transform-origin: 326.9px 336.692px;" id="el1pe5wx9bwwzj" class="animable"></path><path d="M288.29,327.38c-4.27.9-8.82,2.43-13.62,3.9a62.76,62.76,0,0,1-13.81,2.91,27.2,27.2,0,0,1-11.36-1.45,19.67,19.67,0,0,1-6.63-4,9.94,9.94,0,0,1-.86-.85c-.25-.26-.45-.48-.6-.67l-.48-.56s.15.21.45.59a8.61,8.61,0,0,0,.58.68,9.92,9.92,0,0,0,.86.87,19.44,19.44,0,0,0,6.63,4.05,27.1,27.1,0,0,0,11.42,1.5,62.2,62.2,0,0,0,13.86-2.9c4.81-1.48,9.35-3,13.6-3.91s8.19-1.14,11.44-1.7a30.8,30.8,0,0,0,4.85-1.14h-.37a32.57,32.57,0,0,1-4.51,1C296.5,326.27,292.57,326.46,288.29,327.38Z" style="fill: rgb(69, 90, 100); transform-origin: 272.775px 329.572px;" id="el8tlbrd8jygi" class="animable"></path><path d="M265.77,326.23a36.77,36.77,0,0,1-5.33.47,34.4,34.4,0,0,1-4.35-.25c-1.24-.16-2.23-.33-2.91-.49l-.78-.17-.28,0a24.63,24.63,0,0,0,3.95.84,30.63,30.63,0,0,0,4.38.3,34.37,34.37,0,0,0,5.35-.45A35.61,35.61,0,0,0,271,325.1l1-.37h-.53l-.51.18A36.39,36.39,0,0,1,265.77,326.23Z" style="fill: rgb(69, 90, 100); transform-origin: 262.06px 325.83px;" id="elr6og5izgpze" class="animable"></path><path d="M386.09,324.73H373.46v9l-1,.09a87,87,0,0,1-20.3-.79,105.67,105.67,0,0,1-11.72-2.62,118.28,118.28,0,0,0-12.59-2.92,32.87,32.87,0,0,0-12.87.34,55.23,55.23,0,0,0-11.13,4.57,78.9,78.9,0,0,1-9.9,4.49,50.73,50.73,0,0,1-5.46,1.58h.74c1.55-.38,3.15-.85,4.78-1.42a79.11,79.11,0,0,0,9.93-4.48A55.53,55.53,0,0,1,315,328a32.45,32.45,0,0,1,12.79-.34,119,119,0,0,1,12.57,2.92,102.86,102.86,0,0,0,11.75,2.61,86.54,86.54,0,0,0,20.33.75l1-.1v4.6h12.63Z" style="fill: rgb(69, 90, 100); transform-origin: 337.29px 331.6px;" id="elo60ne91hkbs" class="animable"></path><path d="M196.34,303.39a21.57,21.57,0,0,0,3.95-1.7c.29-.15.51-.29.7-.41H172.58a53.67,53.67,0,0,0,9.7,2.81A29.49,29.49,0,0,0,196.34,303.39Z" style="fill: rgb(38, 50, 56); transform-origin: 186.785px 302.954px;" id="elfifpaabpqn7" class="animable"></path><path d="M346.73,310.51a38,38,0,0,0-11.5-2.49,63.12,63.12,0,0,0-14.42,1c-5.07.87-9.83,2-14.18,3l-11.55,2.63-1.53.35h60.87l-.76-.62A28.48,28.48,0,0,0,346.73,310.51Z" style="fill: rgb(38, 50, 56); transform-origin: 323.985px 311.477px;" id="el56c4y7o9rs" class="animable"></path><path d="M283.17,306.2a72.78,72.78,0,0,0,19.26,1.34,71.56,71.56,0,0,0,11.29-1.68c3.87-.85,7.85-1.93,12-2.45A36.5,36.5,0,0,1,338,304c3.89.8,7.57,1.88,11.12,2.71A84.21,84.21,0,0,0,368.33,309c1.84,0,3.54-.07,5.13-.16v-7.53H268c.69.32,1.59.71,2.68,1.14A71,71,0,0,0,283.17,306.2Z" style="fill: rgb(38, 50, 56); transform-origin: 320.73px 305.155px;" id="elczjt8zbilvg" class="animable"></path><path d="M141.07,305.78a86.62,86.62,0,0,1,20.34.75,103.34,103.34,0,0,1,11.75,2.61,118.85,118.85,0,0,0,12.56,2.92,32.83,32.83,0,0,0,12.79-.34,55,55,0,0,0,11.09-4.55,80.45,80.45,0,0,1,9.93-4.47,49.07,49.07,0,0,1,4.78-1.42H201.09c-.2.13-.44.29-.76.48a20.54,20.54,0,0,1-3.94,1.77,29.26,29.26,0,0,1-14.15.77,53.49,53.49,0,0,1-10.15-3H127.4V308l.12,0A85.2,85.2,0,0,1,141.07,305.78Z" style="fill: rgb(38, 50, 56); transform-origin: 175.855px 306.905px;" id="elu6asm08taw" class="animable"></path><path d="M368.33,309.11a83.17,83.17,0,0,1-19.23-2.18c-3.56-.83-7.24-1.91-11.12-2.7a36.16,36.16,0,0,0-12.19-.61c-4.17.51-8.15,1.59-12,2.44a70.74,70.74,0,0,1-30.63.28,69.75,69.75,0,0,1-12.48-3.84c-1.15-.47-2.07-.89-2.76-1.22H225.06a50.23,50.23,0,0,0-5.47,1.58,80.22,80.22,0,0,0-9.9,4.49,55.21,55.21,0,0,1-11.13,4.56,32.67,32.67,0,0,1-12.87.35,118.28,118.28,0,0,1-12.59-2.92,103,103,0,0,0-11.72-2.62A88.51,88.51,0,0,0,127.53,308l-.13,0V315h81.47a31,31,0,0,1,4.86-1.14c3.25-.56,7.18-.78,11.43-1.7s8.8-2.43,13.6-3.91a62.43,62.43,0,0,1,13.86-2.9,27.08,27.08,0,0,1,11.42,1.5,19.56,19.56,0,0,1,6.64,4c.33.32.62.61.85.88a7.4,7.4,0,0,1,.59.68c.3.38.45.59.45.59l-.48-.56c-.15-.19-.36-.42-.6-.67s-.53-.55-.87-.86a19.68,19.68,0,0,0-6.63-4,27.15,27.15,0,0,0-11.35-1.45,62.72,62.72,0,0,0-13.82,2.91c-4.8,1.47-9.35,3-13.62,3.9S217,313.47,213.75,314a32.41,32.41,0,0,0-4.5,1h32.26l1-.37a35.15,35.15,0,0,1,5.2-1.34,34.49,34.49,0,0,1,5.36-.45,29.44,29.44,0,0,1,4.38.3,25,25,0,0,1,3.95.84,1.35,1.35,0,0,1-.28,0l-.79-.17c-.68-.16-1.67-.33-2.9-.49a34.69,34.69,0,0,0-4.36-.25,36.64,36.64,0,0,0-5.32.47,38,38,0,0,0-5.18,1.31l-.5.19H293l2.09-.49,11.54-2.67c4.34-1,9.11-2.17,14.18-3a61.88,61.88,0,0,1,14.47-1,37.86,37.86,0,0,1,11.55,2.54,27.79,27.79,0,0,1,6.92,4c.31.25.57.47.81.68h18.94v-6.08C371.87,309,370.17,309.11,368.33,309.11Z" style="fill: rgb(38, 50, 56); transform-origin: 250.45px 308.19px;" id="elryoqrgodxv" class="animable"></path><path d="M346.79,310.37a37.86,37.86,0,0,0-11.55-2.54,61.88,61.88,0,0,0-14.47,1c-5.07.87-9.84,2.05-14.18,3l-11.54,2.67L293,315h.59l1.53-.35L306.63,312c4.35-1,9.11-2.15,14.18-3a63.12,63.12,0,0,1,14.42-1,38,38,0,0,1,11.5,2.49,28.48,28.48,0,0,1,6.93,3.88l.76.62h.1c-.24-.21-.5-.43-.81-.68A27.79,27.79,0,0,0,346.79,310.37Z" style="fill: rgb(69, 90, 100); transform-origin: 323.76px 311.379px;" id="elymjd2vgzprf" class="animable"></path><path d="M141.09,305.93a86.94,86.94,0,0,1,20.29.79,103,103,0,0,1,11.72,2.62,118.28,118.28,0,0,0,12.59,2.92,32.67,32.67,0,0,0,12.87-.35,55.21,55.21,0,0,0,11.13-4.56,80.22,80.22,0,0,1,9.9-4.49,50.23,50.23,0,0,1,5.47-1.58h-.75a49.07,49.07,0,0,0-4.78,1.42,80.45,80.45,0,0,0-9.93,4.47,55,55,0,0,1-11.09,4.55,32.83,32.83,0,0,1-12.79.34,118.85,118.85,0,0,1-12.56-2.92,103.34,103.34,0,0,0-11.75-2.61,86.62,86.62,0,0,0-20.34-.75A85.2,85.2,0,0,0,127.52,308l-.12,0v.09l.13,0A87,87,0,0,1,141.09,305.93Z" style="fill: rgb(69, 90, 100); transform-origin: 176.23px 307.009px;" id="el3brxidk0aq" class="animable"></path><path d="M196.39,303.53a20.54,20.54,0,0,0,3.94-1.77c.32-.19.56-.35.76-.48H201c-.19.12-.41.26-.7.41a21.57,21.57,0,0,1-3.95,1.7,29.49,29.49,0,0,1-14.06.7,53.67,53.67,0,0,1-9.7-2.81h-.49a53.49,53.49,0,0,0,10.15,3A29.26,29.26,0,0,0,196.39,303.53Z" style="fill: rgb(69, 90, 100); transform-origin: 186.595px 303.047px;" id="el737ft3ozjym" class="animable"></path><path d="M225.2,312.36c4.27-.9,8.82-2.43,13.62-3.9a62.72,62.72,0,0,1,13.82-2.91A27.15,27.15,0,0,1,264,307a19.68,19.68,0,0,1,6.63,4c.34.31.63.6.87.86s.45.48.6.67l.48.56s-.15-.21-.45-.59a7.4,7.4,0,0,0-.59-.68c-.23-.27-.52-.56-.85-.88a19.56,19.56,0,0,0-6.64-4,27.08,27.08,0,0,0-11.42-1.5,62.43,62.43,0,0,0-13.86,2.9c-4.8,1.48-9.34,3-13.6,3.91s-8.18,1.14-11.43,1.7a31,31,0,0,0-4.86,1.14h.38a32.41,32.41,0,0,1,4.5-1C217,313.47,220.93,313.27,225.2,312.36Z" style="fill: rgb(69, 90, 100); transform-origin: 240.73px 310.218px;" id="elwb832gohdq" class="animable"></path><path d="M247.73,313.51a36.64,36.64,0,0,1,5.32-.47,34.69,34.69,0,0,1,4.36.25c1.23.16,2.22.33,2.9.49l.79.17a1.35,1.35,0,0,0,.28,0,25,25,0,0,0-3.95-.84,29.44,29.44,0,0,0-4.38-.3,34.49,34.49,0,0,0-5.36.45,35.15,35.15,0,0,0-5.2,1.34l-1,.37h.54l.5-.19A38,38,0,0,1,247.73,313.51Z" style="fill: rgb(69, 90, 100); transform-origin: 251.435px 313.89px;" id="el50l8rij4rxo" class="animable"></path><path d="M373.46,301.28v7.53c-1.59.09-3.29.16-5.13.16a84.21,84.21,0,0,1-19.19-2.23c-3.55-.83-7.23-1.91-11.12-2.71a36.5,36.5,0,0,0-12.25-.62c-4.2.52-8.18,1.6-12,2.45a71.56,71.56,0,0,1-11.29,1.68,72.78,72.78,0,0,1-19.26-1.34,71,71,0,0,1-12.48-3.78c-1.09-.43-2-.82-2.68-1.14h-.11c.69.33,1.61.75,2.76,1.22a69.75,69.75,0,0,0,12.48,3.84,70.74,70.74,0,0,0,30.63-.28c3.87-.85,7.85-1.93,12-2.44a36.16,36.16,0,0,1,12.19.61c3.88.79,7.56,1.87,11.12,2.7a83.17,83.17,0,0,0,19.23,2.18c1.84,0,3.54-.07,5.13-.18V315h12.63V301.28Z" style="fill: rgb(69, 90, 100); transform-origin: 327.035px 308.14px;" id="ela2rdyizdy6o" class="animable"></path></g><g id="freepik--Character--inject-5" class="animable animator-hidden" style="transform-origin: 238.495px 321.054px;"><path d="M261.07,208.17a13,13,0,0,0-20.22,2.55c-1.32,2.2-2,4.74-3,7.1s-2.61,4.68-5,5.57-4.86.27-7.29.61a9.79,9.79,0,0,0-7.88,6.88c-.44,1.56-.49,3.25-1.25,4.67-1.51,2.81-5.15,3.62-7.44,5.83a8.89,8.89,0,0,0-1.69,9.71,11.65,11.65,0,0,0,7.88,6.35,17,17,0,0,0,10.28-.93c3.74-1.49,7.1-4,11.05-4.77,3.17-.62,6.44-.06,9.63.48s6.48,1.06,9.64.35,6.18-3,6.85-6.12" style="fill: rgb(38, 50, 56); transform-origin: 234.587px 231.149px;" id="elzojgyx2jrcf" class="animable"></path><path d="M253.69,240.08s-6,0-16.57,3.15c-9.81,3-15.82-4.2-20.67-5.22a74.82,74.82,0,0,0-12-1L204,247.78s8.68.3,14.11,3.82,13.81,3.68,17.67,2.57,11.63-5.93,18.64-4.74Z" style="fill: rgb(146, 227, 169); transform-origin: 229.21px 245.895px;" id="eluw7nmnd6ubs" class="animable"></path><g id="elcw3dvlcvdei"><path d="M253.69,240.08s-6,0-16.57,3.15c-9.81,3-15.82-4.2-20.67-5.22a74.82,74.82,0,0,0-12-1L204,247.78s8.68.3,14.11,3.82,13.81,3.68,17.67,2.57,11.63-5.93,18.64-4.74Z" style="opacity: 0.2; transform-origin: 229.21px 245.895px;" class="animable"></path></g><path d="M204.4,241a9.85,9.85,0,0,1-6.67-.67,29.8,29.8,0,0,1,3.33.4A29.86,29.86,0,0,1,204.4,241Z" style="fill: rgb(146, 227, 169); transform-origin: 201.065px 240.815px;" id="eluux5amj9m8j" class="animable"></path><path d="M204.41,243.92a8.33,8.33,0,0,1-6.33.21,31.15,31.15,0,0,1,3.17,0C203,244.07,204.37,243.78,204.41,243.92Z" style="fill: rgb(146, 227, 169); transform-origin: 201.245px 244.268px;" id="elbp2mci0v1yd" class="animable"></path><path d="M205.09,246.42a7.11,7.11,0,0,1-6.52,1.09c0-.15,1.51.05,3.31-.26S205,246.28,205.09,246.42Z" style="fill: rgb(146, 227, 169); transform-origin: 201.83px 247.133px;" id="el6rypjx8jwlj" class="animable"></path><path d="M204.9,238.05a5.78,5.78,0,0,1-3.08.64,5.85,5.85,0,0,1-3.09-.58,28.67,28.67,0,0,1,3.09,0C203.5,238.16,204.86,237.91,204.9,238.05Z" style="fill: rgb(146, 227, 169); transform-origin: 201.815px 238.359px;" id="ele4k2z93lqde" class="animable"></path><path d="M232.63,260.89s-6.36,25.55-8.35,24.46c-10.82-5.92-21.55-16.85-25.56-21.15-.15-.58-.31-1.23-.46-2a7.82,7.82,0,0,1-.08-2.6,11.76,11.76,0,0,1,.73-3.16c.45-.89-.39-1.87-1.18-1.46s-2.08,2.84-2.22,6.05-3.08-.83-4.18-2.29-4.7-5.79-5.41-5.8c-1,0-1.24,1.13-.11,2.56s4.22,6,3.44,6.51-6.26-6.93-6.26-6.93-.92-1.8-1.84-1.18c-1.67,1.11,4.74,8.63,5.37,9.33.44.49-.39,1.13-.83.58s-5.31-7.6-7-6.48c-1.3.86,5.22,6.24,5.44,8.27s-4.55-4.59-5.77-3.72c-.45.33-.74.63,2.53,4a104.64,104.64,0,0,0,8.67,7.36c8.66,9.68,40.69,40.82,47.24,24.13,7.79-19.87,6.59-32.71,6.59-32.71Z" style="fill: rgb(230, 187, 172); transform-origin: 210.773px 277.571px;" id="elxcpfuo20q1l" class="animable"></path><path d="M259.85,208.38l1.31-.38a12.61,12.61,0,0,1,6.55,1.07,6.41,6.41,0,0,1,3.64,5.27c.06,2.3-1.45,4.49-1.13,6.77.26,1.89,1.72,3.37,2.67,5a10.5,10.5,0,0,1,0,10.29c-1.22,2.1-3.13,3.7-4.69,5.56s-2.82,4.26-2.33,6.64l-5,.41Z" style="fill: rgb(38, 50, 56); transform-origin: 267.043px 228.471px;" id="elddpu3vxw0hv" class="animable"></path><path d="M211.35,230.42a1.86,1.86,0,0,0-.48,0,1.38,1.38,0,0,0-.94.9,1.45,1.45,0,0,0,.8,1.75,3.49,3.49,0,0,0,2.79.15,6.23,6.23,0,0,0,2.82-2,15.19,15.19,0,0,0,2.13-3.52,31.23,31.23,0,0,1,2.1-4.16,7.26,7.26,0,0,1,3.9-3.19,20.1,20.1,0,0,1,5-.29,6.79,6.79,0,0,0,4.19-1.3,13.39,13.39,0,0,0,2.8-3c.76-1,1.41-2.09,2.06-3a20,20,0,0,1,1.9-2.37,8.93,8.93,0,0,1,1.8-1.42l.75-.38c.23-.09.43-.14.59-.19a1.64,1.64,0,0,1,.49-.11,2,2,0,0,1-.46.21c-.15.07-.34.13-.55.23l-.71.41a9.75,9.75,0,0,0-1.7,1.45,22.59,22.59,0,0,0-1.81,2.38c-.62.92-1.26,2-2,3a13.5,13.5,0,0,1-2.86,3.14,7.39,7.39,0,0,1-2.07,1.07,8.11,8.11,0,0,1-2.4.35,19.9,19.9,0,0,0-4.88.28,6.73,6.73,0,0,0-3.62,3,31.49,31.49,0,0,0-2.09,4.08,15.56,15.56,0,0,1-2.24,3.6,6.58,6.58,0,0,1-3,2.11,3.71,3.71,0,0,1-3-.25,2.05,2.05,0,0,1-.86-1,1.43,1.43,0,0,1,0-1.1,1.45,1.45,0,0,1,1.11-.93A.67.67,0,0,1,211.35,230.42Z" style="fill: rgb(38, 50, 56); transform-origin: 226.87px 221.048px;" id="elsoq6v1otbfm" class="animable"></path><path d="M267.43,242.83a6.4,6.4,0,0,1,1.17-.66c.76-.41,1.88-1,3.17-1.79a12.66,12.66,0,0,0,3.83-3.64,7.2,7.2,0,0,0,1-6.1c-.76-2.16-2.57-3.63-4-5a9.91,9.91,0,0,1-3.07-4.52,4.63,4.63,0,0,1,.5-3.63,3.26,3.26,0,0,1,.68-.75c.2-.13.3-.19.31-.17a6,6,0,0,0-.82,1,4.68,4.68,0,0,0-.32,3.44,9.92,9.92,0,0,0,3.05,4.26c.74.7,1.55,1.41,2.31,2.25a8.47,8.47,0,0,1,1.86,3,6.51,6.51,0,0,1,.16,3.52,8.65,8.65,0,0,1-1.3,3,12.42,12.42,0,0,1-4,3.69,28.05,28.05,0,0,1-3.27,1.66A6.58,6.58,0,0,1,267.43,242.83Z" style="fill: rgb(69, 90, 100); transform-origin: 272.43px 229.698px;" id="el9moyc15vcwf" class="animable"></path><path d="M245.43,211.15c-.06-.05.75-1,1.68-2.78a23.46,23.46,0,0,1,1.86-3.06,6.69,6.69,0,0,1,3.62-2.53,6.53,6.53,0,0,1,4.41.32,6.45,6.45,0,0,1,2.72,2.38,6.29,6.29,0,0,1,.89,2.27,2.55,2.55,0,0,1,0,.89,8.86,8.86,0,0,0-1.23-2.95,6.22,6.22,0,0,0-2.6-2.15,6.29,6.29,0,0,0-4.09-.26,6.38,6.38,0,0,0-3.38,2.33,27.68,27.68,0,0,0-1.91,2.94A8.7,8.7,0,0,1,245.43,211.15Z" style="fill: rgb(38, 50, 56); transform-origin: 253.038px 206.844px;" id="elm76plvqls7" class="animable"></path><path d="M273,247.44h0a29.82,29.82,0,0,0-9.44-2H249.19c-17.18.84-18.76,18.38-18.76,18.38h0L225,283.39s-1.07-2.13-1.66-1.42a1.12,1.12,0,0,0,0,1.42l-23.21-19.95-9.79,11.82s27.45,30.78,41.76,27.63c0,0,4.22-1.31,6.5-7.68a122.08,122.08,0,0,0,3.28-12l.34,6.15-3.58,18.14,41.75,7.91-8.14-24.77L276,265.34l8.89,4.38c-3.4,1.53-5.88,3.88-6.07,8.44H316C317.09,263.25,273,247.44,273,247.44Z" style="fill: rgb(69, 90, 100); transform-origin: 253.18px 280.425px;" id="elqlfl6oooa8q" class="animable"></path><path d="M306.22,267.82a25.55,25.55,0,0,1-3.07-.07,68.4,68.4,0,0,0-7.38.2,62.5,62.5,0,0,0-7.3,1.08,27.61,27.61,0,0,1-3,.59,13.34,13.34,0,0,1,2.93-.95,46.53,46.53,0,0,1,7.34-1.24,45.21,45.21,0,0,1,7.44,0A14,14,0,0,1,306.22,267.82Z" style="fill: rgb(38, 50, 56); transform-origin: 295.845px 268.448px;" id="eliwtgi26baio" class="animable"></path><path d="M243.47,283.92a6.3,6.3,0,0,1-1.65-1.9,13.24,13.24,0,0,1-1.35-11.79,6.7,6.7,0,0,1,1.18-2.23c.08,0-.38.89-.83,2.35a14.35,14.35,0,0,0,1.31,11.47C242.89,283.15,243.53,283.87,243.47,283.92Z" style="fill: rgb(38, 50, 56); transform-origin: 241.569px 275.96px;" id="el79gke285oni" class="animable"></path><path d="M280.38,315.45s-66.61-13.95-73-10.89-30.59,74.84-30.59,74.84l17.43,9L220.85,329s46.63,17,54.78,15.34S280.38,315.45,280.38,315.45Z" style="fill: rgb(38, 50, 56); transform-origin: 228.937px 346.261px;" id="ell6f3oefg1bl" class="animable"></path><path d="M250.61,319.37c-1,.34-39.55,16.18-42.26,21.27s7.55,89.69,8.57,89.59,17.3,0,17.3,0l-1.36-75.13,42.77-10.84Z" style="fill: rgb(38, 50, 56); transform-origin: 241.763px 374.8px;" id="elxrc55quopms" class="animable"></path><path d="M275.85,344.47a2.12,2.12,0,0,1-.58-.06l-1.65-.28-6-1.11c-5.09-1-12.14-2.33-19.82-4.25-3.84-1-7.47-2-10.74-3.09s-6.17-2.15-8.56-3.15-4.32-1.86-5.61-2.52l-1.5-.76a2.11,2.11,0,0,1-.5-.29,2,2,0,0,1,.55.2l1.53.67c1.32.6,3.25,1.41,5.66,2.36s5.32,2,8.58,3,6.88,2.07,10.71,3c7.67,1.93,14.7,3.33,19.77,4.4l6,1.27,1.63.38A2.31,2.31,0,0,1,275.85,344.47Z" style="fill: rgb(69, 90, 100); transform-origin: 248.37px 336.716px;" id="el262ash121xjh" class="animable"></path><path d="M208.36,360.06a5.55,5.55,0,0,1-.21-1.26c-.1-.93-.22-2.09-.37-3.47s-.3-3.24-.48-5.15a23.77,23.77,0,0,1,0-6.37,10,10,0,0,1,3.2-5.52,17.23,17.23,0,0,1,4.39-2.82c1.35-.61,2.48-1,3.26-1.28a6,6,0,0,1,1.23-.35c0,.09-1.7.7-4.33,2a17.3,17.3,0,0,0-4.22,2.83,9.7,9.7,0,0,0-3,5.26,24.6,24.6,0,0,0,0,6.24c.14,1.92.26,3.66.37,5.16s.15,2.55.2,3.48A6.62,6.62,0,0,1,208.36,360.06Z" style="fill: rgb(69, 90, 100); transform-origin: 213.233px 346.95px;" id="el36py2mwtln3" class="animable"></path><path d="M227.58,352.8a15.46,15.46,0,0,1,5.19,2.28,15.46,15.46,0,0,1-5.19-2.28Z" style="fill: rgb(69, 90, 100); transform-origin: 230.175px 353.94px;" id="el690n5neop1g" class="animable"></path><path d="M229.51,350.49a27.86,27.86,0,0,1,1.76,2.47,25.42,25.42,0,0,1,1.89,2.36,7.85,7.85,0,0,1-3.65-4.83Z" style="fill: rgb(69, 90, 100); transform-origin: 231.335px 352.905px;" id="elqi65n6p5sn" class="animable"></path><path d="M205.54,437.44a2.49,2.49,0,0,0,0,1,1.08,1.08,0,0,0,.72.77c.85.28,1.72-.39,2.65-.46,1.17-.07,2.13.83,3.3.82s1.88-.71,2.9-.7c.87,0,1.63.55,2.5.53s1.71-.66,2.65-.64,1.5.55,2.31.63c1.25.13,2.36-.79,3.61-.69,1,.07,1.81.78,2.8.7.75-.06,1.35-.56,2.1-.57a15.3,15.3,0,0,1,1.62.29,3.9,3.9,0,0,0,2.2-.67V437Z" style="fill: rgb(38, 50, 56); transform-origin: 220.195px 438.285px;" id="eleict4vhuvuv" class="animable"></path><polygon points="210.3 395.57 216.99 433.45 234.85 436.53 234.85 394.02 210.3 395.57" style="fill: rgb(146, 227, 169); transform-origin: 222.575px 415.275px;" id="el65e5ls1s6lg" class="animable"></polygon><path d="M217,433.45l-.05-9.19,17.57-.93.34,14.06-1.54.19c-4.75.32-24.17,1.3-27.36.38C202.39,436.93,217,433.45,217,433.45Z" style="fill: rgb(146, 227, 169); transform-origin: 220.129px 430.837px;" id="elmpe2l7qvssm" class="animable"></path><path d="M234.77,427s-.2.22-.71.34a4.21,4.21,0,0,1-2.15-.13c-.88-.25-1.82-.79-2.9-1.14a5.62,5.62,0,0,0-3.61.12c-1.26.4-2.41,1-3.51,1.45a8.36,8.36,0,0,1-3.11.7,4.41,4.41,0,0,1-2.1-.49c-.45-.25-.64-.47-.62-.49a5.39,5.39,0,0,0,2.71.61,8.4,8.4,0,0,0,2.93-.77,38,38,0,0,1,3.54-1.51,6,6,0,0,1,3.92-.08c1.14.41,2,1,2.86,1.25a4.38,4.38,0,0,0,2,.28C234.5,427.11,234.75,427,234.77,427Z" style="fill: rgb(255, 255, 255); transform-origin: 225.414px 426.83px;" id="elvamxi3zgi2h" class="animable"></path><path d="M234.77,420.55s-.17.25-.59.6a8.73,8.73,0,0,1-1.94,1.19,10.16,10.16,0,0,1-7.43.35c-1.41-.49-2.64-1.13-3.8-1.59a9.94,9.94,0,0,0-3.16-.76,6.43,6.43,0,0,0-2.93.6s.2-.24.68-.49a5.07,5.07,0,0,1,2.25-.47,9.33,9.33,0,0,1,3.34.68c1.19.44,2.43,1.07,3.78,1.53a10.31,10.31,0,0,0,7.12-.19A19.34,19.34,0,0,0,234.77,420.55Z" style="fill: rgb(255, 255, 255); transform-origin: 224.845px 421.605px;" id="eltsn61q856e" class="animable"></path><path d="M234.83,415.42a5.48,5.48,0,0,0-3.07-.41,20.82,20.82,0,0,0-3.31.93,9.91,9.91,0,0,1-2,.46,9.14,9.14,0,0,1-2.27-.1c-1.52-.23-2.9-.67-4.17-.85a7.1,7.1,0,0,0-3.34.19,4.34,4.34,0,0,0-1.89,1.22c-.35.41-.48.69-.52.67s0-.32.36-.8a4.28,4.28,0,0,1,1.92-1.44A7.06,7.06,0,0,1,220,415c1.33.16,2.72.58,4.19.81,3,.62,5.46-1,7.51-1.14a4.89,4.89,0,0,1,2.37.29A1.73,1.73,0,0,1,234.83,415.42Z" style="fill: rgb(255, 255, 255); transform-origin: 224.539px 416.081px;" id="elukeag3na21" class="animable"></path><path d="M234.14,408.05s-.29-.14-.82-.31a4.64,4.64,0,0,0-2.34-.06,10.73,10.73,0,0,0-3.26,1.33,14.39,14.39,0,0,1-4.09,1.83,9.07,9.07,0,0,1-4.45-.56,8.28,8.28,0,0,0-3.45-.48,3.55,3.55,0,0,0-2,1c-.37.42-.47.73-.52.71a1.44,1.44,0,0,1,.37-.84,3.53,3.53,0,0,1,2.13-1.26,8.05,8.05,0,0,1,3.65.38,8.89,8.89,0,0,0,4.22.5,14.77,14.77,0,0,0,4-1.73,10.46,10.46,0,0,1,3.43-1.28,4.49,4.49,0,0,1,2.47.24C233.93,407.79,234.16,408,234.14,408.05Z" style="fill: rgb(255, 255, 255); transform-origin: 223.676px 409.358px;" id="elgylj7ubbd9g" class="animable"></path><path d="M234.93,402.53c0,.08-1.3-.42-3.4-1.06a16.94,16.94,0,0,0-3.75-.7,9.05,9.05,0,0,0-4.49.81c-1.48.72-2.75,1.72-4.06,2.41a7.7,7.7,0,0,1-3.81,1,13.9,13.9,0,0,1-2.62-.28,3.1,3.1,0,0,1-.93-.25,4.1,4.1,0,0,1,1,.05,18.22,18.22,0,0,0,2.58.11,7.63,7.63,0,0,0,3.59-1.05c1.25-.69,2.51-1.7,4.07-2.46a9.22,9.22,0,0,1,4.74-.82,15.6,15.6,0,0,1,3.83.83c1.05.36,1.88.71,2.44,1A3.49,3.49,0,0,1,234.93,402.53Z" style="fill: rgb(255, 255, 255); transform-origin: 223.4px 402.62px;" id="el9yo69e2myul" class="animable"></path><path d="M210.7,397.92s.15-.37.73-.69a4.07,4.07,0,0,1,2.73-.27,17,17,0,0,0,3.88.74,13.66,13.66,0,0,0,4.67-1.07c1.61-.62,3.13-1.3,4.62-1.71a9.5,9.5,0,0,1,4-.32,6,6,0,0,1,2.55,1c.53.39.74.68.72.7a7,7,0,0,0-3.32-1.32,9.35,9.35,0,0,0-3.87.42c-1.43.41-2.93,1.1-4.57,1.73a13.35,13.35,0,0,1-4.85,1.06,15.49,15.49,0,0,1-4-.86,4.16,4.16,0,0,0-2.56.09A5.11,5.11,0,0,0,210.7,397.92Z" style="fill: rgb(255, 255, 255); transform-origin: 222.651px 396.353px;" id="elnvtx5os0ed" class="animable"></path><path d="M234.83,432.74s-.16.27-.66.42a3.2,3.2,0,0,1-2.1-.23,6.81,6.81,0,0,0-2.81-.86,8.58,8.58,0,0,0-3.37,1.27,8.51,8.51,0,0,1-3.66,1.09,8.29,8.29,0,0,1-3.09-.42,6.93,6.93,0,0,1-1.88-.93c-.4-.28-.59-.48-.57-.51a16.4,16.4,0,0,0,2.56,1.09,8.39,8.39,0,0,0,6.41-.78,8.43,8.43,0,0,1,3.59-1.29,6.7,6.7,0,0,1,3,1,3.3,3.3,0,0,0,1.91.37A4.66,4.66,0,0,0,234.83,432.74Z" style="fill: rgb(255, 255, 255); transform-origin: 225.759px 433.016px;" id="elv0389d97p48" class="animable"></path><path d="M161.46,388.92a2.33,2.33,0,0,0-.47.86,1.12,1.12,0,0,0,.3,1c.63.64,1.72.43,2.57.79,1.08.45,1.53,1.69,2.58,2.21s2,.21,2.91.69,1.21,1.21,2,1.59,1.83.18,2.65.62,1.09,1.17,1.79,1.61c1.05.68,2.46.35,3.53,1,.85.52,1.27,1.52,2.19,1.89.69.28,1.45.11,2.13.43.5.24.83.71,1.31,1a4,4,0,0,0,2.26.39l.65-1.29Z" style="fill: rgb(38, 50, 56); transform-origin: 174.415px 395.974px;" id="eleq2btzzo669" class="animable"></path><polygon points="184.56 353.67 173.47 390.51 188.04 401.3 207.18 363.34 184.56 353.67" style="fill: rgb(146, 227, 169); transform-origin: 190.325px 377.485px;" id="el4q0imqfvjiw" class="animable"></polygon><path d="M173.47,390.51l4.1-8.24,16.1,7.08-6,12.72-1.46-.53c-4.39-1.85-22.17-9.72-24.6-12C158.88,387,173.47,390.51,173.47,390.51Z" style="fill: rgb(146, 227, 169); transform-origin: 177.47px 392.17px;" id="elm40x5003d1" class="animable"></path><path d="M192.25,392.77a1.32,1.32,0,0,1-.79,0,4.15,4.15,0,0,1-1.86-1.09c-.68-.62-1.27-1.53-2.08-2.33a5.61,5.61,0,0,0-3.27-1.51c-1.31-.22-2.61-.18-3.8-.29a8,8,0,0,1-3.08-.78,4.37,4.37,0,0,1-1.66-1.37c-.29-.43-.36-.71-.33-.72a5.4,5.4,0,0,0,2.14,1.76,8.54,8.54,0,0,0,3,.63c1.16.08,2.46,0,3.84.25a6,6,0,0,1,3.53,1.69c.84.88,1.39,1.79,2,2.4a4.33,4.33,0,0,0,1.66,1.16C192,392.73,192.25,392.72,192.25,392.77Z" style="fill: rgb(255, 255, 255); transform-origin: 183.812px 388.755px;" id="el3c18lafoa8q" class="animable"></path><path d="M195.16,387a2.11,2.11,0,0,1-.79.27,8.77,8.77,0,0,1-2.28.19,10.16,10.16,0,0,1-6.79-3c-1-1.06-1.84-2.19-2.67-3.12a9.83,9.83,0,0,0-2.49-2.1,6.41,6.41,0,0,0-2.88-.79,1.81,1.81,0,0,1,.83-.12,5.09,5.09,0,0,1,2.22.58A9.58,9.58,0,0,1,183,381c.87.94,1.69,2.06,2.69,3.08a10.36,10.36,0,0,0,6.45,3A19.63,19.63,0,0,0,195.16,387Z" style="fill: rgb(255, 255, 255); transform-origin: 186.21px 382.896px;" id="elbeskn20e1n" class="animable"></path><path d="M197.52,382.44a5.35,5.35,0,0,0-2.55-1.75,21.54,21.54,0,0,0-3.38-.66,10.2,10.2,0,0,1-2-.52,8.79,8.79,0,0,1-2-1.1c-1.25-.9-2.29-1.9-3.34-2.64a7,7,0,0,0-3.07-1.34,4.43,4.43,0,0,0-2.23.24c-.5.21-.74.41-.77.37s.18-.27.68-.55a4.19,4.19,0,0,1,2.36-.42,6.91,6.91,0,0,1,3.3,1.31c1.11.74,2.17,1.74,3.37,2.61,2.38,1.89,5.34,1.52,7.22,2.36a4.92,4.92,0,0,1,2,1.33A1.65,1.65,0,0,1,197.52,382.44Z" style="fill: rgb(255, 255, 255); transform-origin: 187.849px 378.241px;" id="eldubtulj6nfu" class="animable"></path><path d="M200.23,375.55s-.2-.26-.6-.65a4.72,4.72,0,0,0-2.06-1.11,10.63,10.63,0,0,0-3.51-.27,14.35,14.35,0,0,1-4.47-.22,9.11,9.11,0,0,1-3.73-2.49,8.07,8.07,0,0,0-2.87-2,3.53,3.53,0,0,0-2.29,0c-.51.2-.75.43-.78.4s.17-.31.7-.58a3.52,3.52,0,0,1,2.48-.17,8.13,8.13,0,0,1,3.09,2,8.88,8.88,0,0,0,3.54,2.35,14.8,14.8,0,0,0,4.32.24,10.21,10.21,0,0,1,3.63.4,4.6,4.6,0,0,1,2.1,1.32A1.86,1.86,0,0,1,200.23,375.55Z" style="fill: rgb(255, 255, 255); transform-origin: 190.074px 371.93px;" id="elgse6b9cone8" class="animable"></path><path d="M203.42,371c-.07,0-1-1-2.56-2.48a16.65,16.65,0,0,0-3-2.32,9.11,9.11,0,0,0-4.38-1.29c-1.64,0-3.23.29-4.71.32a7.78,7.78,0,0,1-3.85-.82,14.21,14.21,0,0,1-2.21-1.43c-.49-.38-.74-.61-.72-.64a3.5,3.5,0,0,1,.83.47,18.41,18.41,0,0,0,2.26,1.26,7.54,7.54,0,0,0,3.67.68c1.43-.05,3-.39,4.74-.36a9.24,9.24,0,0,1,4.61,1.4,15.14,15.14,0,0,1,3,2.46c.78.8,1.36,1.48,1.75,2S203.45,371,203.42,371Z" style="fill: rgb(255, 255, 255); transform-origin: 192.706px 366.67px;" id="el8323ol8hn6" class="animable"></path><path d="M183.85,356a1.47,1.47,0,0,1,1-.29,4.06,4.06,0,0,1,2.56,1,16.49,16.49,0,0,0,3.13,2.4,13.63,13.63,0,0,0,4.64,1.16c1.72.17,3.4.24,4.9.55a9.51,9.51,0,0,1,3.76,1.53,5.89,5.89,0,0,1,1.84,2,2.49,2.49,0,0,1,.33.95,7,7,0,0,0-2.38-2.68,9.45,9.45,0,0,0-3.64-1.37c-1.46-.27-3.11-.33-4.86-.51a13.32,13.32,0,0,1-4.81-1.24,15.19,15.19,0,0,1-3.14-2.54,4.1,4.1,0,0,0-2.33-1.08A5.49,5.49,0,0,0,183.85,356Z" style="fill: rgb(255, 255, 255); transform-origin: 194.93px 360.503px;" id="elpk1ogdjfe8g" class="animable"></path><path d="M189.72,397.91s-.26.16-.78.07a3.29,3.29,0,0,1-1.77-1.15,6.63,6.63,0,0,0-2.11-2,8.53,8.53,0,0,0-3.59-.38,8.6,8.6,0,0,1-3.75-.68,8.39,8.39,0,0,1-2.58-1.76,7.24,7.24,0,0,1-1.26-1.68c-.23-.44-.31-.7-.28-.71a18,18,0,0,0,1.79,2.12,8.44,8.44,0,0,0,6.08,2.19,8.39,8.39,0,0,1,3.79.46,6.66,6.66,0,0,1,2.19,2.23,3.33,3.33,0,0,0,1.54,1.19C189.44,397.92,189.71,397.86,189.72,397.91Z" style="fill: rgb(255, 255, 255); transform-origin: 181.657px 393.814px;" id="el4zudf3qqf0f" class="animable"></path><path d="M257.59,254.1h0a6.62,6.62,0,0,1-6.62-6.77c.09-3.76.2-7.64.2-7.64s-6.36-1-6.44-7.35,1-21,1-21h0c7.36-3.16,14.31-2.29,20.67,2.6h0l-2.24,33.94A6.62,6.62,0,0,1,257.59,254.1Z" style="fill: rgb(230, 187, 172); transform-origin: 255.563px 231.791px;" id="elliq2ujqazt9" class="animable"></path><path d="M248.28,222.19a.92.92,0,0,0,.07-1.3.92.92,0,1,0-.07,1.3Z" style="fill: rgb(38, 50, 56); transform-origin: 247.666px 221.505px;" id="el2k11uq2tcym" class="animable"></path><path d="M245.68,220.85c.1.11.72-.37,1.6-.37s1.51.44,1.61.33,0-.25-.33-.46a2.1,2.1,0,0,0-1.29-.4,2.13,2.13,0,0,0-1.27.43C245.73,220.6,245.63,220.8,245.68,220.85Z" style="fill: rgb(38, 50, 56); transform-origin: 247.297px 220.408px;" id="el718wq1v5zi3" class="animable"></path><path d="M256.85,221.44a.92.92,0,1,0,1.28.3A.93.93,0,0,0,256.85,221.44Z" style="fill: rgb(38, 50, 56); transform-origin: 257.343px 222.219px;" id="el21azzlq467y" class="animable"></path><path d="M255.22,221.62c.1.11.72-.37,1.6-.37s1.51.45,1.61.33-.05-.24-.33-.46a2.1,2.1,0,0,0-1.29-.4,2.17,2.17,0,0,0-1.27.43C255.26,221.37,255.17,221.57,255.22,221.62Z" style="fill: rgb(38, 50, 56); transform-origin: 256.834px 221.178px;" id="elpkcj7fr4d5" class="animable"></path><path d="M251.68,228.85a4.05,4.05,0,0,0-1.41-.3c-.23,0-.41-.08-.43-.2a1.34,1.34,0,0,1,.16-.66l.7-1.78a24.72,24.72,0,0,0,1.5-4.68,24.73,24.73,0,0,0-2,4.51c-.23.62-.44,1.21-.66,1.79a1.48,1.48,0,0,0-.12.95.59.59,0,0,0,.39.37,1.24,1.24,0,0,0,.4.05A4.24,4.24,0,0,0,251.68,228.85Z" style="fill: rgb(38, 50, 56); transform-origin: 250.795px 225.086px;" id="elukb10y42j6" class="animable"></path><path d="M254.53,229.82c.91-.55-2.51,1.33-4.3,1.25a2.43,2.43,0,0,0,2.86,1C255,231.33,254.53,229.82,254.53,229.82Z" style="fill: rgb(255, 255, 255); transform-origin: 252.456px 230.963px;" id="el7nma5frc976" class="animable"></path><path d="M251.16,239.6a14.88,14.88,0,0,0,8.3-2.36s-2,4.58-8.31,4Z" style="fill: rgb(216, 136, 118); transform-origin: 255.305px 239.265px;" id="el0aq2v0jit0a8" class="animable"></path><path d="M264.67,240.69s-2.58,6.75-8,6a6.14,6.14,0,0,1-5.61-5.66s-1.19,0-1.4,1.84,0,8.18,0,8.18,1,5.5,7.51,5.13,8.33-5.11,8.39-5.5C265.73,249.61,266.43,239.27,264.67,240.69Z" style="fill: rgb(146, 227, 169); transform-origin: 257.704px 248.377px;" id="elw7v4yymo2hp" class="animable"></path><path d="M264.67,240.69s-2.14,25.8-9.09,39.78-7.92,15.13-7.92,15.13l7.92,4.91s7.78-14.74,10.85-23.47C270.26,266.14,267,239.77,264.67,240.69Z" style="fill: rgb(146, 227, 169); transform-origin: 257.927px 270.588px;" id="elzlinuojivqp" class="animable"></path><path d="M264.63,240a9.23,9.23,0,0,1-.09,2.17c-.12,1.33-.32,3.15-.57,5.17s-.51,3.83-.73,5.15a9.25,9.25,0,0,1-.45,2.12,9.14,9.14,0,0,1,.09-2.16c.12-1.33.32-3.16.57-5.18s.51-3.84.73-5.16A8.89,8.89,0,0,1,264.63,240Z" style="fill: rgb(38, 50, 56); transform-origin: 263.71px 247.305px;" id="elvgcbbywmovf" class="animable"></path><path d="M249.57,251.19a5,5,0,0,1-.28-1.66,26.74,26.74,0,0,1-.1-4.06,16.4,16.4,0,0,1,.27-2.23,5.56,5.56,0,0,1,.57-1.78,1.88,1.88,0,0,1,1-.86c.3-.11.47-.07.47,0a2.32,2.32,0,0,0-1.11,1.07,6.5,6.5,0,0,0-.42,1.69c-.1.67-.18,1.4-.22,2.18C249.57,248.62,249.74,251.18,249.57,251.19Z" style="fill: rgb(38, 50, 56); transform-origin: 250.327px 245.861px;" id="elbaq1eppvre8" class="animable"></path><path d="M269.16,212.88a4.56,4.56,0,0,0-1.9-2,20.57,20.57,0,0,0-5.95-2.62c-1.32-.34-2.92-.47-3.88.47a1.21,1.21,0,0,0,.05.18l-11.81.65-4.48,6.76,0,9a8,8,0,0,0,5.13-4.77c.7-1.86.88-4.23,2.64-5.17,1.39-.74,3.07-.17,4.64-.13a6.78,6.78,0,0,0,5.37-2.69,14.2,14.2,0,0,0,4.21,4.55,4.59,4.59,0,0,1,1.17,1,4.4,4.4,0,0,1,.24,3.76c-2.73,9.65.54,17.71,2.8,18.8.37-4.28,1.52-21.23,1.89-25.51A5.09,5.09,0,0,0,269.16,212.88Z" style="fill: rgb(38, 50, 56); transform-origin: 255.273px 224.338px;" id="elxmh1gispnk" class="animable"></path><path d="M257.34,208.82l.09-.08c0-.08-.05-.17-.07-.26Z" style="fill: rgb(69, 90, 100); transform-origin: 257.385px 208.65px;" id="elwsy4w50urxm" class="animable"></path><path d="M285.48,273.09c-1.91-.54-3.87,1.31-4.44,2.15l-1.71,1.4a22.23,22.23,0,0,1-3.42,2.92,6.4,6.4,0,0,1-2,1,9.83,9.83,0,0,1-2.73.51.86.86,0,0,0-.73,1.46c.6.5,2.95.69,5.52-.32s.43,2.77-.32,4.16-2.87,5.8-2.62,6.37c.36.83,1.32.6,2-.8s3.16-5.48,3.88-5-3.22,7.45-3.22,7.45-1.08,1.36-.27,1.89c1.46,1,5.08-6.83,5.4-7.57.23-.53,1-.08.75.46S277.54,296,279,297c1.13.75,3-6.37,4.55-7.25s-2,5.25-.88,5.93c.42.25.76.38,2.27-3.43s4-15.18,4-15.18C289,275,287.61,273.68,285.48,273.09Z" style="fill: rgb(230, 187, 172); transform-origin: 279.57px 285.024px;" id="el3viiyepj3uo" class="animable"></path></g><defs>     <filter id="active" height="200%">         <feMorphology in="SourceAlpha" result="DILATED" operator="dilate" radius="2"></feMorphology>                <feFlood flood-color="#32DFEC" flood-opacity="1" result="PINK"></feFlood>        <feComposite in="PINK" in2="DILATED" operator="in" result="OUTLINE"></feComposite>        <feMerge>            <feMergeNode in="OUTLINE"></feMergeNode>            <feMergeNode in="SourceGraphic"></feMergeNode>        </feMerge>    </filter>    <filter id="hover" height="200%">        <feMorphology in="SourceAlpha" result="DILATED" operator="dilate" radius="2"></feMorphology>                <feFlood flood-color="#ff0000" flood-opacity="0.5" result="PINK"></feFlood>        <feComposite in="PINK" in2="DILATED" operator="in" result="OUTLINE"></feComposite>        <feMerge>            <feMergeNode in="OUTLINE"></feMergeNode>            <feMergeNode in="SourceGraphic"></feMergeNode>        </feMerge>            <feColorMatrix type="matrix" values="0   0   0   0   0                0   1   0   0   0                0   0   0   0   0                0   0   0   1   0 "></feColorMatrix>    </filter></defs></svg>