<svg class="animated" id="freepik_stories-autumn" xmlns="http://www.w3.org/2000/svg" viewBox="0 0 500 500" version="1.1" xmlns:xlink="http://www.w3.org/1999/xlink" xmlns:svgjs="http://svgjs.com/svgjs"><style>svg#freepik_stories-autumn:not(.animated) .animable {opacity: 0;}svg#freepik_stories-autumn.animated #freepik--Leaves--inject-1 {animation: 1s 1 forwards cubic-bezier(.36,-0.01,.5,1.38) fadeIn;animation-delay: 0s;}            @keyframes fadeIn {                0% {                    opacity: 0;                }                100% {                    opacity: 1;                }            }        .animator-hidden { display: none; }</style><g id="freepik--background-complete--inject-1" class="animable animator-hidden" style="transform-origin: 250px 226.445px;"><rect y="382.4" width="500" height="0.25" style="fill: rgb(230, 230, 230); transform-origin: 250px 382.525px;" id="elqz4jq6lsqd" class="animable"></rect><rect x="85.91" y="392.99" width="33.74" height="0.25" style="fill: rgb(230, 230, 230); transform-origin: 102.78px 393.115px;" id="elhwmc6bjg1io" class="animable"></rect><rect x="58.55" y="393.11" width="20.02" height="0.25" style="fill: rgb(230, 230, 230); transform-origin: 68.56px 393.235px;" id="el0l0wvxk7514" class="animable"></rect><rect x="124.56" y="397.64" width="94.79" height="0.25" style="fill: rgb(230, 230, 230); transform-origin: 171.955px 397.765px;" id="el4ppny11perk" class="animable"></rect><rect x="253.65" y="388.97" width="36.46" height="0.25" style="fill: rgb(230, 230, 230); transform-origin: 271.88px 389.095px;" id="ellr847n0i9fg" class="animable"></rect><rect x="335" y="391.19" width="78.67" height="0.25" style="fill: rgb(230, 230, 230); transform-origin: 374.335px 391.315px;" id="elmxecxejhp0m" class="animable"></rect><path d="M237,337.8H43.91a5.71,5.71,0,0,1-5.7-5.71V60.66A5.71,5.71,0,0,1,43.91,55H237a5.71,5.71,0,0,1,5.71,5.71V332.09A5.71,5.71,0,0,1,237,337.8ZM43.91,55.2a5.46,5.46,0,0,0-5.45,5.46V332.09a5.46,5.46,0,0,0,5.45,5.46H237a5.47,5.47,0,0,0,5.46-5.46V60.66A5.47,5.47,0,0,0,237,55.2Z" style="fill: rgb(230, 230, 230); transform-origin: 140.46px 196.4px;" id="elkgnjx46hy7r" class="animable"></path><path d="M453.31,337.8H260.21a5.72,5.72,0,0,1-5.71-5.71V60.66A5.72,5.72,0,0,1,260.21,55h193.1A5.71,5.71,0,0,1,459,60.66V332.09A5.71,5.71,0,0,1,453.31,337.8ZM260.21,55.2a5.47,5.47,0,0,0-5.46,5.46V332.09a5.47,5.47,0,0,0,5.46,5.46h193.1a5.47,5.47,0,0,0,5.46-5.46V60.66a5.47,5.47,0,0,0-5.46-5.46Z" style="fill: rgb(230, 230, 230); transform-origin: 356.75px 196.4px;" id="eliviaspxlc9" class="animable"></path><path d="M335,382.4H296.66s-23.63-23-31.32-53.87c-3.54-14.21,13.88-24,24.43-13.88C314.47,338.44,335,382.4,335,382.4Z" style="fill: rgb(250, 250, 250); transform-origin: 299.937px 346.445px;" id="elgkv0iy1qa6" class="animable"></path><path d="M351.2,382.4H312.82S290.87,333,299.35,297c2.94-12.47,17.21-16.32,25.11-6.79C353.5,325.24,351.2,382.4,351.2,382.4Z" style="fill: rgb(235, 235, 235); transform-origin: 324.322px 333.64px;" id="eliibrvkgc80s" class="animable"></path><path d="M351.24,382.4H376s15.55-30,30.15-66.92c13.6-34.41-9.6-48.79-24.17-15C363.46,343.54,351.24,382.4,351.24,382.4Z" style="fill: rgb(240, 240, 240); transform-origin: 380.755px 331.826px;" id="eljo4adj7zpc" class="animable"></path><path d="M358,382.4H396.4s38.65-20,36.49-58a14.56,14.56,0,0,0-20.09-12.53C371.6,329.22,358,382.4,358,382.4Z" style="fill: rgb(235, 235, 235); transform-origin: 395.489px 346.583px;" id="elzs20kw174f" class="animable"></path><path d="M336.47,382.4h38.38s11.6-70.16-2.15-114.36c-4.11-13.2-18.71-15.51-25.44-4C322.25,306.68,336.47,382.4,336.47,382.4Z" style="fill: rgb(245, 245, 245); transform-origin: 355.934px 319.512px;" id="elzxn19aav48" class="animable"></path><path d="M222.18,382.33h-37.9c-19.75-13.6-30.74-50.05-3-89.65a138.17,138.17,0,0,1,17.21-19.93C209.05,328.37,254.35,365.83,222.18,382.33Z" style="fill: rgb(245, 245, 245); transform-origin: 199.067px 327.54px;" id="elggo0eqrbjt9" class="animable"></path><path d="M245.93,382.33H208c-17.59-10.05-22.77-37,11.32-66.26a162.18,162.18,0,0,1,20.39-14.74C241.39,342.45,280.73,370.13,245.93,382.33Z" style="fill: rgb(245, 245, 245); transform-origin: 227.232px 341.83px;" id="elirljcq9s5q" class="animable"></path><path d="M167.93,382.33H101.34a42.92,42.92,0,0,1-3.09-3.83C85,359,114.93,342.85,103.06,325.63c-8-12-17.5-25.53-12.41-39.81s13.83-24.93,10.61-40.14c-3.85-18.24.89-40,12-38.2s21.75,15.16,18.61,32.84c-2.9,17.12,7.41,22.59,16.51,31.69.33.34.65.67,1,1,8.23,9,10.08,21.87,9.89,34.53,0,20.72,27.49,16.79,31.78,34.8C194.59,355.89,184.22,373,167.93,382.33Z" style="fill: rgb(235, 235, 235); transform-origin: 140.48px 294.853px;" id="el3jdo6d8m57n" class="animable"></path><path d="M49.85,136A6.38,6.38,0,0,0,51.53,137a1.39,1.39,0,0,0,1.79-.61,3.2,3.2,0,0,0,.11-2.24c-.29-1.67-1.11-3.18-1.37-4.85a3.63,3.63,0,0,1,.47-2.51c.68-1.12,1.86-.81,2.71-.06,3.15,2.81,3.65-7,6.47-4.47s-1.27,8.93,2.13,8.65,2.89,3.62,1,4.55S58.86,140,63,140.92s1.6,5.12-2.2,6.33c-6.08,1.94-8.38,1.78-8.38,1.78a20,20,0,0,1-5.63-7,7.59,7.59,0,0,1-.6-4.83c.26-1.15,1-2.38,2.37-2A4.08,4.08,0,0,1,49.85,136Z" style="fill: rgb(245, 245, 245); transform-origin: 56.1812px 135.436px;" id="elcf42ie945a" class="animable"></path><path d="M396.85,123.34a6.29,6.29,0,0,0,1.2-1.58,1.38,1.38,0,0,0-.45-1.84,3.27,3.27,0,0,0-2.22-.3c-1.69.15-3.26.84-4.95,1a3.67,3.67,0,0,1-2.46-.68c-1.06-.77-.65-1.92.17-2.7,3.07-2.9-6.71-4.24-3.91-6.83s8.79,2,8.8-1.39,3.85-2.57,4.62-.56,3.94,6.29,5.26,2.27,5.24-1.16,6.12,2.73c1.42,6.22,1.07,8.5,1.07,8.5a20,20,0,0,1-7.46,5,7.63,7.63,0,0,1-4.86.19c-1.12-.36-2.28-1.22-1.77-2.53A4.09,4.09,0,0,1,396.85,123.34Z" style="fill: rgb(245, 245, 245); transform-origin: 396.929px 117.086px;" id="elkb74ry8s3k" class="animable"></path><path d="M104.22,71.06a6.47,6.47,0,0,0,1.17,1.6,1.37,1.37,0,0,0,1.89.08,3.21,3.21,0,0,0,.92-2c.33-1.66.12-3.37.48-5A3.66,3.66,0,0,1,110,63.52c1-.8,2-.08,2.54.92,1.92,3.77,6-5.23,7.66-1.82s-4.42,7.86-1.16,8.84,1.38,4.42-.77,4.59-7.14,2-3.66,4.4-.37,5.35-4.35,5.1c-6.37-.4-8.46-1.38-8.46-1.38a20.06,20.06,0,0,1-2.7-8.57,7.63,7.63,0,0,1,1.19-4.72c.66-1,1.82-1.84,2.93-1A4.36,4.36,0,0,1,104.22,71.06Z" style="fill: rgb(245, 245, 245); transform-origin: 109.937px 73.6987px;" id="el1wy1c0sxlp2" class="animable"></path><path d="M436.3,208.5S446.68,206,446.55,202s-7.72,1.06-5.69-2.36,3.54-6.92,1.68-8.74-5.57.8-6.87,5.66-2.68-.48-6.12,1C426.59,198.89,428.32,206.9,436.3,208.5Z" style="fill: rgb(245, 245, 245); transform-origin: 437.373px 199.41px;" id="el3ikg40zztlg" class="animable"></path><path d="M218.27,88.86s10.38-2.53,10.25-6.46-7.72,1.06-5.7-2.36,3.55-6.92,1.69-8.74-5.57.81-6.88,5.66-2.67-.48-6.12,1C208.56,79.25,210.29,87.26,218.27,88.86Z" style="fill: rgb(245, 245, 245); transform-origin: 219.341px 79.7905px;" id="elde2six52xsp" class="animable"></path><path d="M303.2,156.22s-.7-10.66,3.08-11.72,1.31,7.69,4,4.73,5.53-5.46,7.82-4.24.91,5.56-3.33,8.26,1.26,2.41.88,6.14C315.29,162.6,307.13,163.35,303.2,156.22Z" style="fill: rgb(245, 245, 245); transform-origin: 311.173px 153.074px;" id="el34eek719l8m" class="animable"></path><path d="M447.24,294.16s-8.58-6.38-6.93-9.94,6.7,4,6.17,0-.57-7.76,1.84-8.71,4.82,2.91,4.14,7.89,2.64.6,5.24,3.32C459.93,289.08,455.21,295.79,447.24,294.16Z" style="fill: rgb(245, 245, 245); transform-origin: 449.176px 284.889px;" id="elpaby1xtdqx" class="animable"></path><path d="M135.62,122.09s10.67-.63,11.25-4.51-7.79-.35-5.18-3.35,4.73-6.17,3.23-8.29-5.63-.21-7.79,4.33-2.54-1-6.2-.1C127.8,110.89,128.06,119.08,135.62,122.09Z" style="fill: rgb(245, 245, 245); transform-origin: 137.972px 113.583px;" id="elt36ks3hdel" class="animable"></path><path d="M58.54,245.71s10.6-1.34,10.92-5.25-7.79.17-5.39-3S68.38,231,66.75,229s-5.63.16-7.48,4.83-2.6-.78-6.2.31C50,235.05,50.8,243.2,58.54,245.71Z" style="fill: rgb(245, 245, 245); transform-origin: 60.4348px 236.982px;" id="elhl225oexgc" class="animable"></path><path d="M304.35,84.91s-4.32-7.63-16.15-3C288.2,81.9,294.86,90.92,304.35,84.91Z" style="fill: rgb(245, 245, 245); transform-origin: 296.275px 83.697px;" id="el8r7inrsfyue" class="animable"></path><path d="M358.54,78.7s.11-8.76-12.44-10.75C346.1,68,347.32,79.11,358.54,78.7Z" style="fill: rgb(245, 245, 245); transform-origin: 352.32px 73.3305px;" id="ellgtr187n0sc" class="animable"></path><path d="M161.73,260.1a6.46,6.46,0,0,0,1.52-1.28,1.38,1.38,0,0,0,0-1.89,3.24,3.24,0,0,0-2.1-.78c-1.68-.23-3.37.1-5-.16a3.59,3.59,0,0,1-2.24-1.21c-.87-1-.22-2,.76-2.59,3.63-2.15-5.61-5.62-2.31-7.53s8.12,3.91,8.89.59,4.32-1.66,4.63.47,2.46,7,4.63,3.38,5.36,0,5.37,4c0,6.38-.84,8.53-.84,8.53a20.07,20.07,0,0,1-8.38,3.25,7.64,7.64,0,0,1-4.78-.89c-1-.59-2-1.69-1.18-2.86A4.23,4.23,0,0,1,161.73,260.1Z" style="fill: rgb(245, 245, 245); transform-origin: 163.757px 254.161px;" id="elgcrse0dwkmu" class="animable"></path><path d="M175.08,222.89s.11-8.77-12.43-10.75C162.65,212.14,163.86,223.29,175.08,222.89Z" style="fill: rgb(245, 245, 245); transform-origin: 168.865px 217.52px;" id="elm8e8g7wa2b" class="animable"></path><path d="M428.19,78.43s8.5,2.17,13.37-9.56C441.56,68.87,430.44,67.43,428.19,78.43Z" style="fill: rgb(245, 245, 245); transform-origin: 434.875px 73.6981px;" id="el5pwujgd94" class="animable"></path><path d="M378.41,165.22s8.2,3.12,14.37-8C392.78,157.24,381.89,154.54,378.41,165.22Z" style="fill: rgb(245, 245, 245); transform-origin: 385.595px 161.276px;" id="eltm9lvckubu8" class="animable"></path><path d="M91.3,207.17s7.45,4.62,15.62-5.11C106.92,202.06,96.74,197.34,91.3,207.17Z" style="fill: rgb(245, 245, 245); transform-origin: 99.11px 204.597px;" id="eldg510d19upa" class="animable"></path><path d="M123.71,164.9s8.6,1.73,12.87-10.23C136.58,154.67,125.4,153.79,123.71,164.9Z" style="fill: rgb(245, 245, 245); transform-origin: 130.145px 159.82px;" id="elbkjj8vtkkbw" class="animable"></path><path d="M44,89.58s5.51,6.82,16.44.34C60.44,89.92,52.39,82.11,44,89.58Z" style="fill: rgb(245, 245, 245); transform-origin: 52.22px 89.5302px;" id="elhkjew02uhes" class="animable"></path><path d="M354.12,215.18s-7.93,3.75-4.2,15.89C349.92,231.07,359.41,225.08,354.12,215.18Z" style="fill: rgb(245, 245, 245); transform-origin: 352.323px 223.125px;" id="elsk07uf6n97c" class="animable"></path><path d="M305.3,236.62s-8.74.69-9.57,13.37C295.73,250,306.73,247.76,305.3,236.62Z" style="fill: rgb(245, 245, 245); transform-origin: 300.579px 243.305px;" id="elqle7gjjrfb" class="animable"></path><path d="M299.9,200.6c6.31,2.59,10.6-4.87,8.84-15.59C301.14,186.56,289,196.11,299.9,200.6Z" style="fill: rgb(245, 245, 245); transform-origin: 302.347px 193.063px;" id="elfx7l30vpdf9" class="animable"></path><path d="M196.59,116.89c1.76-6.59-6.2-9.89-16.6-6.76C182.51,117.47,193.55,128.28,196.59,116.89Z" style="fill: rgb(245, 245, 245); transform-origin: 188.412px 115.393px;" id="elb0urzuogjvb" class="animable"></path><path d="M208.93,158.28a6.34,6.34,0,0,0,2,0,1.37,1.37,0,0,0,1.22-1.44,3.21,3.21,0,0,0-1.06-2c-1.11-1.27-2.59-2.15-3.68-3.44a3.66,3.66,0,0,1-.89-2.39c0-1.31,1.18-1.66,2.29-1.45,4.15.78-.51-7.92,3.23-7.17s3.53,8.3,6.29,6.31,4.34,1.61,3.17,3.41-2.78,6.88,1.24,5.59,4,3.56,1.38,6.56c-4.21,4.8-6.25,5.86-6.25,5.86a20.14,20.14,0,0,1-8.44-3.1,7.66,7.66,0,0,1-3-3.83c-.37-1.11-.35-2.56,1-2.92A4.26,4.26,0,0,1,208.93,158.28Z" style="fill: rgb(245, 245, 245); transform-origin: 216.086px 154.232px;" id="eloqdolum0zin" class="animable"></path><path d="M202.57,233.36s8.6,1.74,12.87-10.22C215.44,223.14,204.26,222.26,202.57,233.36Z" style="fill: rgb(245, 245, 245); transform-origin: 209.005px 228.286px;" id="el891nyzyrpvn" class="animable"></path><path d="M288.48,123.34c1.75-6.59-6.2-9.89-16.6-6.76C274.4,123.92,285.44,134.73,288.48,123.34Z" style="fill: rgb(245, 245, 245); transform-origin: 280.301px 121.843px;" id="el1c1l5dog1ou" class="animable"></path></g><g id="freepik--Shadow--inject-1" class="animable animator-hidden" style="transform-origin: 250px 416.24px;"><ellipse cx="250" cy="416.24" rx="193.89" ry="11.32" style="fill: rgb(245, 245, 245); transform-origin: 250px 416.24px;" id="elwhgo7c0fqlo" class="animable"></ellipse></g><g id="freepik--Character--inject-1" class="animable animator-hidden" style="transform-origin: 242.633px 262.076px;"><path d="M246.58,133c4.87,3.38,10.73,13.1,12.21,21.39,0,0-13.77,3.13-17.66-8C237.85,137,246.58,133,246.58,133Z" style="fill: rgb(38, 50, 56); transform-origin: 249.591px 143.898px;" id="elquved877g0d" class="animable"></path><path d="M252.59,143.5c1,5.05,2,14.29-1.55,17.66,0,0,1.3,2.81,9.36,3,7.53.22,6.32-3,6.32-3-5.63-1.34-5.48-5.52-4.5-9.44Z" style="fill: rgb(228, 137, 123); transform-origin: 258.916px 153.835px;" id="eld1cogwliiq" class="animable"></path><path d="M256.52,146.86l5.69,4.86a17,17,0,0,0-.48,2.78c-2.15-.31-5.1-2.67-5.33-4.92A7.44,7.44,0,0,1,256.52,146.86Z" style="fill: rgb(206, 111, 100); transform-origin: 259.269px 150.68px;" id="elwc0pab3nmu" class="animable"></path><path d="M259.83,119.77c1.42-2.25,11.93-5.92,13.21,11.27.4,5.38,2.15,5.69,4.43,12.14,3.22,9.12-4.08,11.56-7.21,8.85,0,0,6.69,3,4.75-4.08-1.1-4-5-3.72-5.8-10.81C268.48,130.84,259.83,119.77,259.83,119.77Z" style="fill: rgb(38, 50, 56); transform-origin: 269.051px 135.442px;" id="elmks1hcxyv0e" class="animable"></path><path d="M247,135.71c2.66,8,3.61,11.46,8.83,14.55,7.86,4.65,17.11-.37,16.9-9-.18-7.78-4.5-19.57-13.33-20.7A11.51,11.51,0,0,0,247,135.71Z" style="fill: rgb(228, 137, 123); transform-origin: 259.554px 136.246px;" id="elcxr6mkzo70e" class="animable"></path><path d="M251.68,119.28c2.3,5.47,2,16.82-1.19,24.61,0,0-13.3-4.76-10.6-16.24C242.18,118,251.68,119.28,251.68,119.28Z" style="fill: rgb(38, 50, 56); transform-origin: 246.355px 131.557px;" id="elx52mkeh38nr" class="animable"></path><path d="M266.94,121.18c-3,5.12-13.09,9.23-21.24,11.34,0,0-5.78-11.52,5-16.23C259.86,112.3,266.94,121.18,266.94,121.18Z" style="fill: rgb(38, 50, 56); transform-origin: 255.546px 123.89px;" id="elefhipmk27j" class="animable"></path><path d="M260,134.72c.17.66.67,1.1,1.1,1s.64-.75.47-1.41-.67-1.11-1.11-1S259.78,134.05,260,134.72Z" style="fill: rgb(38, 50, 56); transform-origin: 260.773px 134.514px;" id="elg43tldp6z8a" class="animable"></path><path d="M267.45,132.73c.18.66.67,1.11,1.11,1s.64-.74.46-1.4-.67-1.11-1.1-1S267.28,132.07,267.45,132.73Z" style="fill: rgb(38, 50, 56); transform-origin: 268.238px 132.53px;" id="el6i1dzlh7w8k" class="animable"></path><path d="M267.74,131.41l1.47-.88S268.72,132,267.74,131.41Z" style="fill: rgb(38, 50, 56); transform-origin: 268.475px 131.04px;" id="el333qv07srdg" class="animable"></path><path d="M265.77,134.4a18.58,18.58,0,0,0,3.49,3.6,3,3,0,0,1-2.25,1.07Z" style="fill: rgb(222, 87, 83); transform-origin: 267.515px 136.735px;" id="elii5yaoprr2" class="animable"></path><path d="M263.72,142.5a5.58,5.58,0,0,1-3.54-1.22.19.19,0,0,1,0-.26.18.18,0,0,1,.26,0,5.49,5.49,0,0,0,4.84.92.19.19,0,0,1,.23.13.19.19,0,0,1-.13.22A6.25,6.25,0,0,1,263.72,142.5Z" style="fill: rgb(38, 50, 56); transform-origin: 262.821px 141.732px;" id="elw6hs3ckke5" class="animable"></path><path d="M247.8,144.79a6.18,6.18,0,0,0,4,2.5c2.13.35,3-1.62,2.17-3.51-.72-1.7-2.69-3.93-4.74-3.41A2.77,2.77,0,0,0,247.8,144.79Z" style="fill: rgb(228, 137, 123); transform-origin: 250.731px 143.812px;" id="el61o6u61ojh6" class="animable"></path><path d="M257.11,132a.25.25,0,0,1-.12,0,.37.37,0,0,1-.22-.47c.76-2,3.44-3.18,3.55-3.23a.37.37,0,1,1,.28.68s-2.5,1.07-3.14,2.81A.38.38,0,0,1,257.11,132Z" style="fill: rgb(38, 50, 56); transform-origin: 258.808px 130.131px;" id="eldasu6uhlaua" class="animable"></path><path d="M269.3,126.32a.39.39,0,0,1-.2-.06,3.25,3.25,0,0,0-2.92-.38.37.37,0,0,1-.29-.67,4,4,0,0,1,3.61.44.37.37,0,0,1,.11.51A.38.38,0,0,1,269.3,126.32Z" style="fill: rgb(38, 50, 56); transform-origin: 267.694px 125.643px;" id="eluqw7bd6dvxs" class="animable"></path><path d="M260.24,133.4l1.47-.88S261.23,134,260.24,133.4Z" style="fill: rgb(38, 50, 56); transform-origin: 260.975px 133.032px;" id="elm2uj2kvhyq" class="animable"></path><polygon points="196.38 375.2 203.84 379.3 215.72 363.35 208.27 359.26 196.38 375.2" style="fill: rgb(228, 137, 123); transform-origin: 206.05px 369.28px;" id="els1wuins4m1" class="animable"></polygon><polygon points="262.13 406.1 270.64 406.1 271.2 386.41 262.7 386.41 262.13 406.1" style="fill: rgb(228, 137, 123); transform-origin: 266.665px 396.255px;" id="el9mgzo64eh4" class="animable"></polygon><polygon points="271.2 386.42 270.91 396.57 262.4 396.57 262.69 386.42 271.2 386.42" style="fill: rgb(206, 111, 100); transform-origin: 266.8px 391.495px;" id="elm3jo3gs0lfa" class="animable"></polygon><polygon points="208.26 359.26 215.72 363.36 209.59 371.57 202.13 367.48 208.26 359.26" style="fill: rgb(206, 111, 100); transform-origin: 208.925px 365.415px;" id="elna9q7y8n4me" class="animable"></polygon><path d="M277,214.66s6.71,65.51,6.15,91.45c-.58,27-10.46,88.49-10.46,88.49h-11.5s1.82-59.94.8-86.43c-1.11-28.89-10.28-93.51-10.28-93.51Z" style="fill: #92E3A9; transform-origin: 267.447px 304.63px;" id="elijnivh5qct8" class="animable"></path><g id="eldc7q1clw15a"><path d="M277,214.66s6.71,65.51,6.15,91.45c-.58,27-10.46,88.49-10.46,88.49h-11.5s1.82-59.94.8-86.43c-1.11-28.89-10.28-93.51-10.28-93.51Z" style="fill: rgb(255, 255, 255); opacity: 0.6; transform-origin: 267.447px 304.63px;" class="animable" id="ellmntgqptgq8"></path></g><g id="el4t502xge52v"><path d="M262.13,231c8.49,17.07,1.71,48.2-1.29,59.78-1.54-17.39-4.14-38.66-6.16-54.27C256,227.63,258.22,223.1,262.13,231Z" style="fill: #92E3A9; opacity: 0.32; transform-origin: 260.466px 258.852px;" class="animable" id="elo2b2gfnzxe"></path></g><path d="M267.91,214.66s-7.82,68.11-13.73,90c-7,26-41.85,66.21-41.85,66.21l-10.16-5.59s24.16-45.18,29.53-58.86c11.44-29.18,1.64-72.68,10.79-91.73Z" style="fill: #92E3A9; transform-origin: 235.04px 292.765px;" id="elnuts4zxyhoa" class="animable"></path><g id="elihymgm6xjfs"><path d="M267.91,214.66s-7.82,68.11-13.73,90c-7,26-41.85,66.21-41.85,66.21l-10.16-5.59s24.16-45.18,29.53-58.86c11.44-29.18,1.64-72.68,10.79-91.73Z" style="fill: rgb(255, 255, 255); opacity: 0.6; transform-origin: 235.04px 292.765px;" class="animable" id="elk7581bh0pnn"></path></g><path d="M270.93,405.12h-9.56a.68.68,0,0,0-.68.58l-1.08,7.56a1.36,1.36,0,0,0,1.36,1.51c3.33-.06,4.94-.25,9.14-.25,2.58,0,7.93.27,11.5.27s3.76-3.53,2.27-3.85c-6.66-1.44-9.29-3.41-11.53-5.3A2.22,2.22,0,0,0,270.93,405.12Z" style="fill: rgb(38, 50, 56); transform-origin: 272.18px 409.955px;" id="elomntyo0y85" class="animable"></path><path d="M274.12,406.59a13.9,13.9,0,0,1-2.67-.31.17.17,0,0,1-.15-.15.19.19,0,0,1,.1-.19c.38-.2,3.75-1.92,4.8-1.36a.65.65,0,0,1,.33.52,1.13,1.13,0,0,1-.36,1A3.17,3.17,0,0,1,274.12,406.59Zm-2.07-.57c1.92.33,3.35.25,3.88-.22a.75.75,0,0,0,.23-.66.27.27,0,0,0-.14-.24C275.44,404.58,273.45,405.35,272.05,406Z" style="fill: #92E3A9; transform-origin: 273.92px 405.538px;" id="el1vze76bqd53" class="animable"></path><path d="M271.48,406.29a.14.14,0,0,1-.1,0,.19.19,0,0,1-.08-.16c0-.1.2-2.38,1.27-3.27a1.48,1.48,0,0,1,1.1-.34c.54.06.7.33.74.55.15,1-1.84,2.78-2.85,3.24Zm2-3.45a1.09,1.09,0,0,0-.71.27,4.71,4.71,0,0,0-1.09,2.67c1.05-.62,2.44-2.08,2.34-2.69,0,0,0-.21-.42-.24Z" style="fill: #92E3A9; transform-origin: 272.859px 404.411px;" id="elaf1n72leu58" class="animable"></path><path d="M205.44,378.29l-7.6-5.79a.67.67,0,0,0-.89.05l-5.44,5.36a1.36,1.36,0,0,0,.16,2c2.69,2,4.08,2.79,7.42,5.34,2.06,1.57,4.9,4.07,7.74,6.23S212,391,211,389.82c-4.43-5.18-4.07-7.39-4.71-10.25A2.22,2.22,0,0,0,205.44,378.29Z" style="fill: rgb(38, 50, 56); transform-origin: 201.191px 382.329px;" id="elyc0mgmfzey" class="animable"></path><path d="M281.09,163.34s4.06,1.43-4.06,51.32H242.49c.58-14,.6-22.72-6.12-51.57A102.52,102.52,0,0,1,251,161.16a109.29,109.29,0,0,1,15.68,0C273.46,161.78,281.09,163.34,281.09,163.34Z" style="fill: rgb(38, 50, 56); transform-origin: 259.237px 187.769px;" id="elk53q54xfq6o" class="animable"></path><path d="M208.31,381.85c-1.05,0-2.35-1.38-3-2.23a.2.2,0,0,1,0-.2.18.18,0,0,1,.18-.1c.34,0,3.4.27,3.91,1.21a.66.66,0,0,1,0,.68,1.11,1.11,0,0,1-.9.64Zm-2.47-2.12c1,1.16,1.93,1.81,2.54,1.75A.77.77,0,0,0,209,381a.33.33,0,0,0,0-.32C208.74,380.19,207.07,379.86,205.84,379.73Z" style="fill: #92E3A9; transform-origin: 207.389px 380.585px;" id="el6s1weba1x5o" class="animable"></path><path d="M205.7,379.71l-.31,0a.18.18,0,0,1-.12-.29c.06-.09,1.55-2,2.77-2.11a1,1,0,0,1,.83.3.68.68,0,0,1,.19.83C208.68,379.21,206.75,379.71,205.7,379.71Zm2.43-2.06h-.06c-.75,0-1.76,1.06-2.29,1.68,1,0,2.69-.53,2.95-1.08.05-.09.08-.22-.12-.41A.66.66,0,0,0,208.13,377.65Z" style="fill: #92E3A9; transform-origin: 207.18px 378.507px;" id="elvbf321k5ulf" class="animable"></path><path d="M246.67,216.55h-.93c-.19,0-.33-.1-.32-.21l.44-4c0-.12.18-.22.36-.22h.94c.19,0,.33.1.31.22l-.43,4C247,216.45,246.86,216.55,246.67,216.55Z" style="fill: #92E3A9; transform-origin: 246.446px 214.335px;" id="elw5k3fyxn1y" class="animable"></path><path d="M274.57,216.55h-.94c-.18,0-.33-.1-.31-.21l.44-4c0-.12.17-.22.36-.22h.94c.18,0,.32.1.31.22l-.44,4C274.92,216.45,274.76,216.55,274.57,216.55Z" style="fill: #92E3A9; transform-origin: 274.344px 214.335px;" id="elnu59ai4kix" class="animable"></path><polygon points="260.22 395.01 273.71 395.01 274.7 390.71 259.59 390.18 260.22 395.01" style="fill: #92E3A9; transform-origin: 267.145px 392.595px;" id="eld13vpzlnx2" class="animable"></polygon><g id="elkqa2c5z8uwk"><polygon points="260.22 395.01 273.71 395.01 274.7 390.71 259.59 390.18 260.22 395.01" style="opacity: 0.5; transform-origin: 267.145px 392.595px;" class="animable" id="el7cko5cycryn"></polygon></g><polygon points="200.71 365.14 213.32 372.07 216.84 368.85 202.38 360.03 200.71 365.14" style="fill: #92E3A9; transform-origin: 208.775px 366.05px;" id="elwscxzu5h6k" class="animable"></polygon><g id="el8m3m4ywzlb"><polygon points="200.71 365.14 213.32 372.07 216.84 368.85 202.38 360.03 200.71 365.14" style="opacity: 0.5; transform-origin: 208.775px 366.05px;" class="animable" id="elkdcc6jfz8gl"></polygon></g><path d="M242,212.64l-.89,3.09c-.12.24.17.48.56.48H277.2c.31,0,.57-.15.59-.34l.31-3.1c0-.21-.25-.39-.59-.39h-35A.6.6,0,0,0,242,212.64Z" style="fill: #92E3A9; transform-origin: 259.591px 214.295px;" id="ellk61086swhe" class="animable"></path><g id="elsgrktdhr6l"><path d="M242,212.64l-.89,3.09c-.12.24.17.48.56.48H277.2c.31,0,.57-.15.59-.34l.31-3.1c0-.21-.25-.39-.59-.39h-35A.6.6,0,0,0,242,212.64Z" style="opacity: 0.3; transform-origin: 259.591px 214.295px;" class="animable" id="elr5qh29q044"></path></g><path d="M267.43,160.14s2.11,45.07,2,70.1,3.9,52,3.9,52l17-6.14s-10.15-52-9.63-67.66,2.47-44.14,2.47-44.14S277.73,160.36,267.43,160.14Z" style="fill: #92E3A9; transform-origin: 278.88px 221.19px;" id="elzza12wgpvx" class="animable"></path><g id="elvg9au4tvmu"><path d="M267.43,160.14s2.11,45.07,2,70.1,3.9,52,3.9,52l17-6.14s-10.15-52-9.63-67.66,2.47-44.14,2.47-44.14S277.73,160.36,267.43,160.14Z" style="opacity: 0.3; transform-origin: 278.88px 221.19px;" class="animable" id="el7l1tsybq3hy"></path></g><path d="M251.2,159.88s.39,47.86.54,72.89S249.32,282,249.32,282l-22.66-5s11.85-53.21,11.33-68.83-4-45.65-4-45.65A59.89,59.89,0,0,1,251.2,159.88Z" style="fill: #92E3A9; transform-origin: 239.203px 220.94px;" id="el8b19butxir" class="animable"></path><g id="elyydg0stbdjo"><path d="M251.2,159.88s.39,47.86.54,72.89S249.32,282,249.32,282l-22.66-5s11.85-53.21,11.33-68.83-4-45.65-4-45.65A59.89,59.89,0,0,1,251.2,159.88Z" style="opacity: 0.3; transform-origin: 239.203px 220.94px;" class="animable" id="elbbst0rqycu"></path></g><path d="M293,193.07c-.07-.34-.15-.68-.22-1-.15-.66-.31-1.32-.46-2-.22-.93-.45-1.86-.67-2.79-.28-1.12-.56-2.24-.85-3.35s-.65-2.46-1-3.69-.72-2.52-1.1-3.78-.76-2.44-1.17-3.65-.77-2.2-1.21-3.28c-.36-.9-.76-1.8-1.21-2.67A9.14,9.14,0,0,0,284,165a2.39,2.39,0,0,0-.87-.71c-3.27-1.31-6.48.91-7.64,4.95l.3,9.82c1.2,2.73,2.33,5.49,3.38,8.23s2,5.52,2.74,8.23a35.17,35.17,0,0,1,1.38,7.79,54.7,54.7,0,0,1-.54,8.39c-.38,2.9-.88,5.85-1.47,8.81-1.17,5.89-2.57,11.9-4.05,17.78l5.55,2.12A137,137,0,0,0,290,222.82c1-3,1.9-6.12,2.62-9.31a55.75,55.75,0,0,0,1.48-10.06,37.7,37.7,0,0,0-.35-6.54C293.55,195.62,293.31,194.34,293,193.07Z" style="fill: #92E3A9; transform-origin: 284.806px 202.162px;" id="elcu2xygrjdrm" class="animable"></path><g id="elymbj1rc00o"><path d="M293,193.07c-.07-.34-.15-.68-.22-1-.15-.66-.31-1.32-.46-2-.22-.93-.45-1.86-.67-2.79-.28-1.12-.56-2.24-.85-3.35s-.65-2.46-1-3.69-.72-2.52-1.1-3.78-.76-2.44-1.17-3.65-.77-2.2-1.21-3.28c-.36-.9-.76-1.8-1.21-2.67A9.14,9.14,0,0,0,284,165a2.39,2.39,0,0,0-.87-.71c-3.27-1.31-6.48.91-7.64,4.95l.3,9.82c1.2,2.73,2.33,5.49,3.38,8.23s2,5.52,2.74,8.23a35.17,35.17,0,0,1,1.38,7.79,54.7,54.7,0,0,1-.54,8.39c-.38,2.9-.88,5.85-1.47,8.81-1.17,5.89-2.57,11.9-4.05,17.78l5.55,2.12A137,137,0,0,0,290,222.82c1-3,1.9-6.12,2.62-9.31a55.75,55.75,0,0,0,1.48-10.06,37.7,37.7,0,0,0-.35-6.54C293.55,195.62,293.31,194.34,293,193.07Z" style="opacity: 0.3; transform-origin: 284.806px 202.162px;" class="animable" id="el1v0r1q0gvi7"></path></g><path d="M234.57,193.89c.08-.24.18-.47.26-.71,1.45-2.85,4.95-9.78,8-16.28a14.05,14.05,0,0,0,1.39-5l-.44-4a8,8,0,0,0-9.77-5.44c-7.09,1.63-12.4,35.83-12.4,35.83l.06,0c-.11.75-.22,1.5-.3,2.29a26.53,26.53,0,0,0,0,5.84,31.35,31.35,0,0,0,1.13,5.47,51.24,51.24,0,0,0,4,9.57,79.16,79.16,0,0,0,11.54,16.11l4.72-3.61c-.71-1.27-1.48-2.65-2.2-4s-1.39-2.73-2.07-4.09c-1.33-2.74-2.57-5.49-3.61-8.26a50.24,50.24,0,0,1-2.42-8.2,25.79,25.79,0,0,1-.44-3.87,17.81,17.81,0,0,1,.26-3.6A52.23,52.23,0,0,1,234.57,193.89Z" style="fill: #92E3A9; transform-origin: 232.714px 199.875px;" id="elszclz09os4" class="animable"></path><g id="elzj5apw8w9q"><path d="M234.57,193.89c.08-.24.18-.47.26-.71,1.45-2.85,4.95-9.78,8-16.28a14.05,14.05,0,0,0,1.39-5l-.44-4a8,8,0,0,0-9.77-5.44c-7.09,1.63-12.4,35.83-12.4,35.83l.06,0c-.11.75-.22,1.5-.3,2.29a26.53,26.53,0,0,0,0,5.84,31.35,31.35,0,0,0,1.13,5.47,51.24,51.24,0,0,0,4,9.57,79.16,79.16,0,0,0,11.54,16.11l4.72-3.61c-.71-1.27-1.48-2.65-2.2-4s-1.39-2.73-2.07-4.09c-1.33-2.74-2.57-5.49-3.61-8.26a50.24,50.24,0,0,1-2.42-8.2,25.79,25.79,0,0,1-.44-3.87,17.81,17.81,0,0,1,.26-3.6A52.23,52.23,0,0,1,234.57,193.89Z" style="opacity: 0.3; transform-origin: 232.714px 199.875px;" class="animable" id="eldfeesvkw12"></path></g><path d="M243.47,226.91l-7.8,10.81-1.54,15.51a4.5,4.5,0,0,0,1,3.27h0a4.52,4.52,0,0,0,7.75-1.3h0a41.62,41.62,0,0,0,2.49-13.43C245.44,237.73,245.74,230.4,243.47,226.91Z" style="fill: #92E3A9; transform-origin: 239.766px 242.538px;" id="elkigl5n5hez" class="animable"></path><g id="elo4f4jso4xc"><path d="M243.47,226.91l-7.8,10.81-1.54,15.51a4.5,4.5,0,0,0,1,3.27h0a4.52,4.52,0,0,0,7.75-1.3h0a41.62,41.62,0,0,0,2.49-13.43C245.44,237.73,245.74,230.4,243.47,226.91Z" style="opacity: 0.4; transform-origin: 239.766px 242.538px;" class="animable" id="el4a9d596wo0a"></path></g><path d="M278.43,226.57l5.5,10.81L285,252.89a6,6,0,0,1-.7,3.27h0c-1.56,2.72-4.62,2-5.47-1.31h0a56.94,56.94,0,0,1-1.76-13.42C277,237.38,276.82,230.06,278.43,226.57Z" style="fill: #92E3A9; transform-origin: 281.021px 242.2px;" id="el0iecxtiew0al" class="animable"></path><g id="elgox2cq5udec"><path d="M278.43,226.57l5.5,10.81L285,252.89a6,6,0,0,1-.7,3.27h0c-1.56,2.72-4.62,2-5.47-1.31h0a56.94,56.94,0,0,1-1.76-13.42C277,237.38,276.82,230.06,278.43,226.57Z" style="opacity: 0.4; transform-origin: 281.021px 242.2px;" class="animable" id="ell966n28uti"></path></g><path d="M251.75,159.15s.25,41.83-.15,53.59c-2.11-11.8-9.78-31.61-9.78-31.61l5.66-3.2-6.11-5.09,2.91-12.7A46.7,46.7,0,0,1,251.75,159.15Z" style="fill: #92E3A9; transform-origin: 246.599px 185.945px;" id="elobzc7s1c5a" class="animable"></path><g id="eluaytia0hlwq"><path d="M251.75,159.15s.25,41.83-.15,53.59c-2.11-11.8-9.78-31.61-9.78-31.61l5.66-3.2-6.11-5.09,2.91-12.7A46.7,46.7,0,0,1,251.75,159.15Z" style="opacity: 0.4; transform-origin: 246.599px 185.945px;" class="animable" id="elsmoyn96mwl"></path></g><path d="M267,159.15s.26,36.94,2.21,53.59C271.34,200.94,276,181,276,181l-3.59-3.06,3.95-4.32-2.93-13.47A24.72,24.72,0,0,0,267,159.15Z" style="fill: #92E3A9; transform-origin: 271.68px 185.945px;" id="ell1j6hsy42pl" class="animable"></path><g id="eljps1v6g2yl"><path d="M267,159.15s.26,36.94,2.21,53.59C271.34,200.94,276,181,276,181l-3.59-3.06,3.95-4.32-2.93-13.47A24.72,24.72,0,0,0,267,159.15Z" style="opacity: 0.4; transform-origin: 271.68px 185.945px;" class="animable" id="el0mgowl3eomy"></path></g><path d="M268.08,155.24c1.78,1.66,2.62,2.65,2.37,3.79s5.13,1.4,1.07,5.32-24.88,7.47-25.82-4.56c-.13-1.74,1.61-1.23,2.11-2.65s.7-2.35,2.13-1.56a17.53,17.53,0,0,0,7.15,2C260.29,157.77,265.29,152.64,268.08,155.24Z" style="fill: #92E3A9; transform-origin: 259.367px 161.28px;" id="eliexrk1cpvro" class="animable"></path><g id="elof975rx5wnn"><path d="M268.08,155.24c1.78,1.66,2.62,2.65,2.37,3.79s5.13,1.4,1.07,5.32-24.88,7.47-25.82-4.56c-.13-1.74,1.61-1.23,2.11-2.65s.7-2.35,2.13-1.56a17.53,17.53,0,0,0,7.15,2C260.29,157.77,265.29,152.64,268.08,155.24Z" style="fill: rgb(255, 255, 255); opacity: 0.6; transform-origin: 259.367px 161.28px;" class="animable" id="ellt1gs6bbw3f"></path></g><path d="M239.94,133.26c-1.42.27-4.52-10.07.73-17.37a15.38,15.38,0,0,1,22.92-2.53C264.83,114.64,252,131,239.94,133.26Z" style="fill: #92E3A9; transform-origin: 250.702px 121.314px;" id="el91elqozelch" class="animable"></path><path d="M239.94,133.26c-1.42.27-4.52-10.07.73-17.37a15.38,15.38,0,0,1,22.92-2.53C264.83,114.64,252,131,239.94,133.26Z" style="fill: #92E3A9; transform-origin: 250.702px 121.314px;" id="elc2nq3i5pv38" class="animable"></path><g id="el4u722k1c1qh"><path d="M239.94,133.26c-1.42.27-4.52-10.07.73-17.37a15.38,15.38,0,0,1,22.92-2.53C264.83,114.64,252,131,239.94,133.26Z" style="fill: rgb(255, 255, 255); opacity: 0.6; transform-origin: 250.702px 121.314px;" class="animable" id="elxmqm9cuy0a"></path></g><path d="M265.22,112.65c-4.21.69-19.92,6.73-27.14,20.33a1,1,0,0,0,0,.89,17,17,0,0,0,4.19,5.2.94.94,0,0,0,1.3-.13c3.6-4.15,9.46-12.06,25.44-18.9a.94.94,0,0,0,.51-1.25,44,44,0,0,0-3.39-5.74A.92.92,0,0,0,265.22,112.65Z" style="fill: #92E3A9; transform-origin: 253.787px 125.956px;" id="elx1zqyvw66kj" class="animable"></path><g id="elkp9tnnlhzcm"><path d="M265.22,112.65c-4.21.69-19.92,6.73-27.14,20.33a1,1,0,0,0,0,.89,17,17,0,0,0,4.19,5.2.94.94,0,0,0,1.3-.13c3.6-4.15,9.46-12.06,25.44-18.9a.94.94,0,0,0,.51-1.25,44,44,0,0,0-3.39-5.74A.92.92,0,0,0,265.22,112.65Z" style="opacity: 0.3; transform-origin: 253.787px 125.956px;" class="animable" id="elayoxdm99cfr"></path></g></g><g id="freepik--Leaves--inject-1" class="animable animator-active" style="transform-origin: 240.429px 171.034px;"><path d="M329.2,76.68a5.74,5.74,0,0,1-1.05,1.43,1.24,1.24,0,0,1-1.69.07,2.91,2.91,0,0,1-.81-1.83c-.3-1.47-.11-3-.43-4.47A3.24,3.24,0,0,0,324,70c-.92-.72-1.81-.08-2.26.82-1.71,3.36-5.33-4.67-6.84-1.62s3.95,7,1,7.89-1.23,3.94.69,4.09,6.38,1.79,3.27,3.93.33,4.78,3.89,4.55c5.68-.36,7.54-1.23,7.54-1.23a17.89,17.89,0,0,0,2.41-7.65,6.79,6.79,0,0,0-1.06-4.21c-.59-.87-1.62-1.65-2.62-.88A3.76,3.76,0,0,0,329.2,76.68Z" style="fill: #92E3A9; transform-origin: 324.018px 79.0842px;" id="elhz4yy2ecvd" class="animable"></path><g id="elxregeqtmsxq"><path d="M329.2,76.68a5.74,5.74,0,0,1-1.05,1.43,1.24,1.24,0,0,1-1.69.07,2.91,2.91,0,0,1-.81-1.83c-.3-1.47-.11-3-.43-4.47A3.24,3.24,0,0,0,324,70c-.92-.72-1.81-.08-2.26.82-1.71,3.36-5.33-4.67-6.84-1.62s3.95,7,1,7.89-1.23,3.94.69,4.09,6.38,1.79,3.27,3.93.33,4.78,3.89,4.55c5.68-.36,7.54-1.23,7.54-1.23a17.89,17.89,0,0,0,2.41-7.65,6.79,6.79,0,0,0-1.06-4.21c-.59-.87-1.62-1.65-2.62-.88A3.76,3.76,0,0,0,329.2,76.68Z" style="opacity: 0.3; transform-origin: 324.018px 79.0842px;" class="animable" id="el9ma4y729gwf"></path></g><path d="M65.52,204.47s-9.27-2.26-9.16-5.76,6.9.94,5.09-2.11-3.17-6.18-1.51-7.8,5,.71,6.14,5,2.39-.43,5.46.9C74.18,195.89,72.64,203,65.52,204.47Z" style="fill: #92E3A9; transform-origin: 64.5543px 196.377px;" id="elg1owfcyuhid" class="animable"></path><g id="elqu53a7xyxp"><path d="M65.52,204.47s-9.27-2.26-9.16-5.76,6.9.94,5.09-2.11-3.17-6.18-1.51-7.8,5,.71,6.14,5,2.39-.43,5.46.9C74.18,195.89,72.64,203,65.52,204.47Z" style="opacity: 0.3; transform-origin: 64.5543px 196.377px;" class="animable" id="elvj65w7c7vt"></path></g><path d="M407.28,252.61s-4.32-8.5-1.59-10.7,3.78,5.85,4.91,2.49,2.63-6.42,4.94-6.22,2.7,4.24.17,7.95,1.87,1.53,2.87,4.73C419.43,253.6,413,257.09,407.28,252.61Z" style="fill: #92E3A9; transform-origin: 411.721px 246.465px;" id="ellbnjru64tln" class="animable"></path><g id="ele4caimilam"><path d="M407.28,252.61s-4.32-8.5-1.59-10.7,3.78,5.85,4.91,2.49,2.63-6.42,4.94-6.22,2.7,4.24.17,7.95,1.87,1.53,2.87,4.73C419.43,253.6,413,257.09,407.28,252.61Z" style="opacity: 0.3; transform-origin: 411.721px 246.465px;" class="animable" id="elfjdft5gpb4"></path></g><path d="M183.28,94.17s3.85-6.81,14.42-2.69C197.7,91.48,191.75,99.53,183.28,94.17Z" style="fill: #92E3A9; transform-origin: 190.49px 93.0834px;" id="elwhth691x6dn" class="animable"></path><g id="elwewy6xy21j"><path d="M183.28,94.17s3.85-6.81,14.42-2.69C197.7,91.48,191.75,99.53,183.28,94.17Z" style="opacity: 0.3; transform-origin: 190.49px 93.0834px;" class="animable" id="el8x9dqfh932u"></path></g><path d="M107.06,171.58s-7.31,2.78-12.82-7.13C94.24,164.45,104,162.05,107.06,171.58Z" style="fill: #92E3A9; transform-origin: 100.65px 168.06px;" id="ellqz8jbnwfwb" class="animable"></path><g id="el6jnr3b0qu3p"><path d="M107.06,171.58s-7.31,2.78-12.82-7.13C94.24,164.45,104,162.05,107.06,171.58Z" style="opacity: 0.3; transform-origin: 100.65px 168.06px;" class="animable" id="elpnplsnebc9i"></path></g><path d="M354.92,163.85s-6.14,4.85-14.37-2.95C340.55,160.9,349.1,155.69,354.92,163.85Z" style="fill: #92E3A9; transform-origin: 347.735px 162.301px;" id="el5bcomadzki" class="animable"></path><g id="elq021783i8f9"><path d="M354.92,163.85s-6.14,4.85-14.37-2.95C340.55,160.9,349.1,155.69,354.92,163.85Z" style="opacity: 0.3; transform-origin: 347.735px 162.301px;" class="animable" id="elgagnn83ywu9"></path></g><path d="M357,124.19c-1.57-5.88,5.53-8.83,14.81-6C369.55,124.7,359.69,134.35,357,124.19Z" style="fill: #92E3A9; transform-origin: 364.296px 122.858px;" id="elr5465ee1l4g" class="animable"></path><g id="elpqh980qwtdb"><path d="M357,124.19c-1.57-5.88,5.53-8.83,14.81-6C369.55,124.7,359.69,134.35,357,124.19Z" style="opacity: 0.3; transform-origin: 364.296px 122.858px;" class="animable" id="elfuwyny9aaw8"></path></g><path d="M138.86,210.43s7.08,3.35,3.75,14.18C142.61,224.61,134.14,219.27,138.86,210.43Z" style="fill: #92E3A9; transform-origin: 140.465px 217.52px;" id="elshs6yozb25a" class="animable"></path><g id="elocq63l7d1zg"><path d="M138.86,210.43s7.08,3.35,3.75,14.18C142.61,224.61,134.14,219.27,138.86,210.43Z" style="fill: #92E3A9; opacity: 0.3; transform-origin: 140.465px 217.52px;" class="animable" id="el67telgqoksj"></path></g><g id="el7jo9dld0yqs"><g style="opacity: 0.3; transform-origin: 140.465px 217.52px;" class="animable" id="elpeuuxnhksi"><path d="M138.86,210.43s7.08,3.35,3.75,14.18C142.61,224.61,134.14,219.27,138.86,210.43Z" id="ely7cfkrbji5i" class="animable" style="transform-origin: 140.465px 217.52px;"></path><g id="el92p6umycari"><path d="M138.86,210.43s7.08,3.35,3.75,14.18C142.61,224.61,134.14,219.27,138.86,210.43Z" style="opacity: 0.3; transform-origin: 140.465px 217.52px;" class="animable" id="els8fj20iocx"></path></g></g></g><path d="M100.72,128.47a5.78,5.78,0,0,1-1.07-1.41,1.23,1.23,0,0,1,.41-1.64,2.87,2.87,0,0,1,2-.27c1.5.13,2.91.75,4.41.85a3.22,3.22,0,0,0,2.2-.61c.94-.68.58-1.71-.16-2.4-2.73-2.59,6-3.79,3.5-6.1s-7.85,1.8-7.86-1.24-3.43-2.3-4.12-.5-3.52,5.61-4.7,2-4.67-1-5.46,2.44c-1.26,5.55-.95,7.59-.95,7.59a17.88,17.88,0,0,0,6.65,4.48,6.93,6.93,0,0,0,4.34.17c1-.32,2-1.09,1.59-2.26A3.7,3.7,0,0,0,100.72,128.47Z" style="fill: #92E3A9; transform-origin: 100.676px 122.841px;" id="elewat3g8xty4" class="animable"></path><g id="elvtbi3s0aa9f"><path d="M100.72,128.47a5.78,5.78,0,0,1-1.07-1.41,1.23,1.23,0,0,1,.41-1.64,2.87,2.87,0,0,1,2-.27c1.5.13,2.91.75,4.41.85a3.22,3.22,0,0,0,2.2-.61c.94-.68.58-1.71-.16-2.4-2.73-2.59,6-3.79,3.5-6.1s-7.85,1.8-7.86-1.24-3.43-2.3-4.12-.5-3.52,5.61-4.7,2-4.67-1-5.46,2.44c-1.26,5.55-.95,7.59-.95,7.59a17.88,17.88,0,0,0,6.65,4.48,6.93,6.93,0,0,0,4.34.17c1-.32,2-1.09,1.59-2.26A3.7,3.7,0,0,0,100.72,128.47Z" style="fill: rgb(255, 255, 255); opacity: 0.6; transform-origin: 100.676px 122.841px;" class="animable" id="elg5fsx0upcxd"></path></g><path d="M96.51,273.35s7.65-5.69,6.18-8.87-6,3.55-5.5,0,.51-6.93-1.65-7.77-4.3,2.59-3.69,7-2.36.53-4.68,3C85.19,268.82,89.39,274.8,96.51,273.35Z" style="fill: #92E3A9; transform-origin: 94.7788px 265.078px;" id="elfve5m8ppgqq" class="animable"></path><g id="el3mpdyppi9uv"><path d="M96.51,273.35s7.65-5.69,6.18-8.87-6,3.55-5.5,0,.51-6.93-1.65-7.77-4.3,2.59-3.69,7-2.36.53-4.68,3C85.19,268.82,89.39,274.8,96.51,273.35Z" style="fill: rgb(255, 255, 255); opacity: 0.6; transform-origin: 94.7788px 265.078px;" class="animable" id="elj9q2oclx4s"></path></g><path d="M316.47,130.45s-9.52-.57-10-4,6.95-.31,4.62-3-4.22-5.51-2.88-7.4,5-.19,6.95,3.86,2.27-.84,5.54-.09C323.45,120.45,323.22,127.76,316.47,130.45Z" style="fill: #92E3A9; transform-origin: 314.399px 122.865px;" id="elos9jthoaptr" class="animable"></path><g id="el58t8auzcho"><path d="M316.47,130.45s-9.52-.57-10-4,6.95-.31,4.62-3-4.22-5.51-2.88-7.4,5-.19,6.95,3.86,2.27-.84,5.54-.09C323.45,120.45,323.22,127.76,316.47,130.45Z" style="fill: rgb(255, 255, 255); opacity: 0.6; transform-origin: 314.399px 122.865px;" class="animable" id="el7gq6kfxs942"></path></g><path d="M360.07,255.61A5.42,5.42,0,0,1,359,254.2a1.23,1.23,0,0,1,.41-1.64,2.87,2.87,0,0,1,2-.26c1.5.13,2.91.74,4.42.85a3.19,3.19,0,0,0,2.19-.61c.94-.68.58-1.71-.15-2.41-2.74-2.59,6-3.78,3.49-6.09s-7.85,1.8-7.86-1.25-3.43-2.29-4.12-.49-3.52,5.61-4.69,2-4.68-1-5.47,2.44c-1.26,5.55-.95,7.59-.95,7.59a17.79,17.79,0,0,0,6.65,4.47,6.79,6.79,0,0,0,4.34.17c1-.31,2-1.08,1.59-2.25A3.75,3.75,0,0,0,360.07,255.61Z" style="fill: #92E3A9; transform-origin: 360.027px 249.986px;" id="elzbexy6tw6im" class="animable"></path><g id="elcbrodkqd3ng"><path d="M360.07,255.61A5.42,5.42,0,0,1,359,254.2a1.23,1.23,0,0,1,.41-1.64,2.87,2.87,0,0,1,2-.26c1.5.13,2.91.74,4.42.85a3.19,3.19,0,0,0,2.19-.61c.94-.68.58-1.71-.15-2.41-2.74-2.59,6-3.78,3.49-6.09s-7.85,1.8-7.86-1.25-3.43-2.29-4.12-.49-3.52,5.61-4.69,2-4.68-1-5.47,2.44c-1.26,5.55-.95,7.59-.95,7.59a17.79,17.79,0,0,0,6.65,4.47,6.79,6.79,0,0,0,4.34.17c1-.31,2-1.08,1.59-2.25A3.75,3.75,0,0,0,360.07,255.61Z" style="fill: rgb(255, 255, 255); opacity: 0.6; transform-origin: 360.027px 249.986px;" class="animable" id="elw6mbnnsfl0a"></path></g><path d="M72.75,88.39s-7.58,1.93-11.93-8.54C60.82,79.85,70.75,78.56,72.75,88.39Z" style="fill: #92E3A9; transform-origin: 66.785px 84.1621px;" id="el5n71bj13khs" class="animable"></path><g id="el6gamtf0nlid"><path d="M72.75,88.39s-7.58,1.93-11.93-8.54C60.82,79.85,70.75,78.56,72.75,88.39Z" style="fill: rgb(255, 255, 255); opacity: 0.6; transform-origin: 66.785px 84.1621px;" class="animable" id="elfyq5mapbxa"></path></g><path d="M407.94,203.28s-6.65,4.12-13.94-4.56C394,198.72,403.09,194.51,407.94,203.28Z" style="fill: #92E3A9; transform-origin: 400.97px 200.984px;" id="ellmcm9c1vvj" class="animable"></path><g id="elpd5hs4jmdde"><path d="M407.94,203.28s-6.65,4.12-13.94-4.56C394,198.72,403.09,194.51,407.94,203.28Z" style="fill: rgb(255, 255, 255); opacity: 0.6; transform-origin: 400.97px 200.984px;" class="animable" id="elp4vp4cevjz8"></path></g><path d="M410,145.12a5.63,5.63,0,0,1-.61-1.66,1.25,1.25,0,0,1,.88-1.45,2.93,2.93,0,0,1,2,.34c1.39.58,2.55,1.59,4,2.14a3.25,3.25,0,0,0,2.28.07c1.1-.36,1.07-1.46.57-2.34-1.83-3.29,6.85-1.82,5.16-4.77s-8-.63-7.12-3.54-2.59-3.21-3.79-1.71-5,4.31-5.08.53-4.15-2.38-5.95.69c-2.86,4.92-3.18,7-3.18,7a17.92,17.92,0,0,0,5,6.26,6.85,6.85,0,0,0,4.09,1.46c1.05,0,2.27-.43,2.19-1.68A4,4,0,0,0,410,145.12Z" style="fill: #92E3A9; transform-origin: 411.83px 139.294px;" id="el1sz7t11j55u" class="animable"></path><g id="eludd4w0q58aj"><path d="M410,145.12a5.63,5.63,0,0,1-.61-1.66,1.25,1.25,0,0,1,.88-1.45,2.93,2.93,0,0,1,2,.34c1.39.58,2.55,1.59,4,2.14a3.25,3.25,0,0,0,2.28.07c1.1-.36,1.07-1.46.57-2.34-1.83-3.29,6.85-1.82,5.16-4.77s-8-.63-7.12-3.54-2.59-3.21-3.79-1.71-5,4.31-5.08.53-4.15-2.38-5.95.69c-2.86,4.92-3.18,7-3.18,7a17.92,17.92,0,0,0,5,6.26,6.85,6.85,0,0,0,4.09,1.46c1.05,0,2.27-.43,2.19-1.68A4,4,0,0,0,410,145.12Z" style="opacity: 0.6; transform-origin: 411.83px 139.294px;" class="animable" id="el1n5s176c5jn"></path></g><path d="M174.12,149.23s9.27-2.26,9.15-5.76-6.89.94-5.08-2.11,3.16-6.18,1.51-7.8-5,.72-6.14,5.05-2.39-.42-5.47.91C165.46,140.65,167,147.8,174.12,149.23Z" style="fill: #92E3A9; transform-origin: 175.079px 141.137px;" id="elovxba7t4qzn" class="animable"></path><g id="elk4vsypikktn"><path d="M174.12,149.23s9.27-2.26,9.15-5.76-6.89.94-5.08-2.11,3.16-6.18,1.51-7.8-5,.72-6.14,5.05-2.39-.42-5.47.91C165.46,140.65,167,147.8,174.12,149.23Z" style="opacity: 0.6; transform-origin: 175.079px 141.137px;" class="animable" id="elcn7kdaprejl"></path></g><path d="M134.91,88.63S134.82,80.8,146,79C146,79,144.93,89,134.91,88.63Z" style="fill: #92E3A9; transform-origin: 140.455px 83.82px;" id="el4rf8zxp9yjm" class="animable"></path><g id="ellce9txtugc"><path d="M134.91,88.63S134.82,80.8,146,79C146,79,144.93,89,134.91,88.63Z" style="opacity: 0.6; transform-origin: 140.455px 83.82px;" class="animable" id="elzuu0zf0adpq"></path></g><path d="M318.52,219.09s-.1-7.83,11.1-9.59C329.62,209.5,328.54,219.45,318.52,219.09Z" style="fill: #92E3A9; transform-origin: 324.07px 214.3px;" id="el2qx8bt737b5" class="animable"></path><g id="elo31z19ul4ia"><path d="M318.52,219.09s-.1-7.83,11.1-9.59C329.62,209.5,328.54,219.45,318.52,219.09Z" style="opacity: 0.6; transform-origin: 324.07px 214.3px;" class="animable" id="elt3xa9hzrbkf"></path></g><path d="M415.64,98.33s-4.92,6.09-14.67.31C401,98.64,408.15,91.66,415.64,98.33Z" style="fill: #92E3A9; transform-origin: 408.305px 98.2874px;" id="elx56cd4qxn7l" class="animable"></path><g id="elzo5y8yi4l1p"><path d="M415.64,98.33s-4.92,6.09-14.67.31C401,98.64,408.15,91.66,415.64,98.33Z" style="opacity: 0.6; transform-origin: 408.305px 98.2874px;" class="animable" id="elzddqp3lzuu"></path></g><path d="M187.25,197.41c-5.63,2.32-9.46-4.34-7.89-13.91C186.14,184.89,197,193.42,187.25,197.41Z" style="fill: #92E3A9; transform-origin: 185.071px 190.687px;" id="el76o0qa9phos" class="animable"></path><g id="elzu58ha40fh"><path d="M187.25,197.41c-5.63,2.32-9.46-4.34-7.89-13.91C186.14,184.89,197,193.42,187.25,197.41Z" style="opacity: 0.6; transform-origin: 185.071px 190.687px;" class="animable" id="elucscxp1dt6"></path></g></g><defs>     <filter id="active" height="200%">         <feMorphology in="SourceAlpha" result="DILATED" operator="dilate" radius="2"></feMorphology>                <feFlood flood-color="#32DFEC" flood-opacity="1" result="PINK"></feFlood>        <feComposite in="PINK" in2="DILATED" operator="in" result="OUTLINE"></feComposite>        <feMerge>            <feMergeNode in="OUTLINE"></feMergeNode>            <feMergeNode in="SourceGraphic"></feMergeNode>        </feMerge>    </filter>    <filter id="hover" height="200%">        <feMorphology in="SourceAlpha" result="DILATED" operator="dilate" radius="2"></feMorphology>                <feFlood flood-color="#ff0000" flood-opacity="0.5" result="PINK"></feFlood>        <feComposite in="PINK" in2="DILATED" operator="in" result="OUTLINE"></feComposite>        <feMerge>            <feMergeNode in="OUTLINE"></feMergeNode>            <feMergeNode in="SourceGraphic"></feMergeNode>        </feMerge>            <feColorMatrix type="matrix" values="0   0   0   0   0                0   1   0   0   0                0   0   0   0   0                0   0   0   1   0 "></feColorMatrix>    </filter></defs></svg>